<svg xmlns="http://www.w3.org/2000/svg" xmlns:xlink="http://www.w3.org/1999/xlink" viewBox="0 0 26.85 36.52"><defs><style>.cls-1{fill:#fff;}.cls-2{fill:#f08d00;}.cls-3{fill:#0b3675;}.cls-4{fill:#114f99;}.cls-5{fill:url(#linear-gradient);}.cls-6{fill:url(#linear-gradient-2);}.cls-7{fill:url(#linear-gradient-3);}.cls-8{fill:url(#linear-gradient-4);}.cls-9{fill:url(#linear-gradient-5);}</style><linearGradient id="linear-gradient" x1="18.11" y1="19.28" x2="31.59" y2="19.28" gradientTransform="matrix(1, 0, 0, 1, -4.71, 1.2)" gradientUnits="userSpaceOnUse"><stop offset="0" stop-color="#c18e1b"/><stop offset="0.64" stop-color="#fbf2aa"/><stop offset="1" stop-color="#f8ce30"/></linearGradient><linearGradient id="linear-gradient-2" x1="7.39" y1="12.41" x2="18.51" y2="12.41" gradientTransform="matrix(1, 0, 0, 1, 0, 0)" xlink:href="#linear-gradient"/><linearGradient id="linear-gradient-3" x1="0.12" y1="13.19" x2="24.93" y2="13.19" gradientTransform="matrix(1, 0, 0, 1, 0, 0)" xlink:href="#linear-gradient"/><linearGradient id="linear-gradient-4" x1="8.59" y1="13.69" x2="17.6" y2="11.03" gradientTransform="matrix(1, 0, 0, 1, 0, 0)" xlink:href="#linear-gradient"/><linearGradient id="linear-gradient-5" x1="1563.9" y1="181.09" x2="1573" y2="181.09" gradientTransform="translate(-968.07 -1224.71) rotate(45)" xlink:href="#linear-gradient"/></defs><title>6</title><g id="Layer_2" data-name="Layer 2"><g id="Layer_1-2" data-name="Layer 1"><circle class="cls-1" cx="12.4" cy="25.64" r="10.88" transform="translate(-15.18 18.54) rotate(-49.75)"/><circle class="cls-2" cx="12.4" cy="25.64" r="9.96" transform="translate(-15.18 18.54) rotate(-49.75)"/><circle class="cls-1" cx="12.4" cy="25.64" r="7.68" transform="translate(-15.18 18.54) rotate(-49.75)"/><path class="cls-3" d="M5.84,3.12H18.53a3.76,3.76,0,0,1,3.76,3.76V18.67a3.76,3.76,0,0,1-3.76,3.76H2.88a0,0,0,0,1,0,0V6.08a3,3,0,0,1,3-3Z" transform="translate(-5.35 12.61) rotate(-44.9)"/><path class="cls-4" d="M5.93,2.55H18.61a3.77,3.77,0,0,1,3.77,3.77V18.18a3.77,3.77,0,0,1-3.77,3.77H3a0,0,0,0,1,0,0V5.51a3,3,0,0,1,3-3Z" transform="translate(-4.95 12.52) rotate(-44.9)"/><path class="cls-5" d="M13.36,25.92,26,19.3a1.66,1.66,0,0,0,.29-2.66l-1.67-1.53Z"/><path class="cls-3" d="M13.38,25.86,25.84,19a1.62,1.62,0,0,0,.29-2.62l-1.69-1.51Z"/><path class="cls-6" d="M9,8.48a5.56,5.56,0,1,0,7.86,0A5.52,5.52,0,0,0,9,8.48Zm7.65,7.65a5.27,5.27,0,1,1,1.54-3.72A5.27,5.27,0,0,1,16.67,16.13Z"/><path class="cls-7" d="M23.81,9.69,15.43,1.28a3.84,3.84,0,0,0-5.43,0L1,10.22a3,3,0,0,0,0,4.29l3.55,3.57,0,0L7.43,21l0,0,5.22,5.24.05.05L23.8,15.13a3.84,3.84,0,0,0,0-5.43Zm-5.33-.12A6.23,6.23,0,0,1,10.07,18l-.09,0L7.36,20.54,4.94,18.12l2.6-2.6-.05-.1A6.23,6.23,0,0,1,15.92,7L16,7l2.35-2.35L20.8,7.11,18.43,9.48Z"/><path class="cls-4" d="M12.7,26.33.91,14.54a3.19,3.19,0,0,1-.49-3.83,1.46,1.46,0,0,1,.27-.35L10,1.14a4,4,0,0,1,5.57,0L24,9.6a3.92,3.92,0,0,1,0,5.55Zm0-26.18a3.68,3.68,0,0,0-2.6,1.07L1,10.34A2.87,2.87,0,0,0,1,14.4L12.67,26.16,23.85,15a3.69,3.69,0,0,0,0-5.22L15.32,1.24A3.68,3.68,0,0,0,12.71.15Z"/><path class="cls-3" d="M15.58,14.13a3.07,3.07,0,0,1-2.63,1.46,3.21,3.21,0,0,1-3.18-2.8H17c0-.13,0-.26,0-.4a4.05,4.05,0,0,0-8.11,0,4.11,4.11,0,0,0,4.05,4.11,4.47,4.47,0,0,0,4.2-2.33ZM12.95,9.19a3.21,3.21,0,0,1,3.13,2.49H9.82A3.21,3.21,0,0,1,12.95,9.19Z"/><path class="cls-4" d="M16,6.78a6.37,6.37,0,0,0-8.63,8.63L4.61,18.17,7.24,20.8,10,18a6.37,6.37,0,0,0,8.61-8.61l2.51-2.51L18.48,4.29Zm.17,8.84a4.55,4.55,0,1,1,0-6.43A4.55,4.55,0,0,1,16.17,15.62Z"/><path class="cls-8" d="M12.95,17.1a4.7,4.7,0,1,1,4.7-4.7c0,.15,0,.3,0,.46V13H9.54a3.45,3.45,0,0,0,6.16,1.49l0-.06,1.43,0-.12.21A4.7,4.7,0,0,1,12.95,17.1Zm0-9.11a4.41,4.41,0,1,0,3.73,6.74l-.79,0a3.72,3.72,0,0,1-2.94,1.43,3.75,3.75,0,0,1-3.72-3.28l0-.16h8.13c0-.1,0-.21,0-.3A4.41,4.41,0,0,0,12.95,8Zm3.69,3.75H9.25l0-.18a3.75,3.75,0,0,1,7.31,0Zm-7-.29h6.65a3.46,3.46,0,0,0-6.65,0Z"/><path class="cls-9" d="M15.82,14.58a3.6,3.6,0,0,1-6.45-1.72h8.1c0-.15,0-.3,0-.45a4.56,4.56,0,1,0-.57,2.2ZM12.95,8.8a3.6,3.6,0,0,1,3.51,2.8h-7A3.6,3.6,0,0,1,12.95,8.8Z"/></g></g></svg>