<svg xmlns="http://www.w3.org/2000/svg" xmlns:xlink="http://www.w3.org/1999/xlink" viewBox="0 0 20.66 24.83"><defs><style>.cls-1{fill:#fff;}.cls-2{fill:#f08d00;}.cls-3{fill:#022602;}.cls-4{fill:#114f99;}.cls-5{fill:url(#linear-gradient);}.cls-6{fill:url(#linear-gradient-2);}.cls-7{fill:#0b3675;}</style><linearGradient id="linear-gradient" x1="1.27" y1="9.16" x2="18.71" y2="9.16" gradientUnits="userSpaceOnUse"><stop offset="0" stop-color="#c18e1b"/><stop offset="0.64" stop-color="#fbf2aa"/><stop offset="1" stop-color="#f8ce30"/></linearGradient><linearGradient id="linear-gradient-2" x1="10.7" y1="14.37" x2="20.07" y2="14.37" xlink:href="#linear-gradient"/></defs><title>7</title><g id="Layer_2" data-name="Layer 2"><g id="Layer_1-2" data-name="Layer 1"><circle class="cls-1" cx="10.33" cy="14.5" r="10.33" transform="translate(-7.41 13.01) rotate(-49.75)"/><circle class="cls-2" cx="10.33" cy="14.5" r="9.45" transform="translate(-7.41 13.01) rotate(-49.75)"/><circle class="cls-1" cx="10.33" cy="14.5" r="7.29" transform="translate(-7.41 13.02) rotate(-49.75)"/><path class="cls-3" d="M5.28,2.33h9a2.61,2.61,0,0,1,2.61,2.61v8a2.61,2.61,0,0,1-2.61,2.61h-11a0,0,0,0,1,0,0V4.38A2.05,2.05,0,0,1,5.28,2.33Z" transform="translate(-3.38 9.73) rotate(-45)"/><path class="cls-4" d="M5.37,1.78h8.91a2.65,2.65,0,0,1,2.65,2.65v8.35a2.65,2.65,0,0,1-2.65,2.65h-11a0,0,0,0,1,0,0V3.86A2.08,2.08,0,0,1,5.37,1.78Z" transform="translate(-3.12 9.67) rotate(-45)"/><path class="cls-5" d="M10.11,18.33l0,0L1.89,10.11a2.14,2.14,0,0,1,0-3L8.2.79A2.7,2.7,0,0,1,12,.79l5.9,5.9a2.7,2.7,0,0,1,0,3.82Zm0-18.22A2.58,2.58,0,0,0,8.27.87L2,7.17A2,2,0,0,0,2,10l8.14,8.14,7.74-7.74a2.6,2.6,0,0,0,0-3.67L11.94.87A2.58,2.58,0,0,0,10.11.11Z"/><path class="cls-6" d="M10.7,18.19l8.8-4.7a1.17,1.17,0,0,0,.2-1.87l-1.18-1.08Z"/><path class="cls-7" d="M10.65,18.25l8.75-4.87a1.14,1.14,0,0,0,.2-1.84l-1.19-1.06Z"/></g></g></svg>