<svg xmlns="http://www.w3.org/2000/svg" xmlns:xlink="http://www.w3.org/1999/xlink" viewBox="0 0 40.26 51.16"><defs><style>.cls-1{fill:#fff;}.cls-2{fill:#eb3535;}.cls-3{fill:#0b3675;}.cls-4{fill:#114f99;}.cls-5{fill:url(#linear-gradient);}.cls-6{fill:url(#linear-gradient-2);}.cls-7{fill:url(#linear-gradient-3);}.cls-8{fill:url(#linear-gradient-4);}.cls-9{fill:url(#linear-gradient-5);}</style><linearGradient id="linear-gradient" x1="24.84" y1="29.38" x2="45.05" y2="29.38" gradientTransform="matrix(1, 0, 0, 1, -4.74, 1.33)" gradientUnits="userSpaceOnUse"><stop offset="0" stop-color="#c18e1b"/><stop offset="0.64" stop-color="#fbf2aa"/><stop offset="1" stop-color="#f8ce30"/></linearGradient><linearGradient id="linear-gradient-2" x1="11.08" y1="18.61" x2="27.75" y2="18.61" gradientTransform="matrix(1, 0, 0, 1, 0, 0)" xlink:href="#linear-gradient"/><linearGradient id="linear-gradient-3" x1="0.17" y1="19.77" x2="37.38" y2="19.77" gradientTransform="matrix(1, 0, 0, 1, 0, 0)" xlink:href="#linear-gradient"/><linearGradient id="linear-gradient-4" x1="12.88" y1="20.53" x2="26.39" y2="16.54" gradientTransform="matrix(1, 0, 0, 1, 0, 0)" xlink:href="#linear-gradient"/><linearGradient id="linear-gradient-5" x1="1563.68" y1="123.13" x2="1577.33" y2="123.13" gradientTransform="translate(-1004.03 -1178.98) rotate(45)" xlink:href="#linear-gradient"/></defs><title>8</title><g id="Layer_2" data-name="Layer 2"><g id="Layer_1-2" data-name="Layer 1"><circle class="cls-1" cx="19.32" cy="35.58" r="15.57" transform="translate(-20.32 27.33) rotate(-49.75)"/><circle class="cls-2" cx="19.32" cy="35.58" r="14.25" transform="translate(-20.32 27.33) rotate(-49.75)"/><circle class="cls-1" cx="19.32" cy="35.58" r="10.99" transform="translate(-20.32 27.33) rotate(-49.74)"/><path class="cls-3" d="M8.75,4.68h19a5.63,5.63,0,0,1,5.63,5.63V28a5.63,5.63,0,0,1-5.63,5.63H4.32a0,0,0,0,1,0,0V9.11A4.43,4.43,0,0,1,8.75,4.68Z" transform="translate(-8.02 18.91) rotate(-44.9)"/><path class="cls-4" d="M8.9,3.82h19a5.65,5.65,0,0,1,5.65,5.65v17.8a5.65,5.65,0,0,1-5.65,5.65H4.46a0,0,0,0,1,0,0V8.26A4.44,4.44,0,0,1,8.9,3.82Z" transform="translate(-7.42 18.77) rotate(-44.9)"/><path class="cls-5" d="M20,38.87l19-9.94a2.49,2.49,0,0,0,.44-4L37,22.65Z"/><path class="cls-3" d="M20.07,38.78,38.74,28.43a2.42,2.42,0,0,0,.44-3.92l-2.53-2.26Z"/><path class="cls-6" d="M13.53,12.71a8.33,8.33,0,1,0,11.78,0A8.28,8.28,0,0,0,13.53,12.71ZM25,24.19a7.9,7.9,0,1,1,2.31-5.58A7.9,7.9,0,0,1,25,24.19Z"/><path class="cls-7" d="M35.7,14.54,23.13,1.93a5.76,5.76,0,0,0-8.15,0L1.52,15.33a4.52,4.52,0,0,0,0,6.44l5.33,5.35,0,.06,4.25,4.25,0,0,7.83,7.86.08.08L35.69,22.68a5.76,5.76,0,0,0,0-8.15Zm-8-.18A9.34,9.34,0,0,1,15.1,27L15,26.89,11,30.81,7.4,27.17l3.9-3.9-.08-.14A9.34,9.34,0,0,1,23.88,10.48l.14.08L27.55,7l3.64,3.64-3.55,3.55Z"/><path class="cls-4" d="M19,39.48,1.37,21.8a4.78,4.78,0,0,1-.74-5.74,2.19,2.19,0,0,1,.4-.52L14.93,1.71a5.92,5.92,0,0,1,8.35,0L35.93,14.39a5.88,5.88,0,0,1,0,8.33Zm0-39.26a5.51,5.51,0,0,0-3.9,1.61L1.44,15.51a4.3,4.3,0,0,0,0,6.08L19,39.23,35.77,22.52a5.54,5.54,0,0,0,0-7.82L23,1.85A5.51,5.51,0,0,0,19.06.23Z"/><path class="cls-3" d="M23.36,21.19a4.61,4.61,0,0,1-3.95,2.18,4.81,4.81,0,0,1-4.77-4.2H25.46c0-.2,0-.4,0-.6a6.08,6.08,0,0,0-12.16,0,6.16,6.16,0,0,0,6.08,6.16,6.71,6.71,0,0,0,6.3-3.5Zm-3.95-7.41a4.81,4.81,0,0,1,4.69,3.73H14.72A4.81,4.81,0,0,1,19.41,13.77Z"/><path class="cls-4" d="M24,10.17A9.56,9.56,0,0,0,11,23.12L6.91,27.24l3.94,3.94L15,27a9.56,9.56,0,0,0,12.9-12.9l3.76-3.76L27.72,6.44Zm.26,13.26a6.82,6.82,0,1,1,0-9.64A6.82,6.82,0,0,1,24.24,23.43Z"/><path class="cls-8" d="M19.42,25.64a7,7,0,1,1,7-7c0,.22,0,.46,0,.69l0,.2H14.31a5.18,5.18,0,0,0,9.24,2.23l.07-.09,2.14,0-.17.32A7,7,0,0,1,19.42,25.64Zm0-13.65A6.61,6.61,0,1,0,25,22.1l-1.18,0a5.57,5.57,0,0,1-4.42,2.15,5.63,5.63,0,0,1-5.58-4.92l0-.25H26c0-.16,0-.31,0-.45A6.61,6.61,0,0,0,19.42,12ZM25,17.61H13.88l.06-.27a5.62,5.62,0,0,1,11,0Zm-10.52-.44h10a5.18,5.18,0,0,0-10,0Z"/><path class="cls-9" d="M23.73,21.86a5.4,5.4,0,0,1-9.67-2.58H26.21c0-.22,0-.45,0-.67a6.83,6.83,0,1,0-.85,3.29Zm-4.31-8.67a5.41,5.41,0,0,1,5.27,4.2H14.15A5.41,5.41,0,0,1,19.42,13.19Z"/></g></g></svg>