<svg xmlns="http://www.w3.org/2000/svg" viewBox="0 0 627.57 44.29"><defs><style>.cls-1{fill:#fff;}.cls-2{fill:#129f5b;}.cls-3{fill:#5a82c2;}</style></defs><title>banner</title><g id="Layer_2" data-name="Layer 2"><g id="Layer_1-2" data-name="Layer 1"><path class="cls-1" d="M0,4.63V31.1c0,6.1,6.66,15.3,15.44,12.75l23.38-6.8V21.68c0-7.08-4.06-13.5-10.61-15.4L4.52,0C2-.12,0,2.44,0,4.63Z"/><path class="cls-2" d="M2.68,23.6v5.22C2.75,34.65,7.5,42.72,15,41.7c-3.87-.7-5.64-5-5.57-8.35.06-3.1,0-6.36,0-9.52Z"/><path class="cls-2" d="M9.47,10.83q0-3.49,0-7c-1-.25-3.2-.67-3.93-.86A2.3,2.3,0,0,0,2.68,5.23q0,2.25,0,4.5h.06Z"/><path class="cls-2" d="M21.14,8.38v4.14l4.8.87a1.45,1.45,0,0,1,1.15,1.37q0,3.55,0,7.1c0,.64.17,2.1-1.07,2.1-1.92,0-2.86,0-4.79,0l-.1,6.33c0,4.15,2.39,5.6,5.9,5,3.89-.62,6-1.1,9-1.75,0-4.26.13-8.39.13-12.64a14.5,14.5,0,0,0-10-13.06l-6-1.67A3.13,3.13,0,0,1,21.14,8.38Z"/><path class="cls-3" d="M36.16,36.25c0-.9,0-1.35,0-2.26-2.63.56-3.51.82-6.14,1.38-10.55,2.25-9.62-2.5-9.59-7.93v-4l5,0c.92,0,1.2-.49,1.2-1.12q0-3.46,0-6.91a1.44,1.44,0,0,0-1.2-1.33l-5-.84v-4a3.76,3.76,0,0,0-1-3.07C16.51,5.41,13.6,4.79,10.69,4c0,2.26,0,5.34,0,7.6L4.17,10.56s-1.44-.29-1.46-.26c0,4.15-.12,8.53,0,12.79,0,0,5.93.26,8,.27,0,3.25.05,6.56,0,9.75-.07,3.49,1.8,7.68,5.51,8.41a11.5,11.5,0,0,0,1.69-.31C24.54,39.45,29.47,38,36.16,36.25Z"/><path class="cls-1" d="M61.16,17.4h10.2v3H67.91v18h-3.3v-18H61.16Z"/><path class="cls-1" d="M76.14,26.26h4.54v3H76.14V35.4h5.7v3h-9v-21h9v3h-5.7Z"/><path class="cls-1" d="M93.46,30.57v2.8q0,5.27-4.92,5.27t-4.92-5.27V22.44q0-5.27,4.92-5.27t4.92,5.27v2.05H90.34V22.23q0-2.07-1.71-2.07t-1.71,2.07V33.57q0,2.05,1.71,2.05t1.71-2.05v-3Z"/><path class="cls-1" d="M106.13,38.4H102.8l-.57-3.81h-4l-.57,3.81h-3l3.36-21h4.83ZM98.6,31.74h3.19l-1.6-10.62Z"/><path class="cls-1" d="M114.64,32.31l2.26-14.91h4.58v21h-3.12V23.35L116.09,38.4H113l-2.46-14.85V38.4h-2.89v-21h4.59Z"/><path class="cls-1" d="M127.16,26.26h4.54v3h-4.54V35.4h5.7v3h-9v-21h9v3h-5.7Z"/><path class="cls-1" d="M139.35,17.16q4.86,0,4.86,5.27v1.11h-3.12V22.23q0-2.07-1.66-2.07t-1.65,2.07a4.39,4.39,0,0,0,1,2.72,11.34,11.34,0,0,0,1,1.11l.88.82.31.28a16.42,16.42,0,0,1,1.17,1.17,8.88,8.88,0,0,1,1,1.36,6.84,6.84,0,0,1,1,3.66q0,5.27-4.92,5.27t-4.92-5.27v-2h3.12v2.24q0,2.05,1.71,2.05t1.7-2.05a4.37,4.37,0,0,0-1-2.71,12.45,12.45,0,0,0-1-1.13l-1.19-1.1q-.73-.67-1.19-1.17a9.86,9.86,0,0,1-1-1.35,6.92,6.92,0,0,1-1-3.68Q134.49,17.16,139.35,17.16Z"/><path class="cls-1" d="M150.6,26.41h6v3h-6Z"/><path class="cls-1" d="M168.34,17.4q4.92,0,4.92,5.2v2.72q0,5.19-4.92,5.19h-1.57v7.9h-3.29v-21Zm-1.57,3v7.12h1.57q1.61,0,1.61-2V22.38q0-2-1.61-2Z"/><path class="cls-1" d="M178.08,38.4h-3.29v-21h3.29v9h3.75v-9h3.37v21h-3.37v-9h-3.75Z"/><path class="cls-1" d="M197.58,38.4h-3.33l-.57-3.81h-4l-.57,3.81h-3l3.35-21h4.83Zm-10.14-22,2.8-3.52h3.15l2.78,3.52h-3l-1.41-1.74-1.38,1.74ZM190,31.74h3.19l-1.6-10.62Zm6.33-21.28L198.54,14h-2.49l-3.24-3.52Z"/><path class="cls-1" d="M202,23.2V38.4h-3v-21h4.14L206.6,30V17.4h2.94v21h-3.4Z"/><path class="cls-1" d="M223.53,32.31l2.26-14.91h4.58v21h-3.12V23.35L225,38.4h-3.12L219.4,23.55V38.4h-2.89v-21h4.59Z"/><path class="cls-1" d="M236.06,26.26h4.54v3h-4.54V35.4h5.7v3h-9v-21h9v3h-5.7Zm-3.21-9.87,2.8-3.52h3.15l2.78,3.52h-3l-1.41-1.74-1.38,1.74Zm8.61-5.93L243.63,14h-2.49l-3.24-3.52Z"/><path class="cls-1" d="M250.78,32.31,253,17.4h4.58v21H254.5V23.35L252.23,38.4h-3.12l-2.46-14.85V38.4h-2.89v-21h4.59Z"/><path class="cls-1" d="M267.95,38.4h-3.3v-21h3.3v9h3.75v-9h3.37v21H271.7v-9h-3.75Z"/><path class="cls-1" d="M280.06,26.26h4.54v3h-4.54V35.4h5.7v3h-9v-21h9v3h-5.7Zm-3.21-9.87,2.8-3.52h3.15l2.78,3.52h-3l-1.41-1.74-1.38,1.74ZM282.8,40V43h-3.06V40Z"/><path class="cls-1" d="M291.55,17.4h10.2v3H298.3v18H295v-18h-3.46Z"/><path class="cls-1" d="M306.53,38.4h-3.3v-21h3.3v9h3.75v-9h3.37v21h-3.37v-9h-3.75Z"/><path class="cls-1" d="M315.31,22.44q0-5.27,5-5.27t5,5.27V33.37q0,5.27-5,5.27t-5-5.27Zm.63-6,2.78-3.52h3.16l2.78,3.52h-3l-1.41-1.74-1.38,1.74Zm2.67,17.18q0,2.08,1.71,2.08T322,33.57V22.23q0-2.07-1.71-2.07t-1.71,2.07Zm10.75-22.84-3.24,3.52h-2.34l2.17-3.52Z"/><path class="cls-1" d="M330.39,23.2V38.4h-3v-21h4.14L335,30V17.4h2.94v21h-3.4Z"/><path class="cls-1" d="M345.2,26.7h4.63v6.67q0,5.27-4.92,5.27T340,33.37V22.44q0-5.27,4.92-5.27t4.92,5.27v2.05h-3.12V22.23q0-2.07-1.71-2.07t-1.71,2.07V33.57q0,2.05,1.71,2.05t1.71-2.05V29.7H345.2Z"/><path class="cls-1" d="M355.69,17.4h10.2v3h-3.44v18h-3.29v-18h-3.46Z"/><path class="cls-1" d="M370.68,38.4h-3.29v-21h3.29v9h3.75v-9h3.37v21h-3.37v-9h-3.75Z"/><path class="cls-1" d="M379.45,22.44q0-5.27,5-5.27t5,5.27V33.37q0,5.27-5,5.27t-5-5.27Zm.63-6,2.78-3.52H386l2.78,3.52h-3l-1.41-1.74-1.38,1.74Zm2.67,17.18q0,2.08,1.71,2.08t1.71-2.08V22.23q0-2.07-1.71-2.07t-1.71,2.07Z"/><path class="cls-1" d="M394.54,23.2V38.4h-3v-21h4.15L399.1,30V17.4H402v21h-3.4Z"/><path class="cls-1" d="M409.35,26.7H414v6.67q0,5.27-4.92,5.27t-4.92-5.27V22.44q0-5.27,4.92-5.27T414,22.44v2.05h-3.12V22.23q0-2.07-1.71-2.07t-1.71,2.07V33.57q0,2.05,1.71,2.05t1.71-2.05V29.7h-1.51Z"/><path class="cls-1" d="M419.84,17.4H430v3h-3.44v18h-3.3v-18h-3.46Z"/><path class="cls-1" d="M431.53,17.4h3.3v21h-3.3Z"/><path class="cls-1" d="M440.17,23.2V38.4h-3v-21h4.14L444.73,30V17.4h2.94v21h-3.4Z"/><path class="cls-1" d="M454.41,22.44q0-5.27,5-5.27t5,5.27V33.37a6.17,6.17,0,0,1-.63,2.94q.18.44.94.44H465v2.94h-.46a2.87,2.87,0,0,1-2.84-1.44,6.93,6.93,0,0,1-2.31.38q-5,0-5-5.27Zm3.3,11.13q0,2.08,1.71,2.08t1.71-2.08V22.23q0-2.07-1.71-2.07t-1.71,2.07Z"/><path class="cls-1" d="M469.7,17.4V33.6q0,2.05,1.71,2.05t1.71-2.05V17.4h3.12v16q0,5.27-4.92,5.27t-4.92-5.27v-16Z"/><path class="cls-1" d="M489.17,38.4h-3.33l-.57-3.81h-4l-.57,3.81h-3l3.35-21h4.83Zm-6.91-21.84a1.63,1.63,0,0,1,0-.37,2.56,2.56,0,0,1,.25-1.16q.09-.22.21-.45l.51-.75.18-.4a2.82,2.82,0,0,0,.18-1q0-.44-.26-.44t-.26.44v1.17h-1.83v-1.1q0-2.29,2.12-2.29t2.13,2.29a3.92,3.92,0,0,1-.23,1.38l-.26.51a2.36,2.36,0,0,1-.28.41l-.06.09-.21.28-.22.32a1.74,1.74,0,0,0-.18.76,1.82,1.82,0,0,0,0,.32Zm-.62,15.18h3.19l-1.6-10.62Z"/><path class="cls-1" d="M493.64,23.2V38.4h-3v-21h4.14L498.19,30V17.4h2.94v21h-3.4Z"/><path class="cls-1" d="M508.14,17.4h3.3v18h5.43v3h-8.73Z"/><path class="cls-1" d="M521.47,31.45l-4.17-14h3.46L523.27,27l2.52-9.58h3.15l-4.17,14v7h-3.3Zm5.7-18.57-3.24,3.52h-2.34l2.15-3.52Z"/><path class="cls-1" d="M539.87,17.4q4.89,0,4.89,4.83V23q0,3.24-2.14,4.23,2.46,1,2.46,4.5v1.71q0,5-5,5h-5.19v-21Zm-1.68,3V26h1.29q2,0,2-2.21V22.57q0-2.17-1.69-2.17Zm0,8.55V35.4h1.89q1.71,0,1.71-2.07V31.51q0-2.55-2.12-2.55Z"/><path class="cls-1" d="M550.35,26.26h4.54v3h-4.54V35.4h5.7v3h-9v-21h9v3h-5.7Zm-3.21-9.87,2.8-3.52h3.15l2.78,3.52h-3l-1.41-1.74-1.38,1.74ZM553.1,40V43H550V40Z"/><path class="cls-1" d="M561,23.2V38.4h-3v-21h4.15L565.59,30V17.4h2.95v21h-3.4Z"/><path class="cls-1" d="M574.19,38.4h-3.3v-21h3.3v9h3.75v-9h3.37v21h-3.37v-9h-3.75Z"/><path class="cls-1" d="M593.32,34.54l2.52-17.14h3l-3.24,21h-4.92l-3.24-21h3.33Z"/><path class="cls-1" d="M600.39,17.4h3.3v21h-3.3Z"/><path class="cls-1" d="M609.39,26.26h4.54v3h-4.54V35.4h5.7v3h-9v-21h9v3h-5.7Zm-3.21-9.87,2.8-3.52h3.15l2.78,3.52h-3l-1.41-1.74-1.38,1.74ZM612.13,40V43h-3.06V40Z"/><path class="cls-1" d="M620.07,23.2V38.4h-3v-21h4.15L624.62,30V17.4h2.95v21h-3.4Z"/></g></g></svg>