<svg xmlns="http://www.w3.org/2000/svg" viewBox="0 0 63.57 69.93"><defs><style>.cls-1{fill:#fff;}</style></defs><title>can_lam_sang</title><g id="Layer_2" data-name="Layer 2"><g id="Layer_1-2" data-name="Layer 1"><path class="cls-1" d="M45.85,14a14,14,0,1,1-14-14,14,14,0,0,1,14,14Zm0,0"/><path class="cls-1" d="M46,29.39h-.17l-.6,7.79c-.09,1.09-.88.24-2,.45l-4.47.91,1.1,3.25a2.44,2.44,0,0,1-.14,1.89L34,55a2.64,2.64,0,0,1-2.13,1.12A2.25,2.25,0,0,1,29.64,55L23.84,43.68a2.44,2.44,0,0,1-.14-1.89l1.09-3.24-4.47-.91c-1.07-.22-1.87.64-1.95-.45l-.61-7.8H17.6C7.88,29.39,0,35.52,0,45.24V65a4.93,4.93,0,0,0,4.93,4.93H58.64A4.93,4.93,0,0,0,63.57,65V45.18c0-9.69-7.87-15.79-17.56-15.79Zm6.29,32H48.6V65a2.43,2.43,0,1,1-4.86,0V61.39H40.09a2.43,2.43,0,1,1,0-4.86h3.65V52.82a2.43,2.43,0,1,1,4.86,0v3.71h3.7a2.43,2.43,0,1,1,0,4.86Zm0,0"/><path class="cls-1" d="M34.55,38.19,39,37.1l.36-5.58H24.26l.35,5.58,4.46,1.09a2.09,2.09,0,0,1,1.35,1.18c.29.61.35-.42.17.24l-1.37,4.9,2.6,6.15,2.6-6.15L33,39.61c-.18-.66-.13.37.17-.24a2.08,2.08,0,0,1,1.35-1.18Zm0,0"/></g></g></svg>