<svg xmlns="http://www.w3.org/2000/svg" viewBox="0 0 14.53 15"><defs><style>.cls-1{fill:#2a7044;}</style></defs><title>canhan</title><g id="Layer_2" data-name="Layer 2"><g id="Layer_1-2" data-name="Layer 1"><path class="cls-1" d="M11.66,5.06l.66-.93a.31.31,0,0,1,.45-.06L14.41,5.4a.31.31,0,0,1,.06.42l-.66.93a.31.31,0,0,1-.45.06L11.72,5.48A.31.31,0,0,1,11.66,5.06Zm-.17.24"/><path class="cls-1" d="M7,14.21l1.55-.73a.15.15,0,0,0,0-.25L7.3,12.15a.15.15,0,0,0-.24.1l-.24,1.8A.15.15,0,0,0,7,14.21Zm-.25.12"/><path class="cls-1" d="M7.6,10.8l3.15-4.46a.29.29,0,0,1,.42-.06l1.67,1.36a.29.29,0,0,1,.05.39L9.75,12.5a.29.29,0,0,1-.42.06L7.66,11.2A.29.29,0,0,1,7.6,10.8ZM7.45,11"/><ellipse class="cls-1" cx="5.5" cy="3.19" rx="3.23" ry="3.19"/><path class="cls-1" d="M6.37,11.11l.35-.49L9.1,7.25a4.14,4.14,0,0,0-2.23-.66H4.13A4.11,4.11,0,0,0,0,10.67V14l.23.07A19,19,0,0,0,5.86,15h0l.5-3.79Z"/></g></g></svg>