<svg xmlns="http://www.w3.org/2000/svg" viewBox="0 0 13.66 14.18"><defs><style>.cls-1{fill:#fff;}</style></defs><title>cap_phat_y_lenh</title><g id="Layer_2" data-name="Layer 2"><g id="Layer_1-2" data-name="Layer 1"><path class="cls-1" d="M9.52,11a.49.49,0,0,0-.26.52c0,.18,0,.37,0,.55,0,.81-.33,1.14-1.14,1.15-2.11,0-4.22,0-6.33,0a.94.94,0,0,1-1-.93L9.27,5c0,.38,0,.76,0,1.22.47-.55,1.08-1,.8-1.75a3.47,3.47,0,0,0-.62-1.19C8.56,2.31,7.66,1.4,6.71.55A2.08,2.08,0,0,0,5.5,0C4,0,2.47,0,1,0A.87.87,0,0,0,0,.76.91.91,0,0,1,0,.93V12.37a.91.91,0,0,1,0,.16c0,.19,0,.37,0,.56a1,1,0,0,0,1,1.09h.51l4.67,0H8.9a1.16,1.16,0,0,0,1.3-1.25c0-.16,0-.31,0-.47,0-.65,0-1.3-.05-2A4.51,4.51,0,0,1,9.52,11ZM2.77,3.58h1V2.45a.62.62,0,0,1,.59-.65A.62.62,0,0,1,5,2.45V3.58H6a.62.62,0,0,1,.59.65A.62.62,0,0,1,6,4.87H5V6a.62.62,0,0,1-.59.65A.62.62,0,0,1,3.8,6V4.87h-1a.62.62,0,0,1-.59-.65A.62.62,0,0,1,2.77,3.58Z"/><path class="cls-1" d="M13.08,4.73a1.49,1.49,0,0,0-1-.5.27.27,0,0,0-.17.08L7.44,9.07a.26.26,0,0,0-.06.1l-.57,2a.26.26,0,0,0,.34.32l1.91-.71a.26.26,0,0,0,.1-.07l4.44-4.77a.26.26,0,0,0,.07-.18A1.49,1.49,0,0,0,13.08,4.73Zm-5.1,6a2.25,2.25,0,0,0-.24-.26,2.14,2.14,0,0,0-.27-.22l.17-.59a1.89,1.89,0,0,1,.91.85Z"/></g></g></svg>