<svg xmlns="http://www.w3.org/2000/svg" viewBox="0 0 15 15"><defs><style>.cls-1{fill:#2a7044;}</style></defs><title>dangxuat</title><g id="Layer_2" data-name="Layer 2"><g id="Layer_1-2" data-name="Layer 1"><path class="cls-1" d="M7.5,0a7.5,7.5,0,1,0,6.22,11.69.92.92,0,0,0-1.52-1,5.67,5.67,0,1,1,0-6.32.92.92,0,0,0,1.52-1A7.5,7.5,0,0,0,7.5,0Zm0,0"/><path class="cls-1" d="M5.51,7.41V7.32l0-.08h0l0-.08h0l0-.07h0l0-.06V7l0-.06v0l.06-.07L8.53,4.1a.92.92,0,1,1,1.3,1.3L8.64,6.58h5.45A.92.92,0,0,1,15,7.5h0a.92.92,0,0,1-.92.92H8.64L9.82,9.6a.92.92,0,0,1-1.3,1.3L5.77,8.15l-.06-.07v0l0-.06V8l0-.06h0l0-.07h0l0-.08h0l0-.08V7.59s0-.06,0-.09S5.51,7.44,5.51,7.41Z"/></g></g></svg>