<svg xmlns="http://www.w3.org/2000/svg" viewBox="0 0 23.17 25"><defs><style>.cls-1{fill:#375f99;}</style></defs><title>danh_muc</title><g id="Layer_2" data-name="Layer 2"><g id="Layer_1-2" data-name="Layer 1"><path class="cls-1" d="M20.59,0h-18A2.42,2.42,0,0,0,0,2.22V22.78A2.42,2.42,0,0,0,2.58,25h18a2.42,2.42,0,0,0,2.58-2.22V2.22A2.42,2.42,0,0,0,20.59,0ZM4.08,20.54a1.43,1.43,0,1,1,1.43-1.43A1.43,1.43,0,0,1,4.08,20.54Zm0-6.61A1.43,1.43,0,1,1,5.51,12.5,1.43,1.43,0,0,1,4.08,13.93Zm0-6.61A1.43,1.43,0,1,1,5.51,5.89,1.43,1.43,0,0,1,4.08,7.32Zm15,13.22H7.92a1.43,1.43,0,0,1,0-2.86H19.09a1.43,1.43,0,1,1,0,2.86Zm0-6.61H7.92a1.43,1.43,0,0,1,0-2.86H19.09a1.43,1.43,0,1,1,0,2.86Zm0-6.61H7.92a1.43,1.43,0,0,1,0-2.86H19.09a1.43,1.43,0,1,1,0,2.86Z"/></g></g></svg>