<svg xmlns="http://www.w3.org/2000/svg" viewBox="0 0 10.55 15"><defs><style>.cls-1{fill:#2a7044;}</style></defs><title>doimak</title><g id="Layer_2" data-name="Layer 2"><g id="Layer_1-2" data-name="Layer 1"><path class="cls-1" d="M9.49,6.71h-7v-3A2.66,2.66,0,0,1,5.27,1.18,2.66,2.66,0,0,1,8,3.75V4.93a.63.63,0,0,0,1.27,0V3.75A3.89,3.89,0,0,0,5.27,0a3.89,3.89,0,0,0-4,3.75v3H1.05A1,1,0,0,0,0,7.7V14a1,1,0,0,0,1.05,1H9.49a1,1,0,0,0,1.05-1V7.7a1,1,0,0,0-1.05-1ZM4,10.07A1.23,1.23,0,0,1,5.27,8.88a1.23,1.23,0,0,1,1.27,1.18,1.17,1.17,0,0,1-.63,1v1.74H4.64V11.09a1.17,1.17,0,0,1-.63-1Zm0,0"/></g></g></svg>