<svg xmlns="http://www.w3.org/2000/svg" viewBox="0 0 10.88 14.18"><defs><style>.cls-1{fill:none;}.cls-2{fill:#fff;}</style></defs><title>đơn</title><g id="Layer_2" data-name="Layer 2"><g id="Layer_1-2" data-name="Layer 1"><path class="cls-1" d="M2.47,1H1V13.17H9.87V1H8.41"/><path class="cls-1" d="M5.2,6.39v1h.49v-1a.5.5,0,0,1,.5-.5h1V5.4h-1a.5.5,0,0,1-.5-.5v-1H5.2v1a.5.5,0,0,1-.5.5h-1v.49h1A.5.5,0,0,1,5.2,6.39Z"/><path class="cls-2" d="M3.2,6.27h1v1a.5.5,0,0,0,.5.5h1.5a.5.5,0,0,0,.5-.5v-1h1a.5.5,0,0,0,.5-.5V4.27a.5.5,0,0,0-.5-.5h-1v-1a.5.5,0,0,0-.5-.5H4.69a.5.5,0,0,0-.5.5v1h-1a.5.5,0,0,0-.5.5v1.5A.5.5,0,0,0,3.2,6.27Zm.5-1.5h1a.5.5,0,0,0,.5-.5v-1h.49v1a.5.5,0,0,0,.5.5h1v.49h-1a.5.5,0,0,0-.5.5v1H5.2v-1a.5.5,0,0,0-.5-.5h-1Z"/><path class="cls-2" d="M3,10.57H7.91a.5.5,0,0,0,0-1H3a.5.5,0,0,0,0,1Z"/><path class="cls-2" d="M2.56,11.21a.5.5,0,0,0,0,1H8.32a.5.5,0,0,0,0-1Z"/><path class="cls-2" d="M.5,0A.5.5,0,0,0,0,.5V13.68a.5.5,0,0,0,.5.5h9.87a.5.5,0,0,0,.5-.5V.5a.5.5,0,0,0-.5-.5ZM9.87,13.17H1V1H9.87Z"/></g></g></svg>