<svg xmlns="http://www.w3.org/2000/svg" viewBox="0 0 26.6 27.52"><defs><style>.cls-1{fill:#375f99;}</style></defs><title>ds_chuc_nang_icon</title><g id="Layer_2" data-name="Layer 2"><g id="Layer_1-2" data-name="Layer 1"><circle class="cls-1" cx="20.68" cy="21.31" r="1.55"/><path class="cls-1" d="M20.68,15.39a5.93,5.93,0,1,0,5.93,5.93A5.93,5.93,0,0,0,20.68,15.39ZM25,22.18l-1.17.08a3.3,3.3,0,0,1-.26.63l.78.88L23.13,25l-.88-.78a3.28,3.28,0,0,1-.63.26l-.08,1.17H19.81l-.08-1.17a3.28,3.28,0,0,1-.63-.26l-.88.78L17,23.77l.78-.88a3.3,3.3,0,0,1-.26-.63l-1.17-.08V20.45l1.17-.08a3.31,3.31,0,0,1,.26-.63L17,18.86l1.22-1.22.88.78a3.27,3.27,0,0,1,.63-.26L19.81,17h1.73l.08,1.17a3.28,3.28,0,0,1,.63.26l.88-.78,1.22,1.22-.78.88a3.3,3.3,0,0,1,.26.63l1.17.08Z"/><path class="cls-1" d="M13.3,22.24H9.91a1.13,1.13,0,0,1-1.12-1.12V21A1.13,1.13,0,0,1,9.91,19.9h3.42a7.07,7.07,0,0,1,.78-2.17H9.91a1.13,1.13,0,0,1-1.12-1.12v-.09a1.13,1.13,0,0,1,1.12-1.12h6.31a7.08,7.08,0,0,1,6.13-1V3.7A3.71,3.71,0,0,0,18.65,0H3.7A3.71,3.71,0,0,0,0,3.7V23.82a3.71,3.71,0,0,0,3.7,3.7H17A7.12,7.12,0,0,1,13.3,22.24ZM8.79,6.13A1.13,1.13,0,0,1,9.91,5h9.34a1.13,1.13,0,0,1,1.12,1.12v.09a1.13,1.13,0,0,1-1.12,1.12H9.91A1.13,1.13,0,0,1,8.79,6.22Zm0,5.19A1.13,1.13,0,0,1,9.91,10.2h9.34a1.13,1.13,0,0,1,1.12,1.12v.09a1.13,1.13,0,0,1-1.12,1.12H9.91a1.13,1.13,0,0,1-1.12-1.12ZM7,20.48,4.52,22.93a.68.68,0,0,1-1,0L2.31,21.69a.68.68,0,1,1,1-1L4,21.5l2-2a.68.68,0,1,1,1,1Zm0-5.56L4.52,17.37a.68.68,0,0,1-1,0L2.31,16.12a.68.68,0,1,1,1-1l.77.77,2-2a.68.68,0,0,1,1,1ZM7,9.74,4.52,12.2a.68.68,0,0,1-1,0L2.31,11a.68.68,0,1,1,1-1l.77.77,2-2a.68.68,0,0,1,1,1ZM7,4.18,4.52,6.64a.68.68,0,0,1-1,0L2.31,5.39a.68.68,0,1,1,1-1L4,5.2l2-2a.68.68,0,0,1,1,1Z"/></g></g></svg>