<svg xmlns="http://www.w3.org/2000/svg" viewBox="0 0 13.12 14.17"><defs><style>.cls-1{fill:#636464;}</style></defs><title>ds_nhom_quyen</title><g id="Layer_2" data-name="Layer 2"><g id="Layer_1-2" data-name="Layer 1"><path class="cls-1" d="M2.11,2.44A1.22,1.22,0,1,0,.89,1.22,1.22,1.22,0,0,0,2.11,2.44Zm0,0"/><path class="cls-1" d="M11,2.44A1.22,1.22,0,1,0,9.8,1.22,1.22,1.22,0,0,0,11,2.44Zm0,0"/><path class="cls-1" d="M6.55,4.46A1.22,1.22,0,1,0,5.33,3.24,1.22,1.22,0,0,0,6.55,4.46Zm0,0"/><path class="cls-1" d="M5.15,8.88v2.58a.33.33,0,0,0,.33.33H7.62A.33.33,0,0,0,8,11.46V8.88l.65-1a.33.33,0,0,0,.05-.18V5.8a1.21,1.21,0,0,0-.83-1.15h0l-.31-.1a.33.33,0,0,0-.36.11l-.6.77-.6-.77a.33.33,0,0,0-.36-.11l-.31.1h0A1.21,1.21,0,0,0,4.44,5.8V7.71a.33.33,0,0,0,.05.18Zm0,0"/><path class="cls-1" d="M.7,6.86V9.44A.33.33,0,0,0,1,9.77H3.18a.33.33,0,0,0,.33-.33V6.86l.65-1a.33.33,0,0,0,.05-.18V3.77a1.21,1.21,0,0,0-.83-1.15h0l-.31-.1a.33.33,0,0,0-.34.09l-.62.68-.62-.68a.33.33,0,0,0-.34-.09l-.31.1h0A1.21,1.21,0,0,0,0,3.77V5.69a.33.33,0,0,0,.05.18Zm0,0"/><path class="cls-1" d="M12.3,2.63h0L12,2.53a.33.33,0,0,0-.35.11L11,3.38l-.61-.74a.33.33,0,0,0-.35-.11l-.31.1h0a1.21,1.21,0,0,0-.83,1.15V5.69A.33.33,0,0,0,9,5.87l.65,1V9.44a.33.33,0,0,0,.33.33h2.14a.33.33,0,0,0,.33-.33V6.86l.65-1a.33.33,0,0,0,.05-.18V3.77a1.21,1.21,0,0,0-.83-1.15Zm0,0"/><path class="cls-1" d="M4.05,12.15a2.23,2.23,0,0,1-.32.16,3.76,3.76,0,0,1-.86.22L4.1,13a1.21,1.21,0,0,1,.62-.61Zm0,0"/><path class="cls-1" d="M4.18,11.32c0,.47-.93.84-2.08.84S0,11.79,0,11.32s.93-.84,2.08-.84,2.08.38,2.08.84Zm0,0"/><path class="cls-1" d="M9.09,12.17l-.69.28a1.17,1.17,0,0,1,.6.62l1.29-.53a3.82,3.82,0,0,1-.91-.23l-.3-.14Zm0,0"/><path class="cls-1" d="M8.63,13.33c0,.47-.93.84-2.08.84s-2.08-.38-2.08-.84.93-.84,2.08-.84,2.08.38,2.08.84Zm0,0"/><path class="cls-1" d="M13.1,11.32c0,.47-.93.84-2.08.84s-2.08-.38-2.08-.84.93-.84,2.08-.84,2.08.38,2.08.84Zm0,0"/></g></g></svg>