<svg xmlns="http://www.w3.org/2000/svg" viewBox="0 0 12.54 15.17"><defs><style>.cls-1{fill:none;stroke:#636464;stroke-miterlimit:10;}.cls-2{fill:#636464;}</style></defs><title>ds_ng_dung</title><g id="Layer_2" data-name="Layer 2"><g id="Layer_1-2" data-name="Layer 1"><path class="cls-1" d="M11.08.5H1.46a1,1,0,0,0-1,1V13.71a1,1,0,0,0,1,1h9.62a1,1,0,0,0,1-1V1.46A1,1,0,0,0,11.08.5Z"/><path class="cls-2" d="M7,3.2H8.49a.6.6,0,0,1,0,1.21H7A.6.6,0,1,1,7,3.2Zm-3.5-.6A1.29,1.29,0,0,1,4.7,4,1.29,1.29,0,0,1,3.52,5.35,1.29,1.29,0,0,1,2.35,4,1.29,1.29,0,0,1,3.52,2.6Zm1.7,9.82H1.83a.22.22,0,0,1-.22-.25A1.89,1.89,0,0,1,2.19,11a1.79,1.79,0,0,0,2.66,0,1.89,1.89,0,0,1,.59,1.13A.22.22,0,0,1,5.22,12.41ZM2.35,9.53A1.29,1.29,0,0,1,3.52,8.15,1.29,1.29,0,0,1,4.7,9.53,1.29,1.29,0,0,1,3.52,10.9,1.29,1.29,0,0,1,2.35,9.53ZM5.22,6.86H1.83a.22.22,0,0,1-.22-.25,1.89,1.89,0,0,1,.59-1.13,1.79,1.79,0,0,0,2.66,0,1.89,1.89,0,0,1,.59,1.13A.22.22,0,0,1,5.22,6.86Zm5.1,4.86H7a.6.6,0,1,1,0-1.21h3.29a.6.6,0,1,1,0,1.21ZM6.42,9.1a.6.6,0,0,1,.6-.6H8.49a.6.6,0,0,1,0,1.21H7A.6.6,0,0,1,6.42,9.1Zm4.5-3.27a.6.6,0,0,1-.6.6H7a.6.6,0,0,1-.6-.6h0a.6.6,0,0,1,.6-.6h3.29a.6.6,0,0,1,.6.6Z"/></g></g></svg>