<svg xmlns="http://www.w3.org/2000/svg" viewBox="0 0 24.09 25"><defs><style>.cls-1{fill:#375f99;}</style></defs><title>du_tru_thuoc</title><g id="Layer_2" data-name="Layer 2"><g id="Layer_1-2" data-name="Layer 1"><path class="cls-1" d="M16.79,19.45a.86.86,0,0,0-.45.93c0,.32,0,.65,0,1,0,1.43-.59,2-2,2-3.72,0-7.45,0-11.17.05a1.65,1.65,0,0,1-1.7-1.64l14.88-13c0,.67,0,1.34,0,2.15.83-1,1.91-1.7,1.41-3.08a6.12,6.12,0,0,0-1.1-2.09C15.11,4.07,13.51,2.47,11.83,1A3.67,3.67,0,0,0,9.7,0C7,0,4.35,0,1.68.07A1.54,1.54,0,0,0,0,1.34a1.63,1.63,0,0,1,0,.3V21.8a1.62,1.62,0,0,1,0,.28c0,.33,0,.66,0,1A1.7,1.7,0,0,0,1.83,25c.3,0,.6,0,.9,0L11,25c1.57,0,3.15,0,4.72,0A2.05,2.05,0,0,0,18,22.75c0-.28,0-.55,0-.83,0-1.15-.06-2.29-.09-3.5A8,8,0,0,1,16.79,19.45ZM11.89,4.34a3.56,3.56,0,0,1-.29,5l-4,3.56A3.56,3.56,0,0,1,2.87,7.61l4-3.56A3.57,3.57,0,0,1,11.89,4.34Z"/><path class="cls-1" d="M3.51,11.8A2.32,2.32,0,0,0,6.79,12l1.73-1.54L7,8.71c-.85-1,0,0-1.54-1.73L3.7,8.53A2.32,2.32,0,0,0,3.51,11.8Z"/><path class="cls-1" d="M24.09,10.1a2.62,2.62,0,0,0-1-1.77,2.63,2.63,0,0,0-1.84-.88.47.47,0,0,0-.3.15L13.12,16a.45.45,0,0,0-.1.18l-1,3.45a.46.46,0,0,0,.6.56L16,18.93a.45.45,0,0,0,.18-.12L24,10.41a.46.46,0,0,0,.12-.31Zm-10,8.8a4,4,0,0,0-.42-.45,3.8,3.8,0,0,0-.48-.39l.3-1a3.33,3.33,0,0,1,1.61,1.5Zm0,0"/></g></g></svg>