<svg xmlns="http://www.w3.org/2000/svg" viewBox="0 0 25.11 24.94"><defs><style>.cls-1{fill:#375f99;}</style></defs><title>duoc_vat_tu_icon</title><g id="Layer_2" data-name="Layer 2"><g id="Layer_1-2" data-name="Layer 1"><path class="cls-1" d="M13,12.85a7.14,7.14,0,0,0-.87,9L21.94,12A7.08,7.08,0,0,0,13,12.85Z"/><path class="cls-1" d="M23.89,13.88,14,23.77a7.24,7.24,0,0,0,9-.89A7.15,7.15,0,0,0,23.89,13.88Z"/><path class="cls-1" d="M19.06,2.61a3.55,3.55,0,0,0-5,0L10.21,6.35a11,11,0,0,1,4.35,3.85,7.68,7.68,0,0,1,2.37-.51L19,7.63A3.55,3.55,0,0,0,19.06,2.61Z"/><path class="cls-1" d="M10.21,6.35,14,2.58a3.55,3.55,0,1,1,5,5.05l-2.1,2.06c.17,0,.32,0,.49,0a7.73,7.73,0,0,1,1.6.17l1.09-1.08A5.1,5.1,0,1,0,13,1.47L7.37,7l1.21.4a9,9,0,0,1,4.6,3.56,7.67,7.67,0,0,1,1.39-.72A11,11,0,0,0,10.21,6.35Z"/><path class="cls-1" d="M12.08,11.81a9.2,9.2,0,0,0-2.7-2.57c0,.08-4.95,5-4.95,5a.46.46,0,0,1-.65-.66L8.59,8.83a8.19,8.19,0,0,0-2-.64l-.12,0-5,4.92A4.88,4.88,0,0,0,8.3,20l1.53-1.51a7.63,7.63,0,0,1-.12-1.18A7.67,7.67,0,0,1,12.08,11.81Z"/></g></g></svg>