<svg xmlns="http://www.w3.org/2000/svg" viewBox="0 0 12.55 15"><defs><style>.cls-1{fill:#fff;}</style></defs><title>excel</title><g id="Layer_2" data-name="Layer 2"><g id="Layer_1-2" data-name="Layer 1"><path class="cls-1" d="M0,1.67V13.33L8.65,15V0Zm5.47,8.76-1-1.9a1.55,1.55,0,0,1-.12-.39h0a2.8,2.8,0,0,1-.14.41l-1,1.89H1.62L3.48,7.51,1.78,4.59h1.6l.83,1.75a3.24,3.24,0,0,1,.18.49h0c0-.11.1-.28.18-.51l.93-1.74H7L5.23,7.48,7,10.43Zm0,0"/><path class="cls-1" d="M11.83,1.7H8.94V14h2.88a.72.72,0,0,0,.72-.72V2.42A.72.72,0,0,0,11.83,1.7Zm0,10.82H9.66V11.8h2.16Zm0-2.16H9.66V9.63h2.16Zm0-2.16H9.66V7.47h2.16Zm0-2.16H9.66V5.31h2.16Zm0-2.16H9.66V3.14h2.16Z"/></g></g></svg>