<svg xmlns="http://www.w3.org/2000/svg" viewBox="0 0 35.68 26.75"><defs><style>.cls-1{fill:#fff;}.cls-2{fill:#375f99;}</style></defs><title>home_2</title><g id="Layer_2" data-name="Layer 2"><g id="Layer_1-2" data-name="Layer 1"><rect class="cls-1" x="34.87" y="4.1" width="0.81" height="22.66"/><path class="cls-2" d="M12.35,6.27,3.54,14.94a.25.25,0,0,1,0,.05.33.33,0,0,0,0,.05v8.78a1.24,1.24,0,0,0,.29.82.87.87,0,0,0,.69.35h5.88V18h3.92v7h5.88a.87.87,0,0,0,.69-.35,1.24,1.24,0,0,0,.29-.82V15a.3.3,0,0,0,0-.11Zm0,0"/><path class="cls-2" d="M17.25,4.21,13.51.48a1.66,1.66,0,0,0-2.33,0l-11,11a.57.57,0,0,0-.17.39.68.68,0,0,0,.11.43l.95,1.35a.5.5,0,0,0,.32.2.51.51,0,0,0,.37-.13L12.35,3.13,23,13.68a.42.42,0,0,0,.32.13h0a.5.5,0,0,0,.32-.2l1-1.35a.67.67,0,0,0,.11-.43.57.57,0,0,0-.17-.39h0L21.17,8.1Zm7.28,7.23"/></g></g></svg>