<svg xmlns="http://www.w3.org/2000/svg" viewBox="0 0 14 15"><defs><style>.cls-1{fill:#fff;}</style></defs><title>icon_print</title><g id="Layer_2" data-name="Layer 2"><g id="Layer_1-2" data-name="Layer 1"><path class="cls-1" d="M3.5,12v3h7V10h-7Zm.87-1H9.62v1H4.38Zm0,2H9.62v1H4.38Z"/><polygon class="cls-1" points="10.5 3 10.5 0 3.5 0 3.5 3 3.5 5 10.5 5 10.5 3"/><path class="cls-1" d="M12.25,3h-.88V6H2.63V3H1.75A2,2,0,0,0,0,5v5a2,2,0,0,0,1.75,2h.88V9h8.75v3h.88A2,2,0,0,0,14,10V5A2,2,0,0,0,12.25,3Z"/></g></g></svg>