<svg xmlns="http://www.w3.org/2000/svg" viewBox="0 0 13 15"><defs><style>.cls-1{fill:#fff;}</style></defs><title>icon-delete-white</title><g id="Layer_2" data-name="Layer 2"><g id="Layer_1-2" data-name="Layer 1"><path class="cls-1" d="M.52,3.78s.45.37.45.59v9.49A1.31,1.31,0,0,0,2.41,15h8.19A1.31,1.31,0,0,0,12,13.86V4.37c0-.22.45-.59.45-.59V2.63H.52ZM8.85,5.1H9.92v7.33H8.85ZM6,5.1H7.06v7.33H6Zm-2.58,0H4.48v7.33H3.41Zm0,0"/><path class="cls-1" d="M13,1.33H9.69A1.92,1.92,0,0,0,7.74,0H5.27a1.91,1.91,0,0,0-2,1.33H0V2H13Zm-8.57,0A.93.93,0,0,1,5.26.87H7.74a.93.93,0,0,1,.84.45Zm0,0"/></g></g></svg>