<svg xmlns="http://www.w3.org/2000/svg" viewBox="0 0 13.22 16.31"><defs><style>.cls-1{fill:#2a7044;}</style></defs><title>icon_baocao</title><g id="Layer_2" data-name="Layer 2"><g id="Layer_1-2" data-name="Layer 1"><path class="cls-1" d="M3.06,5.9H8.39a.65.65,0,0,0,.67-.64v-.8a.65.65,0,0,0-.67-.64H3.06a.65.65,0,0,0-.66.64v.8A.65.65,0,0,0,3.06,5.9Z"/><path class="cls-1" d="M9.05,11.2v-.81a.65.65,0,0,0-.67-.64H3.06a.65.65,0,0,0-.66.64v.81a.65.65,0,0,0,.66.64H8.39A.65.65,0,0,0,9.05,11.2Z"/><path class="cls-1" d="M3.06,8.87H8.39a.65.65,0,0,0,.67-.64V7.43a.65.65,0,0,0-.67-.64H3.06a.65.65,0,0,0-.66.64v.81A.65.65,0,0,0,3.06,8.87Z"/><path class="cls-1" d="M10.16,14.36h0a.88.88,0,0,0,.87-.49.76.76,0,0,0,.07-.31q0-2.68,0-5.37V7h0V5.87q0-1.35,0-2.71c0-.05,0-.11,0-.16h0q0-1.06,0-2.13A.9.9,0,0,0,11,.5a.84.84,0,0,0-.85-.5H3a.59.59,0,0,0-.43.18L1.47,1.27l-.2.2L.18,2.56A.58.58,0,0,0,0,3H0v.16Q0,4.51,0,5.87V7H0V8.19q0,2.68,0,5.37a.76.76,0,0,0,.07.31.88.88,0,0,0,.87.49h9.22Zm-8.9-1.27q0-2.93,0-5.86h0V3.63H2.8a.81.81,0,0,0,.59-.24.91.91,0,0,0,.25-.64c0-.37,0-.74,0-1.1q0-.19,0-.38h6l.2.2V7.24h0q0,2.93,0,5.86H1.27Z"/><path class="cls-1" d="M13.22,6.91h0c0-.53,0-1,0-1.35,0-.11,0-.22,0-.33s0-.23,0-.34q0-.46,0-.92t0-1.18A.77.77,0,0,0,12.55,2a3.18,3.18,0,0,0-.52,0h-.14a.34.34,0,0,0-.32.3c0,.18,0,.36,0,.55V3.2H12V5.58h0V7.09a4.72,4.72,0,0,1,1.24.37h0A4.71,4.71,0,0,0,12,7.09V9.18Q12,12.1,12,15H3.37s0-.05,0-.08a.35.35,0,0,0-.3-.32h-1v.42c0,.18,0,.35,0,.51a.52.52,0,0,0,.05.2.79.79,0,0,0,.48.44h0l.16,0,.16,0h9.28a.88.88,0,0,0,.86-.49.76.76,0,0,0,.07-.31q0-2.68,0-5.37V9h0V7.81Q13.22,7.36,13.22,6.91Z"/></g></g></svg>