<svg xmlns="http://www.w3.org/2000/svg" viewBox="0 0 15 16.31"><defs><style>.cls-1{fill:#2a7044;}</style></defs><title>icon_danhsach</title><g id="Layer_2" data-name="Layer 2"><g id="Layer_1-2" data-name="Layer 1"><path class="cls-1" d="M8.39,3.82H3.06a.65.65,0,0,0-.66.64v.81a.65.65,0,0,0,.66.64H8.39a.65.65,0,0,0,.66-.64V4.46A.65.65,0,0,0,8.39,3.82Z"/><path class="cls-1" d="M11.22,8A3.78,3.78,0,1,0,15,11.79,3.78,3.78,0,0,0,11.22,8Zm-2.1,5.91A.11.11,0,0,1,9,13.79l.24-1.06.93.93Zm1.29-.5-.93-.93,2.36-2.36.93.93Zm3.07-3.07L13,10.8l-.93-.93.4-.4a.41.41,0,0,1,.58,0l.42.42A.32.32,0,0,1,13.48,10.34Z"/><path class="cls-1" d="M9.05,7.55V7.43a.65.65,0,0,0-.66-.64H3.06a.65.65,0,0,0-.66.64v.81a.65.65,0,0,0,.66.64h4.4A4.79,4.79,0,0,1,9.05,7.55Z"/><path class="cls-1" d="M6.92,9.75H3.06a.65.65,0,0,0-.66.64v.81a.65.65,0,0,0,.66.64h3.4s0,0,0-.05A4.73,4.73,0,0,1,6.92,9.75Z"/><path class="cls-1" d="M1.27,13.09q0-4.73,0-9.46H2.8a.81.81,0,0,0,.59-.24.91.91,0,0,0,.25-.64c0-.37,0-.74,0-1.1q0-.19,0-.38H9.83v6A4.74,4.74,0,0,1,11.1,7V5.87q0-2.5,0-5A.9.9,0,0,0,11,.5a.84.84,0,0,0-.85-.5H3a.58.58,0,0,0-.44.19L.18,2.56A.58.58,0,0,0,0,3q0,.74,0,1.48,0,.41,0,.81H0v2.9q0,2.68,0,5.37a.76.76,0,0,0,.07.31.88.88,0,0,0,.87.49H7.22a4.73,4.73,0,0,1-.57-1.27Z"/><path class="cls-1" d="M13.2,5.56c0-.11,0-.22,0-.33s0-.23,0-.34q0-.46,0-.92t0-1.18A.77.77,0,0,0,12.55,2a3.22,3.22,0,0,0-.53,0H11.9a.34.34,0,0,0-.33.31c0,.18,0,.36,0,.55V3.2h.36V7.08a4.72,4.72,0,0,1,1.28.38C13.2,6.71,13.2,6,13.2,5.56Z"/><path class="cls-1" d="M7.75,15H3.37s0-.05,0-.08a.35.35,0,0,0-.3-.32h-1v.42c0,.18,0,.35,0,.51a.52.52,0,0,0,.05.2A.87.87,0,0,0,3,16.3H9.72A4.77,4.77,0,0,1,7.75,15Z"/></g></g></svg>