<svg xmlns="http://www.w3.org/2000/svg" viewBox="0 0 14 15"><defs><style>.cls-1{fill:#2a7044;}</style></defs><title>icon_reset2</title><g id="Layer_2" data-name="Layer 2"><g id="Layer_1-2" data-name="Layer 1"><path class="cls-1" d="M8.64,2.51l-2.07,2a.31.31,0,0,1-.43,0l0,0V3A4.74,4.74,0,0,0,1.63,7.67a4.64,4.64,0,0,0,2.56,4.12.78.78,0,0,1,.34,1.07.83.83,0,0,1-1.1.33A6.22,6.22,0,0,1,0,7.67,6.35,6.35,0,0,1,6.11,1.43V.12l0,0a.31.31,0,0,1,.43,0l2.07,2a.29.29,0,0,1,0,.42Zm0,0"/><path class="cls-1" d="M7.42,14.91l-2.07-2a.29.29,0,0,1,0-.42l2.07-2a.31.31,0,0,1,.43,0l0,0V12a4.74,4.74,0,0,0,4.48-4.66A4.64,4.64,0,0,0,9.81,3.21a.78.78,0,0,1-.34-1.07.83.83,0,0,1,1.11-.33A6.22,6.22,0,0,1,14,7.33a6.35,6.35,0,0,1-6.11,6.24v1.31l0,0a.32.32,0,0,1-.43,0Zm0,0"/></g></g></svg>