<svg xmlns="http://www.w3.org/2000/svg" viewBox="0 0 30.7 32.89"><defs><style>.cls-1{fill:#007f7c;}</style></defs><title>icon_reset3</title><g id="Layer_2" data-name="Layer 2"><g id="Layer_1-2" data-name="Layer 1"><path class="cls-1" d="M19,5.51,14.41,9.9a.69.69,0,0,1-.95,0l-.07-.07V6.6A10.39,10.39,0,0,0,3.58,16.81a10.18,10.18,0,0,0,5.6,9,1.71,1.71,0,0,1,.74,2.35,1.82,1.82,0,0,1-2.42.71A13.64,13.64,0,0,1,0,16.81,13.92,13.92,0,0,1,13.4,3.13V.25l.07-.06a.68.68,0,0,1,.95,0L19,4.59a.64.64,0,0,1,0,.92Zm0,0"/><path class="cls-1" d="M16.28,32.7l-4.53-4.39a.63.63,0,0,1,0-.92L16.28,23a.68.68,0,0,1,1,0l.06.06v3.24a10.39,10.39,0,0,0,9.82-10.21A10.17,10.17,0,0,0,21.5,7a1.72,1.72,0,0,1-.74-2.35A1.82,1.82,0,0,1,23.19,4,13.64,13.64,0,0,1,30.7,16.08a13.92,13.92,0,0,1-13.4,13.69v2.87l-.06.07a.69.69,0,0,1-1,0Zm0,0"/></g></g></svg>