<svg xmlns="http://www.w3.org/2000/svg" viewBox="0 0 12 15"><defs><style>.cls-1{fill:#fff;}</style></defs><title>icon_thongtinkhac</title><g id="Layer_2" data-name="Layer 2"><g id="Layer_1-2" data-name="Layer 1"><path class="cls-1" d="M9.17,0H1A1,1,0,0,0,0,.92V14.08A1,1,0,0,0,1,15H11a1,1,0,0,0,1-.92V2.84ZM9.4,1.38l1.24,1.25H9.4Zm1.76,12.7a.15.15,0,0,1-.16.15H1a.15.15,0,0,1-.16-.15V.92A.15.15,0,0,1,1,.77H8.56V3A.4.4,0,0,0,9,3.4h2.18Zm-8.85-10h7.1a.29.29,0,1,1,0,.58H2.31a.29.29,0,1,1,0-.58ZM9.72,6.34a.3.3,0,0,1-.31.29H2.31a.29.29,0,1,1,0-.58h7.1A.3.3,0,0,1,9.72,6.34Zm0,1.88a.3.3,0,0,1-.31.29H2.31a.29.29,0,1,1,0-.58h7.1A.3.3,0,0,1,9.72,8.22Zm0,1.91a.3.3,0,0,1-.31.29H2.31a.29.29,0,1,1,0-.58h7.1A.3.3,0,0,1,9.72,10.14Z"/></g></g></svg>