<svg xmlns="http://www.w3.org/2000/svg" viewBox="0 0 15.31 14.17"><defs><style>.cls-1{fill:#fff;}</style></defs><title>ket_thuc</title><g id="Layer_2" data-name="Layer 2"><g id="Layer_1-2" data-name="Layer 1"><path class="cls-1" d="M6.7,12.12H1.62a.81.81,0,1,1,0-1.61H6.25c0-.14,0-.28,0-.43A4.7,4.7,0,0,1,10.5,5.39V0H1.62A1.62,1.62,0,0,0,0,1.62v9.69a1.62,1.62,0,0,0,1.62,1.62H7.2A4.7,4.7,0,0,1,6.7,12.12Z"/><path class="cls-1" d="M12.12,5.52V1.62h-.81V5.39A4.68,4.68,0,0,1,12.12,5.52Z"/><path class="cls-1" d="M11.48,6.51a3.83,3.83,0,1,0,3.83,3.83A3.83,3.83,0,0,0,11.48,6.51ZM14,8.82l-2.74,3.73a.28.28,0,0,1-.22.11h0a.28.28,0,0,1-.23-.12L9,9.94a.28.28,0,0,1,.37-.4l1.71,1,2.56-2.11a.28.28,0,0,1,.4.38Z"/></g></g></svg>