<?xml version="1.0" encoding="utf-8"?>
<!-- Generator: Adobe Illustrator 21.0.2, SVG Export Plug-In . SVG Version: 6.00 Build 0)  -->
<svg version="1.1" id="Layer_1" xmlns="http://www.w3.org/2000/svg" xmlns:xlink="http://www.w3.org/1999/xlink" x="0px" y="0px"
	 viewBox="0 0 29.2 25" style="enable-background:new 0 0 29.2 25;" xml:space="preserve">
<style type="text/css">
	.st0{fill:#375F99;}
</style>
<g>
	<path class="st0" d="M26.2,58.8h-3.7v-0.5c0-0.5-0.4-0.8-1-0.8h-9.4c-0.5,0-1,0.4-1,0.8v0.5H7.4c-0.5,0-1,0.4-1,0.8v21.9
		c0,0.5,0.4,0.8,1,0.8h18.8c0.5,0,1-0.4,1-0.8V59.6C27.2,59.1,26.8,58.8,26.2,58.8L26.2,58.8z M13.1,59.1h7.5v1.1h-7.5V59.1z
		 M25.3,80.7H8.4V60.4h2.8V61c0,0.5,0.4,0.8,1,0.8h9.4c0.5,0,1-0.4,1-0.8v-0.5h2.8V80.7z M25.3,80.7"/>
	<path class="st0" d="M12.5,70.2h1.9v1.7c0,0.5,0.4,0.8,1,0.8h2.9c0.5,0,1-0.4,1-0.8v-1.7h1.9c0.5,0,1-0.4,1-0.8v-2.5
		c0-0.5-0.4-0.8-1-0.8h-1.9v-1.7c0-0.5-0.4-0.8-1-0.8h-2.9c-0.5,0-1,0.4-1,0.8v1.7h-1.9c-0.5,0-1,0.4-1,0.8v2.5
		C11.6,69.9,12,70.2,12.5,70.2L12.5,70.2z M13.5,67.7h1.9c0.5,0,1-0.4,1-0.8v-1.7h0.9v1.7c0,0.5,0.4,0.8,1,0.8h1.9v0.8h-1.9
		c-0.5,0-1,0.4-1,0.8v1.7h-0.9v-1.7c0-0.5-0.4-0.8-1-0.8h-1.9V67.7z M13.5,67.7"/>
	<path class="st0" d="M12.1,76.9h9.4c0.5,0,1-0.4,1-0.8c0-0.5-0.4-0.8-1-0.8h-9.4c-0.5,0-1,0.4-1,0.8C11.2,76.5,11.6,76.9,12.1,76.9
		L12.1,76.9z M12.1,76.9"/>
	<path class="st0" d="M22.3,78h-11c-0.5,0-1,0.4-1,0.8c0,0.5,0.4,0.8,1,0.8h11c0.5,0,1-0.4,1-0.8C23.3,78.3,22.8,78,22.3,78L22.3,78
		z M22.3,78"/>
</g>
<g>
	<path class="st0" d="M7.6-32.5c0,1.8-1.6,3.2-3.5,2.9c-1.1-0.2-2.1-1.1-2.3-2.3c-0.4-1.9,1.1-3.5,2.9-3.5
		C6.3-35.4,7.6-34.1,7.6-32.5L7.6-32.5z M7.6-32.5"/>
	<path class="st0" d="M22.1-32.5c0,1.8-1.6,3.2-3.5,2.9c-1.1-0.2-2.1-1.1-2.3-2.3c-0.4-1.9,1.1-3.5,2.9-3.5
		C20.8-35.4,22.1-34.1,22.1-32.5L22.1-32.5z M22.1-32.5"/>
	<path class="st0" d="M17.5-53.1c0-0.9-0.8-1.6-1.7-1.4c-0.7,0.1-1.2,0.8-1.2,1.5l0,1.3h2.9V-53.1z M17.5-53.1"/>
	<path class="st0" d="M24.7-38.9L20.6-50c-0.2-0.5-0.6-0.7-1.1-0.7H0.5c-1.3,0-2.4,1.1-2.4,2.4v14c0,1.1,0.9,1.9,1.9,1.9h0.5v0
		c0-2.6,2.4-4.7,5.2-4c1.8,0.4,3.1,2.1,3.1,4v0c0,0,0,0,0,0h6.3v0c0-2.6,2.4-4.7,5.2-4c1.8,0.4,3.1,2.1,3.1,4v0c0,0,0,0,0,0H27
		c0.5,0,0.9-0.4,0.9-0.9v-2.4C28-37.5,24.7-38.9,24.7-38.9L24.7-38.9z M8.2-43.5H6.7v1.4c0,0.5-0.4,1-0.9,1.1
		c-0.7,0.1-1.3-0.4-1.3-1.1v-1.4H3.2c-0.5,0-1-0.4-1.1-0.9c-0.1-0.7,0.4-1.3,1.1-1.3h1.4v-1.4c0-0.5,0.4-1,0.9-1.1
		c0.7-0.1,1.3,0.4,1.3,1.1v1.4h1.4c0.6,0,1.1,0.5,1.1,1.1C9.3-44,8.8-43.5,8.2-43.5L8.2-43.5z M14.6-43v-5.2h5l1.8,5.2L14.6-43
		L14.6-43z M14.6-43"/>
</g>
<g>
	<path class="st0" d="M1.1,5.2C0.4,6,0,6.8,0,7.8v13.5c0,1,0.4,1.9,1.1,2.6C1.8,24.6,2.6,25,3.6,25h0.5V4.2H3.6
		C2.6,4.2,1.8,4.5,1.1,5.2L1.1,5.2z M1.1,5.2"/>
	<path class="st0" d="M20.8,1.6c0-0.4-0.2-0.8-0.5-1.1C20.1,0.2,19.7,0,19.3,0H9.9C9.5,0,9.1,0.2,8.8,0.5C8.5,0.8,8.3,1.1,8.3,1.6
		v2.6H5.7V25h17.7V4.2h-2.6V1.6z M10.4,2.1h8.3v2.1h-8.3V2.1z M20.8,16.1c0,0.2,0,0.3-0.1,0.4c-0.1,0.1-0.2,0.1-0.4,0.1h-3.6v3.6
		c0,0.2,0,0.3-0.1,0.4c-0.1,0.1-0.2,0.1-0.4,0.1H13c-0.2,0-0.3,0-0.4-0.1c-0.1-0.1-0.1-0.2-0.1-0.4v-3.6H8.9c-0.2,0-0.3,0-0.4-0.1
		c-0.1-0.1-0.1-0.2-0.1-0.4V13c0-0.2,0-0.3,0.1-0.4c0.1-0.1,0.2-0.1,0.4-0.1h3.6V8.9c0-0.2,0-0.3,0.1-0.4c0.1-0.1,0.2-0.1,0.4-0.1
		h3.1c0.2,0,0.3,0,0.4,0.1c0.1,0.1,0.1,0.2,0.1,0.4v3.6h3.6c0.2,0,0.3,0,0.4,0.1c0.1,0.1,0.1,0.2,0.1,0.4L20.8,16.1L20.8,16.1z
		 M20.8,16.1"/>
	<path class="st0" d="M28.1,5.2c-0.7-0.7-1.6-1.1-2.6-1.1H25V25h0.5c1,0,1.9-0.4,2.6-1.1c0.7-0.7,1.1-1.6,1.1-2.6V7.8
		C29.2,6.8,28.8,6,28.1,5.2L28.1,5.2z M28.1,5.2"/>
</g>
</svg>
