<svg xmlns="http://www.w3.org/2000/svg" viewBox="0 0 10.75 14"><defs><style>.cls-1{fill:#5a82c2;}</style></defs><title>khoa</title><g id="Layer_2" data-name="Layer 2"><g id="Layer_1-2" data-name="Layer 1"><path class="cls-1" d="M1.21,4.21V5.67h-.1A1.11,1.11,0,0,0,0,6.78v6.11A1.11,1.11,0,0,0,1.11,14H9.64a1.11,1.11,0,0,0,1.11-1.11V6.77A1.11,1.11,0,0,0,9.64,5.66h0V4.2a4.2,4.2,0,1,0-8.4,0ZM6,10.1a.24.24,0,0,0-.11.22c0,.45,0,.9,0,1.34a.48.48,0,0,1-.25.45.52.52,0,0,1-.78-.45h0c0-.45,0-.9,0-1.35a.23.23,0,0,0-.1-.21,1,1,0,0,1-.34-1.26,1,1,0,0,1,2,.41A1,1,0,0,1,6,10.1ZM3,4.21a2.36,2.36,0,1,1,4.73,0V5.67H3Zm0,0"/></g></g></svg>