<?xml version="1.0" encoding="utf-8"?>
<!-- Generator: Adobe Illustrator 21.0.2, SVG Export Plug-In . SVG Version: 6.00 Build 0)  -->
<svg version="1.1" id="Layer_1" xmlns="http://www.w3.org/2000/svg" xmlns:xlink="http://www.w3.org/1999/xlink" x="0px" y="0px"
	 viewBox="0 0 20.9 25" style="enable-background:new 0 0 20.9 25;" xml:space="preserve">
<style type="text/css">
	.st0{fill:#375F99;}
</style>
<g>
	<path class="st0" d="M19.8,1.4H16V0.9c0-0.5-0.4-0.8-1-0.8H5.7c-0.5,0-1,0.4-1,0.8v0.5H1c-0.5,0-1,0.4-1,0.8v21.9
		C0,24.7,0.4,25,1,25h18.8c0.5,0,1-0.4,1-0.8V2.3C20.7,1.8,20.3,1.4,19.8,1.4L19.8,1.4z M6.6,1.7h7.5v1.1H6.6V1.7z M18.8,23.4H1.9
		V3.1h2.8v0.5c0,0.5,0.4,0.8,1,0.8h9.4c0.5,0,1-0.4,1-0.8V3.1h2.8V23.4z M18.8,23.4"/>
	<path class="st0" d="M6.1,12.9H8v1.7c0,0.5,0.4,0.8,1,0.8h2.9c0.5,0,1-0.4,1-0.8v-1.7h1.9c0.5,0,1-0.4,1-0.8V9.6
		c0-0.5-0.4-0.8-1-0.8h-1.9V7.1c0-0.5-0.4-0.8-1-0.8H8.9c-0.5,0-1,0.4-1,0.8v1.7H6.1c-0.5,0-1,0.4-1,0.8v2.5
		C5.1,12.5,5.6,12.9,6.1,12.9L6.1,12.9z M7.1,10.4h1.9c0.5,0,1-0.4,1-0.8V7.9h0.9v1.7c0,0.5,0.4,0.8,1,0.8h1.9v0.8h-1.9
		c-0.5,0-1,0.4-1,0.8v1.7H9.9v-1.7c0-0.5-0.4-0.8-1-0.8H7.1V10.4z M7.1,10.4"/>
	<path class="st0" d="M5.7,19.6h9.4c0.5,0,1-0.4,1-0.8c0-0.5-0.4-0.8-1-0.8H5.7c-0.5,0-1,0.4-1,0.8C4.7,19.2,5.1,19.6,5.7,19.6
		L5.7,19.6z M5.7,19.6"/>
	<path class="st0" d="M15.9,20.6h-11c-0.5,0-1,0.4-1,0.8c0,0.5,0.4,0.8,1,0.8h11c0.5,0,1-0.4,1-0.8C16.8,21,16.4,20.6,15.9,20.6
		L15.9,20.6z M15.9,20.6"/>
</g>
<g>
	<path class="st0" d="M1.1-89.8c0,1.8-1.6,3.2-3.5,2.9c-1.1-0.2-2.1-1.1-2.3-2.3c-0.4-1.9,1.1-3.5,2.9-3.5
		C-0.2-92.7,1.1-91.4,1.1-89.8L1.1-89.8z M1.1-89.8"/>
	<path class="st0" d="M15.7-89.8c0,1.8-1.6,3.2-3.5,2.9c-1.1-0.2-2.1-1.1-2.3-2.3c-0.4-1.9,1.1-3.5,2.9-3.5
		C14.4-92.7,15.7-91.4,15.7-89.8L15.7-89.8z M15.7-89.8"/>
	<path class="st0" d="M11-110.4c0-0.9-0.8-1.6-1.7-1.4c-0.7,0.1-1.2,0.8-1.2,1.5v1.3H11V-110.4z M11-110.4"/>
	<path class="st0" d="M18.3-96.3l-4.1-11.1c-0.2-0.5-0.6-0.7-1.1-0.7H-6c-1.3,0-2.4,1.1-2.4,2.4v14c0,1.1,0.9,1.9,1.9,1.9h0.5v0
		c0-2.6,2.4-4.7,5.2-4c1.8,0.4,3.1,2.1,3.1,4v0c0,0,0,0,0,0h6.3v0c0-2.6,2.4-4.7,5.2-4c1.8,0.4,3.1,2.1,3.1,4l0,0c0,0,0,0,0,0h3.6
		c0.5,0,0.9-0.4,0.9-0.9v-2.4C21.5-94.8,18.3-96.3,18.3-96.3L18.3-96.3z M1.7-100.8H0.3l0,1.4c0,0.5-0.4,1-0.9,1.1
		c-0.7,0.1-1.3-0.4-1.3-1.1v-1.4h-1.4c-0.5,0-1-0.4-1.1-0.9c-0.1-0.7,0.4-1.3,1.1-1.3h1.4l0-1.4c0-0.5,0.4-1,0.9-1.1
		c0.7-0.1,1.3,0.4,1.3,1.1v1.4h1.4c0.6,0,1.1,0.5,1.1,1.1C2.8-101.4,2.3-100.8,1.7-100.8L1.7-100.8z M8.1-100.4v-5.2h5l1.8,5.2
		L8.1-100.4L8.1-100.4z M8.1-100.4"/>
</g>
<g>
	<path class="st0" d="M-5.4-52.1c-0.7,0.7-1.1,1.6-1.1,2.6V-36c0,1,0.4,1.9,1.1,2.6c0.7,0.7,1.6,1.1,2.6,1.1h0.5v-20.8h-0.5
		C-3.8-53.2-4.7-52.8-5.4-52.1L-5.4-52.1z M-5.4-52.1"/>
	<path class="st0" d="M14.4-55.8c0-0.4-0.2-0.8-0.5-1.1c-0.3-0.3-0.7-0.5-1.1-0.5H3.4c-0.4,0-0.8,0.2-1.1,0.5
		c-0.3,0.3-0.5,0.7-0.5,1.1v2.6h-2.6v20.8H17v-20.8h-2.6V-55.8z M4-55.2h8.3v2.1H4V-55.2z M14.4-41.2c0,0.2,0,0.3-0.1,0.4
		c-0.1,0.1-0.2,0.1-0.4,0.1h-3.6v3.6c0,0.2,0,0.3-0.1,0.4c-0.1,0.1-0.2,0.1-0.4,0.1H6.6c-0.2,0-0.3,0-0.4-0.1
		c-0.1-0.1-0.1-0.2-0.1-0.4v-3.6H2.4c-0.2,0-0.3,0-0.4-0.1c-0.1-0.1-0.1-0.2-0.1-0.4v-3.1c0-0.2,0-0.3,0.1-0.4
		c0.1-0.1,0.2-0.1,0.4-0.1h3.6v-3.6c0-0.2,0-0.3,0.1-0.4C6.3-49,6.4-49,6.6-49h3.1c0.2,0,0.3,0,0.4,0.1c0.1,0.1,0.1,0.2,0.1,0.4v3.6
		h3.6c0.2,0,0.3,0,0.4,0.1c0.1,0.1,0.1,0.2,0.1,0.4L14.4-41.2L14.4-41.2z M14.4-41.2"/>
	<path class="st0" d="M21.6-52.1c-0.7-0.7-1.6-1.1-2.6-1.1h-0.5v20.8h0.5c1,0,1.9-0.4,2.6-1.1c0.7-0.7,1.1-1.6,1.1-2.6v-13.5
		C22.7-50.5,22.4-51.4,21.6-52.1L21.6-52.1z M21.6-52.1"/>
</g>
</svg>
