<svg xmlns="http://www.w3.org/2000/svg" viewBox="0 0 84.4 96.29"><defs><style>.cls-1{fill:#fff;}.cls-2{fill:#129f5b;}.cls-3{fill:#5a82c2;}</style></defs><title>logo</title><g id="Layer_2" data-name="Layer 2"><g id="Layer_1-2" data-name="Layer 1"><path class="cls-1" d="M0,10.06V67.62c0,13.26,14.48,33.27,33.57,27.72L84.4,80.56V47.13c0-15.39-8.82-29.34-23.06-33.49L9.82,0C4.41-.26,0,5.3,0,10.06Z"/><path class="cls-2" d="M5.82,51.32V62.67c.16,12.67,10.5,30.21,26.82,28C24.22,89.13,20.38,79.87,20.53,72.5c.14-6.74,0-13.84,0-20.7Z"/><path class="cls-2" d="M20.58,23.54q0-7.58,0-15.16c-2.12-.54-7-1.46-8.55-1.86a5,5,0,0,0-6.24,4.84q0,4.89,0,9.79h.13C10.52,21.92,16,22.79,20.58,23.54Z"/><path class="cls-2" d="M46,18.21v9L56.4,29.09a3.14,3.14,0,0,1,2.51,3q0,7.72,0,15.44c0,1.38.37,4.56-2.33,4.56-4.18,0-6.23,0-10.41,0L46,65.82c0,9,5.2,12.18,12.83,11,8.46-1.34,13-2.4,19.56-3.8,0-9.26.27-18.23.28-27.49-.43-13.87-10.7-25-21.77-28.39l-13-3.63A6.79,6.79,0,0,1,46,18.21Z"/><path class="cls-3" d="M78.62,78.82c0-2,0-2.95,0-4.91-5.72,1.21-7.62,1.79-13.34,3-22.95,4.89-20.91-5.44-20.86-17.25V50.95L55.31,51c2,0,2.62-1.08,2.62-2.43q0-7.51,0-15a3.13,3.13,0,0,0-2.62-2.89L44.42,28.85V20.09c.2-3.21-.88-5.48-2.19-6.67-6.33-1.65-12.67-3-19-4.67,0,4.92,0,11.61,0,16.53-4.38-.74-9.77-1.6-14.15-2.33,0,.05-3.13-.63-3.18-.57,0,9-.26,18.56,0,27.8,0,0,12.89.56,17.3.59,0,7.07.11,14.26,0,21.2-.14,7.59,3.92,16.7,12,18.28a25,25,0,0,0,3.67-.67C53.35,85.78,64.08,82.62,78.62,78.82Z"/></g></g></svg>