<svg xmlns="http://www.w3.org/2000/svg" viewBox="0 0 22.37 30"><defs><style>.cls-1{fill:#129f5b;}.cls-2{fill:#fff;}</style></defs><title>mui_ten_select</title><g id="Layer_2" data-name="Layer 2"><g id="Layer_1-2" data-name="Layer 1"><path class="cls-1" d="M18.93,30H0V0H18.93a3.25,3.25,0,0,1,3.44,3V27A3.25,3.25,0,0,1,18.93,30Z"/><path class="cls-2" d="M15.22,14.16l-3.41,3.15a.73.73,0,0,1-1,0l-3.67-3a.73.73,0,0,1-.1-1l.34-.42a.73.73,0,0,1,1-.1l2.32,1.91a.73.73,0,0,0,1,0l2.13-2a.73.73,0,0,1,1,0l.37.4A.73.73,0,0,1,15.22,14.16Z"/></g></g></svg>