<svg xmlns="http://www.w3.org/2000/svg" viewBox="0 0 54.21 57.53"><defs><style>.cls-1{fill:#6a6c6d;opacity:0.5;}.cls-2{fill:#fff;}.cls-3{fill:#c0c8cc;}</style></defs><title>next</title><g id="Layer_2" data-name="Layer 2"><g id="Layer_1-2" data-name="Layer 1"><path class="cls-1" d="M47.5,57.53H5.72A5.75,5.75,0,0,1,0,51.75V7A5.75,5.75,0,0,1,5.72,1.25H47.5A5.75,5.75,0,0,1,53.21,7V51.75A5.75,5.75,0,0,1,47.5,57.53Z"/><rect class="cls-2" x="1" width="53.21" height="55.65" rx="5.72" ry="5.72"/><path class="cls-3" d="M40,31.34,23.27,43.8a3.35,3.35,0,0,1-5.35-2.69V15.24A3.35,3.35,0,0,1,23,12.4L39.76,22.77a3.35,3.35,0,0,1,1.58,2.85v3A3.35,3.35,0,0,1,40,31.34Z"/></g></g></svg>