<svg xmlns="http://www.w3.org/2000/svg" viewBox="0 0 18.94 17.01"><defs><style>.cls-1{fill:#636464;}</style></defs><title>nhom_quyen_chuc_nang</title><g id="Layer_2" data-name="Layer 2"><g id="Layer_1-2" data-name="Layer 1"><path class="cls-1" d="M9.47,5.29s2.21.09,2.21-3.12A2,2,0,0,0,9.47,0,2,2,0,0,0,7.26,2.17C7.29,4.13,8.12,5.31,9.47,5.29Z"/><path class="cls-1" d="M10.63,6.36h1.71L11.17,5.9A3.31,3.31,0,0,1,10.63,6.36Z"/><path class="cls-1" d="M7.77,5.9l-1.16.46H8.32A2.73,2.73,0,0,1,7.77,5.9Z"/><path class="cls-1" d="M9.68,11A6,6,0,0,0,14,8.71l0,0C14,7.89,13.8,7,13.38,6.79l-1-.42H10.63a2,2,0,0,1-2.3,0H6.61l-1,.42c-.4.16-.58,1-.66,1.82v.1l0,.06A6.85,6.85,0,0,0,9.68,11Z"/><path class="cls-1" d="M17.66,9.31a1.24,1.24,0,0,0-.88.38l-1.25-.22h0l-.95-.17a6,6,0,0,1-5.15,2.76A6,6,0,0,1,4.26,9.3h0l-2,.52a1.25,1.25,0,0,0-1-.53,1.37,1.37,0,0,0,0,2.73,1.31,1.31,0,0,0,1.26-1.13l1.31-.35a6.44,6.44,0,0,0,5,2.62V14.4a1.37,1.37,0,0,0-.76,1.24,1.29,1.29,0,1,0,2.57,0,1.37,1.37,0,0,0-.77-1.25V13.16a6.6,6.6,0,0,0,5-2.67l1.47.25a1.29,1.29,0,1,0,1.28-1.43Z"/></g></g></svg>