<svg xmlns="http://www.w3.org/2000/svg" viewBox="0 0 26 30.44"><defs><style>.cls-1{fill:none;}.cls-2{fill:#fff;}</style></defs><title>phathanhhochieudientu</title><g id="Layer_2" data-name="Layer 2"><g id="Layer_1-2" data-name="Layer 1"><rect class="cls-1" width="26" height="26"/><path class="cls-2" d="M9.49,17.44A4.5,4.5,0,1,1,14,21.93,4.5,4.5,0,0,1,9.49,17.44Zm5.92-1H12.57a6.11,6.11,0,0,0,0,2h2.83A6.2,6.2,0,0,0,15.41,16.45Zm-.21-1a2.75,2.75,0,0,0-.81-1.34A.56.56,0,0,0,13.7,14a2.49,2.49,0,0,0-.92,1.41Zm-2.42,4A3.67,3.67,0,0,0,13,20a4.88,4.88,0,0,0,.59.77.51.51,0,0,0,.67.06,2.47,2.47,0,0,0,.92-1.41Zm-2.11-3a2.93,2.93,0,0,0,0,1.87s.06.12.1.12h.8v-2Zm5.8,2h.78a.15.15,0,0,0,.1-.09,3,3,0,0,0,0-1.89h-.85ZM12,14.58l0,0-.86.84,0,.06a3.83,3.83,0,0,0,.44,0,.23.23,0,0,0,.16-.12C11.87,15.07,12,14.82,12,14.58Zm4,0,0,0c.09.26.18.52.27.78a.13.13,0,0,0,.09.07h.49l0-.07Zm-4.83,4.9,0,.06.86.84,0,0-.3-.85Zm5.67.06,0-.06h-.56l-.29.83.05,0Z"/><path class="cls-2" d="M7.72,27.44a2.42,2.42,0,0,1-1-.46A2,2,0,0,1,6,25.54s0,0,0-.1H4v-2H8v2H20v-16H8v1H6a4,4,0,0,1,.25-1.95,2,2,0,0,1,1.37-1l.11,0H20.26l.13,0a2,2,0,0,1,1.12.66A2.09,2.09,0,0,1,22,9.58q0,6.57,0,13.14c0,1,0,1.93,0,2.89a1.84,1.84,0,0,1-.66,1.32,2.3,2.3,0,0,1-1.06.51Z"/><path class="cls-2" d="M4,11.44H8v5H6v-3H4Z"/><path class="cls-2" d="M8,17.45v5H6v-3H4v-2Z"/><rect class="cls-1" y="4.44" width="26" height="26"/></g></g></svg>