<svg xmlns="http://www.w3.org/2000/svg" viewBox="0 0 13.63 14.18"><defs><style>.cls-1{fill:#636464;}</style></defs><title>phieu_linh_thuoc_hang_ngay</title><g id="Layer_2" data-name="Layer 2"><g id="Layer_1-2" data-name="Layer 1"><path class="cls-1" d="M12.44.54H12a.41.41,0,0,0,0-.12.42.42,0,1,0-.83,0,.41.41,0,0,0,0,.12H9.58a.41.41,0,0,0,0-.12.42.42,0,1,0-.83,0,.4.4,0,0,0,0,.12H7.21a.4.4,0,0,0,0-.12.42.42,0,1,0-.83,0,.4.4,0,0,0,0,.12H4.83a.41.41,0,0,0,0-.12A.42.42,0,1,0,4,.42a.41.41,0,0,0,0,.12H2.46a.41.41,0,0,0,0-.12.42.42,0,1,0-.83,0,.4.4,0,0,0,0,.12H1.19A1.19,1.19,0,0,0,0,1.73V13a1.19,1.19,0,0,0,1.19,1.19H11.1l2.53-2.53V1.73A1.19,1.19,0,0,0,12.44.54Zm-.05,10.73-.14.13-.59-.05a.87.87,0,0,0-.87.87l.16.64-.13.13H1.73a.54.54,0,0,1-.54-.54V3h11.2Zm.6.11"/><path class="cls-1" d="M4.51,12.07H9.13a1.55,1.55,0,0,0,1.54-1.54V5.9A1.55,1.55,0,0,0,9.13,4.36H4.51A1.55,1.55,0,0,0,3,5.9v4.62a1.55,1.55,0,0,0,1.54,1.54Zm.19-4.7H6V6.09h1.7V7.37H8.94v1.7H7.67v1.27H6V9.07H4.69ZM3.44,10.74"/></g></g></svg>