<svg xmlns="http://www.w3.org/2000/svg" viewBox="0 0 13.58 14.18"><defs><style>.cls-1{fill:none;}.cls-2{fill:#636464;}</style></defs><title>phieu_nhap_xuat</title><g id="Layer_2" data-name="Layer 2"><g id="Layer_1-2" data-name="Layer 1"><path class="cls-1" d="M8.87,4.94a1,1,0,0,1-1-1V1.08H1.52a.45.45,0,0,0-.44.45V12.65a.44.44,0,0,0,.44.44H7.37a3.72,3.72,0,0,1-.81-1.53h-4a.68.68,0,1,1,0-1.36H6.47A3.71,3.71,0,0,1,6.9,8.84H2.58a.69.69,0,0,1,0-1.37H8.21a3.7,3.7,0,0,1,1.86-.56V5Zm-3.57.9H2.58a.69.69,0,0,1,0-1.37H5.3a.69.69,0,0,1,0,1.37Z"/><path class="cls-2" d="M5.3,4.47H2.58a.69.69,0,0,0,0,1.37H5.3a.69.69,0,0,0,0-1.37Z"/><path class="cls-2" d="M8.21,7.46H2.58a.69.69,0,0,0,0,1.37H6.9A3.74,3.74,0,0,1,8.21,7.46Z"/><path class="cls-2" d="M6.47,10.19H2.58a.68.68,0,1,0,0,1.36h4a3.56,3.56,0,0,1-.09-1.36Z"/><path class="cls-2" d="M7.37,13.08H1.52a.44.44,0,0,1-.44-.44V1.53a.45.45,0,0,1,.44-.45H7.9V2.31a1,1,0,0,0,1,1h1.2V6.9h.1a3.72,3.72,0,0,1,1,.13V2.79L8.42,0H1.52A1.52,1.52,0,0,0,0,1.53V12.65a1.53,1.53,0,0,0,1.52,1.53H9A3.73,3.73,0,0,1,7.37,13.08Z"/><path class="cls-2" d="M10.42,7.41a3.16,3.16,0,1,0,3.16,3.16A3.16,3.16,0,0,0,10.42,7.41Zm2.24,3.26L10.82,12.5a.14.14,0,0,1-.19,0l-.43-.43a.14.14,0,0,1,0-.19L11,11H8.28a.14.14,0,0,1-.14-.14v-.67a.14.14,0,0,1,.14-.14H11l-.83-.83a.14.14,0,0,1,0-.19l.43-.43a.14.14,0,0,1,.19,0l1.83,1.83a.14.14,0,0,1,0,.19Z"/></g></g></svg>