<svg xmlns="http://www.w3.org/2000/svg" viewBox="0 0 15.79 14.18"><defs><style>.cls-1{fill:#636464;}</style></defs><title>phieu_dieu_chuyen_kho</title><g id="Layer_2" data-name="Layer 2"><g id="Layer_1-2" data-name="Layer 1"><path class="cls-1" d="M8.58,8.27a.18.18,0,0,0-.27,0l-.6.66a.22.22,0,0,0,0,.29l1.14,1.26H5.07a.2.2,0,0,0-.19.21v1a.2.2,0,0,0,.19.21H8.85L7.71,13.17a.22.22,0,0,0,0,.29l.6.66a.18.18,0,0,0,.27,0l2.53-2.78a.22.22,0,0,0,0-.29Z"/><path class="cls-1" d="M15.35,4.34l-7-4.2a.79.79,0,0,0-.9,0c-.65.4-1.31.79-2,1.19-1.63,1-3.26,2-4.9,2.93A1.05,1.05,0,0,0,0,5.34c0,.27,0,.54,0,.81A.75.75,0,0,0,.75,7h.69V9.08c0,1.36,0,2.71,0,4.07,0,.5.18.85.55.89.52.05,1.06,0,1.61,0V7.79h8.61v6.29h1.2c.69,0,.94-.28.94-1q0-2.81,0-5.63V7H15a.76.76,0,0,0,.79-.86c0-.32,0-.63,0-.95A.87.87,0,0,0,15.35,4.34Zm-5.86.49H8.55v1a.54.54,0,1,1-1.07,0v-1H6.55A.56.56,0,0,1,6,4.25a.56.56,0,0,1,.53-.59h.93v-1a.54.54,0,1,1,1.07,0v1h.93a.56.56,0,0,1,.53.59A.56.56,0,0,1,9.49,4.83Z"/></g></g></svg>