<svg xmlns="http://www.w3.org/2000/svg" viewBox="0 0 15.19 14.17"><defs><style>.cls-1{fill:#fff;}</style></defs><title>phuc_hoi</title><g id="Layer_2" data-name="Layer 2"><g id="Layer_1-2" data-name="Layer 1"><path class="cls-1" d="M6.73,12.16H1.62a.81.81,0,1,1,0-1.62H6.28c0-.14,0-.29,0-.43a4.72,4.72,0,0,1,4.29-4.7V0H1.62A1.62,1.62,0,0,0,0,1.62v9.73A1.62,1.62,0,0,0,1.62,13H7.23A4.72,4.72,0,0,1,6.73,12.16Z"/><path class="cls-1" d="M12.16,5.54V1.62h-.81V5.41A4.7,4.7,0,0,1,12.16,5.54Z"/><path class="cls-1" d="M11.35,6.49a3.84,3.84,0,1,0,3.84,3.84A3.84,3.84,0,0,0,11.35,6.49Zm1.71,6.74c0,.05,0,.05,0,0,0-.36-.06-1.76-2.35-2.76a.19.19,0,0,1-.07-.07l-.47,1.07L8.63,8.68,11.7,7.9l-.46,1,.08,0A3.09,3.09,0,0,1,13.06,13.23Z"/></g></g></svg>