<svg xmlns="http://www.w3.org/2000/svg" viewBox="0 0 54.21 57.53"><defs><style>.cls-1{fill:#6a6c6d;opacity:0.5;}.cls-2{fill:#fff;}.cls-3{fill:#c0c8cc;}</style></defs><title>pre</title><g id="Layer_2" data-name="Layer 2"><g id="Layer_1-2" data-name="Layer 1"><path class="cls-1" d="M6.72,57.53H48.5a5.75,5.75,0,0,0,5.72-5.78V7A5.75,5.75,0,0,0,48.5,1.25H6.72A5.75,5.75,0,0,0,1,7V51.75A5.75,5.75,0,0,0,6.72,57.53Z"/><rect class="cls-2" width="53.21" height="55.65" rx="5.72" ry="5.72"/><path class="cls-3" d="M14.22,31.34,30.94,43.8a3.35,3.35,0,0,0,5.35-2.69V15.24a3.35,3.35,0,0,0-5.12-2.85L14.46,22.77a3.35,3.35,0,0,0-1.58,2.85v3A3.35,3.35,0,0,0,14.22,31.34Z"/></g></g></svg>