<svg xmlns="http://www.w3.org/2000/svg" viewBox="0 0 54.2 58.17"><defs><style>.cls-1{fill:#fff;}</style></defs><title>ql_bao_cao</title><g id="Layer_2" data-name="Layer 2"><g id="Layer_1-2" data-name="Layer 1"><circle class="cls-1" cx="42.39" cy="46.19" r="3.09"/><path class="cls-1" d="M42.39,34.55A11.81,11.81,0,1,0,54.2,46.36,11.81,11.81,0,0,0,42.39,34.55ZM51,48.08l-2.34.15a6.58,6.58,0,0,1-.52,1.26l1.55,1.76-2.44,2.44-1.76-1.55a6.53,6.53,0,0,1-1.26.52L44.11,55H40.66l-.15-2.34a6.53,6.53,0,0,1-1.26-.52l-1.76,1.55-2.44-2.44,1.54-1.76a6.58,6.58,0,0,1-.52-1.26l-2.34-.15V44.63l2.34-.15a6.59,6.59,0,0,1,.52-1.26l-1.54-1.76L37.49,39l1.76,1.55A6.52,6.52,0,0,1,40.51,40l.15-2.34h3.45L44.26,40a6.53,6.53,0,0,1,1.26.52L47.28,39l2.44,2.44-1.55,1.76a6.57,6.57,0,0,1,.52,1.26l2.34.15Z"/><path class="cls-1" d="M39.33,0H7.39A7.41,7.41,0,0,0,0,7.39V49.81A7.41,7.41,0,0,0,7.39,57.2h21a17.27,17.27,0,0,1-3.12-7H9.42a2.31,2.31,0,0,1,0-4.62H25a17.17,17.17,0,0,1,1-4.77H9.42a2.32,2.32,0,0,1-2.31-2.31h0a2.32,2.32,0,0,1,2.31-2.31H28.59a17.16,17.16,0,0,1,18.13-6.07V7.39A7.41,7.41,0,0,0,39.33,0Zm-23,9.56h4.25V5.32h5.51V9.56h4.24v5.5H26.12v4.24H20.61V15.07H16.36ZM33.12,31.45H9.92a2.6,2.6,0,0,1-2.81-2.31,2.6,2.6,0,0,1,2.81-2.31h23.2a2.6,2.6,0,0,1,2.81,2.31A2.6,2.6,0,0,1,33.12,31.45Z"/></g></g></svg>