<svg xmlns="http://www.w3.org/2000/svg" viewBox="0 0 23.28 24.99"><defs><style>.cls-1{fill:#375f99;}</style></defs><title>Quan_ly_bao_cao_icon</title><g id="Layer_2" data-name="Layer 2"><g id="Layer_1-2" data-name="Layer 1"><circle class="cls-1" cx="18.21" cy="19.84" r="1.33"/><path class="cls-1" d="M18.21,14.84a5.07,5.07,0,1,0,5.07,5.07A5.07,5.07,0,0,0,18.21,14.84Zm3.71,5.81-1,.06a2.83,2.83,0,0,1-.22.54l.66.76-1,1-.76-.66a2.81,2.81,0,0,1-.54.22l-.06,1H17.47l-.06-1a2.81,2.81,0,0,1-.54-.22l-.76.66-1-1,.66-.76a2.82,2.82,0,0,1-.22-.54l-1-.06V19.17l1-.06a2.83,2.83,0,0,1,.22-.54l-.66-.76,1-1,.76.66a2.8,2.8,0,0,1,.54-.22l.06-1h1.48l.06,1a2.81,2.81,0,0,1,.54.22l.76-.66,1,1-.66.76a2.82,2.82,0,0,1,.22.54l1,.06Z"/><path class="cls-1" d="M16.9,0H3.17A3.18,3.18,0,0,0,0,3.17V21.4a3.18,3.18,0,0,0,3.17,3.17h9a7.42,7.42,0,0,1-1.34-3H4a1,1,0,0,1,0-2h6.69a7.38,7.38,0,0,1,.44-2.05H4a1,1,0,0,1-1-1h0a1,1,0,0,1,1-1h8.23A7.37,7.37,0,0,1,20.07,13V3.17A3.18,3.18,0,0,0,16.9,0ZM7,4.11H8.85V2.28h2.37V4.11H13V6.47H11.22V8.29H8.85V6.47H7Zm7.2,9.4h-10a1.12,1.12,0,0,1-1.21-1,1.12,1.12,0,0,1,1.21-1h10a1.12,1.12,0,0,1,1.21,1A1.12,1.12,0,0,1,14.23,13.51Z"/></g></g></svg>