<svg xmlns="http://www.w3.org/2000/svg" viewBox="0 0 65.62 58.38"><defs><style>.cls-1{fill:#fff;}</style></defs><title>quan_tri_ht</title><g id="Layer_2" data-name="Layer 2"><g id="Layer_1-2" data-name="Layer 1"><path class="cls-1" d="M58.26,0H7.36A7.36,7.36,0,0,0,0,7.36v34a7.36,7.36,0,0,0,7.36,7.36H24.08v4.11H15.64a2.76,2.76,0,1,0,0,5.52H50a2.76,2.76,0,0,0,0-5.52H41.54V48.75H58.26a7.36,7.36,0,0,0,7.36-7.36v-34A7.36,7.36,0,0,0,58.26,0ZM57.2,40.11a.85.85,0,0,1-.85.85H9.28a.85.85,0,0,1-.85-.85V8.64a.85.85,0,0,1,.85-.85H56.34a.85.85,0,0,1,.85.85Z"/><path class="cls-1" d="M45.32,27.07v-5l-3.38-.22A9.51,9.51,0,0,0,41.19,20l2.24-2.54L39.89,14,37.35,16.2a9.44,9.44,0,0,0-1.82-.75l-.22-3.38h-5l-.22,3.38a9.45,9.45,0,0,0-1.82.75L25.73,14,22.2,17.49,24.43,20a9.54,9.54,0,0,0-.75,1.82l-3.38.22v5l3.38.22a9.52,9.52,0,0,0,.75,1.82L22.2,31.66l3.53,3.53L28.27,33a9.46,9.46,0,0,0,1.82.75l.22,3.38h5l.22-3.38A9.44,9.44,0,0,0,37.35,33l2.54,2.24,3.53-3.53-2.24-2.55a9.5,9.5,0,0,0,.75-1.82Zm-12.51,2a4.48,4.48,0,1,1,4.48-4.48A4.48,4.48,0,0,1,32.81,29.05Z"/></g></g></svg>