<svg xmlns="http://www.w3.org/2000/svg" viewBox="0 0 26 26"><defs><style>.cls-1{fill:#fff;}.cls-2{fill:none;}</style></defs><title>quantrihethong</title><g id="Layer_2" data-name="Layer 2"><g id="Layer_1-2" data-name="Layer 1"><path class="cls-1" d="M19.08,21.3a4.73,4.73,0,0,1-.68-.29c-.37-.23-.73-.48-1.08-.75a.38.38,0,0,0-.46,0c-.48.23-1,.43-1.49.62a.37.37,0,0,0-.29.33c-.07.44-.14.88-.23,1.32a1.18,1.18,0,0,1-1.2,1c-.44,0-.87,0-1.31,0a1.16,1.16,0,0,1-1.17-1c-.1-.44-.17-.88-.24-1.32a.41.41,0,0,0-.31-.38,12.94,12.94,0,0,1-1.46-.61.4.4,0,0,0-.49,0c-.34.25-.69.5-1,.73A1.19,1.19,0,0,1,6,20.86L5.13,20A1.2,1.2,0,0,1,5,18.39c.25-.37.5-.74.77-1.1a.35.35,0,0,0,0-.41c-.23-.5-.44-1-.63-1.51a.37.37,0,0,0-.33-.29c-.46-.07-.92-.15-1.38-.25a1.15,1.15,0,0,1-.94-1.15q0-.69,0-1.37a1.15,1.15,0,0,1,.94-1.15c.45-.1.9-.17,1.35-.24a.39.39,0,0,0,.36-.3c.18-.51.4-1,.63-1.51a.32.32,0,0,0,0-.38C5.49,8.37,5.23,8,5,7.61A1.19,1.19,0,0,1,5.12,6c.3-.31.61-.63.93-.92A1.19,1.19,0,0,1,7.61,5c.38.25.74.53,1.13.78a.44.44,0,0,0,.35,0q.81-.31,1.6-.66a.45.45,0,0,0,.22-.27c.09-.39.14-.78.21-1.17A1.24,1.24,0,0,1,12.51,2.5h1.07a1.22,1.22,0,0,1,1.3,1.1c.07.4.14.8.2,1.2a.37.37,0,0,0,.28.34c.51.19,1,.4,1.51.63a.35.35,0,0,0,.41,0c.34-.25.7-.49,1-.73A1.21,1.21,0,0,1,20,5.15l.86.86A1.2,1.2,0,0,1,21,7.62c-.24.35-.48.71-.73,1a.4.4,0,0,0,0,.49,13.35,13.35,0,0,1,.61,1.46.41.41,0,0,0,.38.31c.43.06.86.14,1.29.23a1.16,1.16,0,0,1,1,1.18c0,.45,0,.89,0,1.34a1.15,1.15,0,0,1-.94,1.15c-.45.1-.92.17-1.38.25a.37.37,0,0,0-.33.29c-.19.51-.4,1-.63,1.51a.34.34,0,0,0,0,.41c.25.34.49.7.73,1A1.21,1.21,0,0,1,20.83,20l-.86.86A1.47,1.47,0,0,1,19.08,21.3ZM13,7.22A5.78,5.78,0,1,0,18.78,13,5.82,5.82,0,0,0,13,7.22Z"/><path class="cls-1" d="M16.79,14.55c-.68-.38-1.37-.75-2-1.14a.32.32,0,0,1-.09-.25,1.64,1.64,0,0,0-1.79-1.82c-.09,0-.24,0-.28-.09-.39-.68-.76-1.36-1.14-2a4.08,4.08,0,0,1,5.34,5.34Z"/><path class="cls-1" d="M14.53,16.81A4.09,4.09,0,0,1,9.2,11.45l.92.51c.27.15.53.3.8.44a.62.62,0,0,1,.43.67,1.59,1.59,0,0,0,1.74,1.58.36.36,0,0,1,.4.22c.33.63.68,1.24,1,1.87A.38.38,0,0,1,14.53,16.81Z"/><path class="cls-1" d="M13.54,13a.55.55,0,0,1-.51.54.56.56,0,0,1-.56-.52.54.54,0,0,1,1.08,0Z"/><rect class="cls-2" width="26" height="26"/></g></g></svg>