<svg xmlns="http://www.w3.org/2000/svg" viewBox="0 0 19.88 25"><defs><style>.cls-1{fill:#375f99;}</style></defs><title>Quan_ly_thu_tuc</title><g id="Layer_2" data-name="Layer 2"><g id="Layer_1-2" data-name="Layer 1"><path class="cls-1" d="M17.66,0H2.22A2.22,2.22,0,0,0,0,2.22V22.78A2.22,2.22,0,0,0,2.22,25H17.66a2.22,2.22,0,0,0,2.22-2.22V2.22A2.22,2.22,0,0,0,17.66,0Zm.7,22a1.44,1.44,0,0,1-1.43,1.43H3A1.44,1.44,0,0,1,1.52,22V3A1.44,1.44,0,0,1,3,1.56h14A1.44,1.44,0,0,1,18.36,3ZM16.92,2.69H3A.31.31,0,0,0,2.65,3V22a.31.31,0,0,0,.31.31h14a.31.31,0,0,0,.31-.31V3a.31.31,0,0,0-.31-.31ZM14.28,13.63a.56.56,0,0,1-.56.56H11.79v2.08a.56.56,0,0,1-.56.56H9a.56.56,0,0,1-.56-.56V14.19H6.17a.56.56,0,0,1-.56-.56V11.37a.56.56,0,0,1,.56-.56H8.41V8.73A.56.56,0,0,1,9,8.16h2.26a.56.56,0,0,1,.56.56v2.08h1.92a.56.56,0,0,1,.56.56Zm1.83,7a.56.56,0,1,1-1.13,0V17.53a.56.56,0,0,1,1.13,0Zm0,0"/></g></g></svg>