<svg xmlns="http://www.w3.org/2000/svg" viewBox="0 0 16.3 17.45"><defs><style>.cls-1{fill:#fff;}</style></defs><title>reset_1</title><g id="Layer_2" data-name="Layer 2"><g id="Layer_1-2" data-name="Layer 1"><path class="cls-1" d="M1.41,7.29a1.39,1.39,0,0,0,1.28-.85A5.92,5.92,0,0,1,8.15,2.8,5.84,5.84,0,0,1,11.74,4L11,4.15a.61.61,0,0,0-.16,1.16l4.29,1.93a.61.61,0,0,0,.86-.55L16,2a.61.61,0,0,0-1.11-.34l-.59.89A8.71,8.71,0,0,0,.11,5.34a1.41,1.41,0,0,0,1.29,2Zm0,0"/><path class="cls-1" d="M16.06,10.78a1.4,1.4,0,0,0-2.46.22,5.92,5.92,0,0,1-5.46,3.64,5.84,5.84,0,0,1-3.59-1.23l.78-.12a.61.61,0,0,0,.16-1.16L1.21,10.21a.61.61,0,0,0-.86.55l0,4.72a.61.61,0,0,0,1.11.34L2,14.94a8.71,8.71,0,0,0,14.15-2.83,1.41,1.41,0,0,0-.12-1.32Zm0,0"/></g></g></svg>