<svg xmlns="http://www.w3.org/2000/svg" viewBox="0 0 14.49 12"><defs><style>.cls-1{fill:#fff;}</style></defs><title>save</title><g id="Layer_2" data-name="Layer 2"><g id="Layer_1-2" data-name="Layer 1"><path class="cls-1" d="M13.05,3.41V3a1.61,1.61,0,0,0-1.61-1.61H6.18L4.67,0H1.61A1.61,1.61,0,0,0,0,1.61v8.78A1.61,1.61,0,0,0,1.61,12h9.85A1.61,1.61,0,0,0,13,10.47l1.47-7.06ZM11.12,7.89,8.44,10.57a.38.38,0,0,1-.54,0L5.23,7.89a.38.38,0,0,1-.08-.42.38.38,0,0,1,.35-.24h1V4H9.89V7.24h1a.38.38,0,0,1,.27.65Zm.68-4.48H3.31L1.88,10.75H1.61a.36.36,0,0,1-.36-.36V1.61a.36.36,0,0,1,.36-.36H4.19L5.7,2.63h5.74A.36.36,0,0,1,11.8,3Z"/></g></g></svg>