<svg xmlns="http://www.w3.org/2000/svg" viewBox="0 0 19.42 19.42"><defs><style>.cls-1{fill:#375f99;}.cls-2{fill:#fff;}</style></defs><title>select_3</title><g id="Layer_2" data-name="Layer 2"><g id="Layer_1-2" data-name="Layer 1"><path class="cls-1" d="M.93,0H15.65a3.77,3.77,0,0,1,3.77,3.77V15.65a3.77,3.77,0,0,1-3.77,3.77H.93A.93.93,0,0,1,0,18.49V.93A.93.93,0,0,1,.93,0Z"/><path class="cls-2" d="M10,13l2.51-4.11c.25-.4.06-.73-.41-.73H7c-.47,0-.66.32-.41.73L9.13,13A.48.48,0,0,0,10,13Z"/></g></g></svg>