<svg xmlns="http://www.w3.org/2000/svg" viewBox="0 0 24.56 25"><defs><style>.cls-1{fill:#375f99;}</style></defs><title>sieu_am</title><g id="Layer_2" data-name="Layer 2"><g id="Layer_1-2" data-name="Layer 1"><path class="cls-1" d="M.71,17.24H2.93a.42.42,0,0,1,.42.42v1.93H21.5V12.34a.42.42,0,0,1,.42-.42h2.22a.42.42,0,0,1,.42.42V24.58a.42.42,0,0,1-.42.42H21.92a.42.42,0,0,1-.42-.42V22.65H3.35v1.93a.42.42,0,0,1-.42.42H.71a.42.42,0,0,1-.42-.42V17.67A.42.42,0,0,1,.71,17.24Z"/><circle class="cls-1" cx="18.38" cy="16.42" r="2.27"/><path class="cls-1" d="M14.93,18.69H4.77a.4.4,0,0,1-.38-.42V16.42h0a2.22,2.22,0,0,1,1.69-2.23h8.85a.4.4,0,0,1,.38.42v3.66A.4.4,0,0,1,14.93,18.69Z"/><path class="cls-1" d="M10,11c.63,0,1.13.29,1.17.94s-.42.92-1,1.08a6.15,6.15,0,0,1-5.57-.63,1.67,1.67,0,0,0-.34-.12v3.16a.73.73,0,0,1-.72.73,13.21,13.21,0,0,1-2.76-.05c-.46-.09-.57-.63-.64-1A12.44,12.44,0,0,1,.69,8.89a3.71,3.71,0,0,1,1-1.58,2,2,0,0,1,3.22.9c.23.69.42,1.39.66,2.07A1.24,1.24,0,0,0,6,11a4.29,4.29,0,0,0,4.07,0Z"/><circle class="cls-1" cx="10.54" cy="4.41" r="0.68"/><circle class="cls-1" cx="11.37" cy="2.59" r="0.89"/><circle class="cls-1" cx="13.16" cy="4.03" r="0.96"/><path class="cls-1" d="M5.4,2.26A2.34,2.34,0,0,0,5,2.3,2.41,2.41,0,0,0,3,4.68,2.38,2.38,0,0,0,5.45,7.11a2.14,2.14,0,0,0,1.17-.33A2.51,2.51,0,0,0,7.83,4.69,2.47,2.47,0,0,0,5.4,2.26Z"/><polygon class="cls-1" points="10.5 13.16 11.38 12.49 11.87 13.91 11.77 14.02 10.5 13.16"/><path class="cls-1" d="M12.51,6.29a2,2,0,0,0-.22.47c-.19,1.32-.25,1.4-1.41,1.56C10,8.46,9.61,9,9.58,10a2.85,2.85,0,0,1-.09.83,1.19,1.19,0,0,0-.09.55h.92a3.88,3.88,0,0,1-.45-1,1.35,1.35,0,0,1,1.25-1.8A1.66,1.66,0,0,0,12.51,6.29Z"/><path class="cls-1" d="M16,0H6a.58.58,0,0,0-.58.58v1a3.24,3.24,0,0,1,2.48,5.1H16a.58.58,0,0,0,.58-.58V.58A.58.58,0,0,0,16,0ZM7.11,1.3H6.38V.38h.73Zm1.29,0H7.68V.38h.73Zm1.29,0H9V.38H9.7ZM10.84,4.9a.68.68,0,1,1,.68-.68A.68.68,0,0,1,10.84,4.9Zm.83-1.61a.89.89,0,1,1,.89-.89A.89.89,0,0,1,11.67,3.29Zm1.79,1.52a1,1,0,1,1,1-1A1,1,0,0,1,13.46,4.81Z"/></g></g></svg>