<svg xmlns="http://www.w3.org/2000/svg" viewBox="0 0 17.16 14.17"><defs><style>.cls-1{fill:#375f99;}</style></defs><title>sua_hover</title><g id="Layer_2" data-name="Layer 2"><g id="Layer_1-2" data-name="Layer 1"><path class="cls-1" d="M7.14,7.87,9.24,10l-.05.1-2.62.53L7.08,8Zm.37-.39L9.62,9.6l5.94-5.94L13.45,1.55ZM16.84.94,16.21.31a1,1,0,0,0-1.47,0l-.89.89L16,3.3l.89-.89a1,1,0,0,0,0-1.47Zm0,0"/><path class="cls-1" d="M10.56,10.1v.44a2.4,2.4,0,0,1-2.39,2.39H3.63a2.4,2.4,0,0,1-2.39-2.39V3.63A2.4,2.4,0,0,1,3.63,1.25H8.17a2.4,2.4,0,0,1,2.2,1.46l1.3-1.1A2.4,2.4,0,0,0,9.41,0h-7A2.4,2.4,0,0,0,0,2.39v9.39a2.4,2.4,0,0,0,2.39,2.39h7a2.4,2.4,0,0,0,2.39-2.39V9.15Z"/></g></g></svg>