<svg xmlns="http://www.w3.org/2000/svg" viewBox="0 0 14.96 14.17"><defs><style>.cls-1{fill:#636464;}</style></defs><title>tham_so_he_thong</title><g id="Layer_2" data-name="Layer 2"><g id="Layer_1-2" data-name="Layer 1"><path class="cls-1" d="M3.62,6.1a2.17,2.17,0,1,1,4.2.77h2.79a4.9,4.9,0,0,0,0-1.77l.87-.77a.4.4,0,0,0,.08-.5l-.89-1.54a.4.4,0,0,0-.48-.18L9,2.47a4.89,4.89,0,0,0-1.74-1L7.07.32A.4.4,0,0,0,6.67,0H4.9a.4.4,0,0,0-.4.32L4.26,1.46a4.87,4.87,0,0,0-1.73,1L1.42,2.1a.4.4,0,0,0-.48.18L.05,3.82a.4.4,0,0,0,.08.5L1,5.1a4.9,4.9,0,0,0,0,2l-.87.77a.4.4,0,0,0-.08.5L.94,9.93a.4.4,0,0,0,.48.18l1.11-.37a4.89,4.89,0,0,0,1.74,1l.23,1.14a.41.41,0,0,0,.4.32H6.27v-4A2.17,2.17,0,0,1,3.62,6.1Zm0,0"/><path class="cls-1" d="M14.59,7.44H7.21a.36.36,0,0,0-.36.36v6a.36.36,0,0,0,.36.36h7.39a.36.36,0,0,0,.36-.36v-6a.36.36,0,0,0-.36-.36Zm-.68,5.72h-6V9.55h6Zm0,0"/><path class="cls-1" d="M10.2,12.41a.44.44,0,0,0,.62,0l1.58-1.58a.44.44,0,1,0-.62-.62l-1.27,1.27L10,11a.44.44,0,0,0-.62.62Zm0,0"/></g></g></svg>