<svg xmlns="http://www.w3.org/2000/svg" viewBox="0 0 24 24"><defs><style>.cls-1{fill:#fff;}.cls-2{fill:#129f5b;}</style></defs><title>thaydoimk</title><g id="Layer_2" data-name="Layer 2"><g id="Layer_1-2" data-name="Layer 1"><circle class="cls-1" cx="12" cy="12" r="12"/><path class="cls-2" d="M14.25,10A14.14,14.14,0,0,0,14.12,8a2.15,2.15,0,0,0-2.3-1.64A2.21,2.21,0,0,0,9.87,8.16c0,.18,0,.37-.07.56a.29.29,0,0,1-.32.3h-1a.31.31,0,0,1-.33-.33A3.88,3.88,0,0,1,15.85,8a15.6,15.6,0,0,1,.07,1.66c0,.07,0,.15,0,.23a1.05,1.05,0,0,1,1,.72,1.37,1.37,0,0,1,.07.43q0,2.75,0,5.51a1,1,0,0,1-1.12,1.13H8.08a1,1,0,0,1-1-.75,1.09,1.09,0,0,1,0-.3Q7,13.83,7,11a1,1,0,0,1,1.05-1h6.18Zm-2.69,5c0,.18,0,.35,0,.53A.47.47,0,0,0,12,16a.46.46,0,0,0,.48-.51c0-.37,0-.74,0-1.12a.41.41,0,0,1,.16-.36,1,1,0,0,0,.36-.74,1,1,0,0,0-.67-.91,1,1,0,0,0-1.13.43.9.9,0,0,0,.08,1.13.75.75,0,0,1,.25.67C11.55,14.71,11.56,14.83,11.56,14.95Z"/></g></g></svg>