<svg xmlns="http://www.w3.org/2000/svg" viewBox="0 0 26.38 25"><defs><style>.cls-1{fill:#129f5b;}</style></defs><title>thiet_lap_ht_active</title><g id="Layer_2" data-name="Layer 2"><g id="Layer_1-2" data-name="Layer 1"><path class="cls-1" d="M6.38,10.77a3.83,3.83,0,1,1,7.41,1.36h4.93A8.64,8.64,0,0,0,18.63,9l1.53-1.36a.71.71,0,0,0,.14-.89L18.74,4a.71.71,0,0,0-.84-.32l-2,.65a8.63,8.63,0,0,0-3.06-1.77l-.41-2a.71.71,0,0,0-.7-.57H8.63a.71.71,0,0,0-.7.57l-.41,2A8.6,8.6,0,0,0,4.46,4.35l-2-.65A.71.71,0,0,0,1.66,4L.1,6.74a.71.71,0,0,0,.14.89L1.78,9a8.64,8.64,0,0,0,0,3.54L.24,13.9a.71.71,0,0,0-.14.89l1.57,2.72a.71.71,0,0,0,.84.32l2-.65A8.62,8.62,0,0,0,7.52,19l.41,2a.72.72,0,0,0,.7.57h2.43v-7a3.83,3.83,0,0,1-4.69-3.73Zm0,0"/><path class="cls-1" d="M25.74,13.13h-13a.64.64,0,0,0-.64.64V24.36a.64.64,0,0,0,.64.64h13a.64.64,0,0,0,.64-.64V13.77a.64.64,0,0,0-.64-.64ZM24.53,23.22H13.92V16.84H24.53Zm0,0"/><path class="cls-1" d="M18,21.89a.77.77,0,0,0,1.09,0l2.79-2.79A.77.77,0,1,0,20.79,18l-2.24,2.24-.87-.87a.77.77,0,0,0-1.09,1.09Zm0,0"/></g></g></svg>