<svg xmlns="http://www.w3.org/2000/svg" viewBox="0 0 70.33 70.33"><defs><style>.cls-1{fill:#fff;}</style></defs><title>tiep_nhan</title><g id="Layer_2" data-name="Layer 2"><g id="Layer_1-2" data-name="Layer 1"><path class="cls-1" d="M0,63.19,3.16,59.5c.42-.49.85-1,1.22-1.48a2.6,2.6,0,0,1,2.31-1.07c5.35,0,10.7,0,16.06,0H62.69c.25,0,.5,0,.75,0a2.93,2.93,0,0,1,2.71,1.26c1.17,1.55,2.46,3,3.71,4.5a6.54,6.54,0,0,0,.48.47v4.26a4,4,0,0,1-2.88,2.88H2.88A3.94,3.94,0,0,1,0,67.45Zm54.52,2.75H44c-.34,0-.69,0-1,0s-.82.37-.76.8a1.91,1.91,0,0,0,.66.91c.11.11.4,0,.6,0H63.75c.73,0,1.47,0,2.2,0a.88.88,0,0,0,0-1.75H54.52ZM5.27,68.56a1.74,1.74,0,1,0,0-3.49,1.74,1.74,0,0,0,0,3.49Z"/><path class="cls-1" d="M31.44,17.58l1.22,7H12.35V54.44a4.69,4.69,0,0,1-.53.07c-1.58,0-3.16,0-4.74,0A1.6,1.6,0,0,1,5.32,53a3.69,3.69,0,0,1-.06-.68q0-13.7,0-27.4a7,7,0,0,1,7.4-7.37H31.44Z"/><path class="cls-1" d="M65.07,34.75c0,2.5,0,4.87,0,7.25,0,3-.06,6.09,0,9.13.08,3.49-.7,3.46-3.43,3.39-1.18,0-2.37,0-3.59,0,0-.27,0-.47,0-.67q0-7.62,0-15.25c0-.36,0-.63.47-.75a20.21,20.21,0,0,0,6.24-2.92A3.89,3.89,0,0,1,65.07,34.75Z"/><path class="cls-1" d="M69.82,13.4A17.51,17.51,0,0,0,54.72.12,3.51,3.51,0,0,1,54.26,0h-3a3.39,3.39,0,0,1-.46.12,17.57,17.57,0,1,0,18.62,23c.44-1.31.63-2.71.94-4.06v-3C70.16,15.18,70,14.28,69.82,13.4Zm-8.53,6.73a2.72,2.72,0,0,1-.5.85c-2,2.33-4.05,4.64-6.08,7a2.35,2.35,0,0,1-2.61.86,2.67,2.67,0,0,1-1.15-.72c-2.13-2.38-4.23-4.8-6.33-7.21a1.9,1.9,0,0,1-.5-1.49A1.35,1.35,0,0,1,45.5,18.1c.83,0,1.67,0,2.5,0h.47c0-1.62,0-3.18,0-4.75,0-1.39,0-2.77,0-4.16a2.85,2.85,0,0,1,2.94-2.94h2.66a2.83,2.83,0,0,1,2.94,3c0,2.72,0,5.44,0,8.16v.71h.62c.74,0,1.49,0,2.23,0A1.45,1.45,0,0,1,61.28,20.13Z"/></g></g></svg>