<?xml version="1.0" encoding="utf-8"?>
<!-- Generator: Adobe Illustrator 21.0.2, SVG Export Plug-In . SVG Version: 6.00 Build 0)  -->
<svg version="1.1" id="Layer_1" xmlns="http://www.w3.org/2000/svg" xmlns:xlink="http://www.w3.org/1999/xlink" x="0px" y="0px"
	 viewBox="0 0 84.6 67.6" style="enable-background:new 0 0 84.6 67.6;" xml:space="preserve">
<style type="text/css">
	.st0{fill:#FFFFFF;}
</style>
<g>
	<path class="st0" d="M27.6,59c0,4.8-4.3,8.5-9.3,7.6c-3-0.6-5.4-3-6-6c-1-4.9,2.8-9.2,7.6-9.2C24.2,51.3,27.6,54.7,27.6,59L27.6,59
		z M27.6,59"/>
	<path class="st0" d="M66.1,59c0,4.8-4.3,8.5-9.2,7.6c-3-0.6-5.4-3-6-6c-1-4.9,2.8-9.2,7.6-9.2C62.6,51.3,66.1,54.7,66.1,59L66.1,59
		z M66.1,59"/>
	<path class="st0" d="M53.7,4.5c0-2.3-2.1-4.2-4.5-3.8c-1.9,0.3-3.2,2-3.2,3.9v3.4h7.6V4.5z M53.7,4.5"/>
	<path class="st0" d="M72.9,41.9L62.1,12.6c-0.4-1.2-1.6-1.9-2.8-1.9H8.8c-3.5,0-6.3,2.8-6.3,6.3v37c0,2.8,2.3,5.1,5.1,5.1H9V59
		c0-6.9,6.4-12.3,13.6-10.6c4.9,1.2,8.2,5.7,8.2,10.7v0c0,0,0,0,0,0h16.7V59c0-6.9,6.4-12.3,13.6-10.6c4.8,1.2,8.2,5.7,8.2,10.7v0
		c0,0,0,0,0,0H79c1.4,0,2.4-1.1,2.4-2.4v-6.3C81.4,45.7,72.9,41.9,72.9,41.9L72.9,41.9z M29.1,29.8h-3.8v3.6c0,1.4-1,2.7-2.4,3
		c-1.8,0.3-3.4-1.1-3.4-2.8v-3.8H16c-1.4,0-2.7-1-3-2.4c-0.3-1.8,1.1-3.4,2.8-3.4h3.8v-3.7c0-1.4,1-2.7,2.4-3
		c1.8-0.3,3.4,1.1,3.4,2.8V24H29c1.6,0,2.9,1.3,2.9,2.9C32,28.5,30.7,29.8,29.1,29.8L29.1,29.8z M46.1,31.1V17.3h13.3L64.1,31
		L46.1,31.1L46.1,31.1z M46.1,31.1"/>
</g>
</svg>
