<svg xmlns="http://www.w3.org/2000/svg" xmlns:xlink="http://www.w3.org/1999/xlink" viewBox="0 0 291.01 103.37"><defs><style>.cls-1{fill:#fff;}.cls-10,.cls-2,.cls-3,.cls-4,.cls-5,.cls-6,.cls-7,.cls-8,.cls-9{stroke:#0b3675;stroke-width:0.48px;}.cls-10,.cls-16,.cls-2,.cls-3,.cls-4,.cls-5,.cls-6,.cls-7,.cls-8,.cls-9{stroke-miterlimit:10;}.cls-2{fill:url(#linear-gradient);}.cls-3{fill:url(#linear-gradient-2);}.cls-4{fill:url(#linear-gradient-3);}.cls-5{fill:url(#linear-gradient-4);}.cls-6{fill:url(#linear-gradient-5);}.cls-7{fill:url(#linear-gradient-6);}.cls-8{fill:url(#linear-gradient-7);}.cls-9{fill:url(#linear-gradient-8);}.cls-10{fill:url(#linear-gradient-9);}.cls-11{fill:#0b3675;}.cls-12{fill:#114f99;}.cls-13{fill:url(#linear-gradient-10);}.cls-14{fill:url(#linear-gradient-11);}.cls-15{fill:url(#linear-gradient-12);}.cls-16{fill:none;stroke:url(#linear-gradient-13);}.cls-17{fill:url(#linear-gradient-14);}</style><linearGradient id="linear-gradient" x1="136.15" y1="56.61" x2="115.11" y2="43.17" gradientUnits="userSpaceOnUse"><stop offset="0" stop-color="#c18e1b"/><stop offset="0.64" stop-color="#fbf2aa"/><stop offset="1" stop-color="#f8ce30"/></linearGradient><linearGradient id="linear-gradient-2" x1="155.71" y1="52.84" x2="135.51" y2="39.93" xlink:href="#linear-gradient"/><linearGradient id="linear-gradient-3" x1="181.78" y1="58.08" x2="159.13" y2="43.62" xlink:href="#linear-gradient"/><linearGradient id="linear-gradient-4" x1="200.21" y1="56.69" x2="179.06" y2="43.18" xlink:href="#linear-gradient"/><linearGradient id="linear-gradient-5" x1="219.86" y1="56.69" x2="198.72" y2="43.18" xlink:href="#linear-gradient"/><linearGradient id="linear-gradient-6" x1="239.31" y1="58.75" x2="215.88" y2="43.78" xlink:href="#linear-gradient"/><linearGradient id="linear-gradient-7" x1="260.43" y1="56.61" x2="239.39" y2="43.17" xlink:href="#linear-gradient"/><linearGradient id="linear-gradient-8" x1="275.77" y1="54.25" x2="257.61" y2="42.65" xlink:href="#linear-gradient"/><linearGradient id="linear-gradient-9" x1="297.08" y1="54.23" x2="276.51" y2="41.09" xlink:href="#linear-gradient"/><linearGradient id="linear-gradient-10" x1="55.69" y1="75.83" x2="108.34" y2="75.83" gradientTransform="matrix(1, 0, 0, 1, -2.92, 4.18)" xlink:href="#linear-gradient"/><linearGradient id="linear-gradient-11" x1="29.29" y1="48.47" x2="72.71" y2="48.47" xlink:href="#linear-gradient"/><linearGradient id="linear-gradient-12" x1="0.87" y1="51.51" x2="97.8" y2="51.51" xlink:href="#linear-gradient"/><linearGradient id="linear-gradient-13" x1="36.87" y1="52.62" x2="65.13" y2="44.28" xlink:href="#linear-gradient"/><linearGradient id="linear-gradient-14" x1="392.17" y1="-719.99" x2="419.84" y2="-719.99" gradientTransform="translate(-745.2 270.47) rotate(45)" xlink:href="#linear-gradient"/></defs><title>tieu_de</title><g id="Layer_2" data-name="Layer 2"><g id="Layer_1-2" data-name="Layer 1"><path class="cls-1" d="M128.53,88.29V80.87h-8.18v7.42h-1.59V72.48h1.59v7h8.18v-7h1.58V88.29Z"/><path class="cls-1" d="M143,86.76a6,6,0,0,1-8.6,0,5.78,5.78,0,0,1-1.81-4.26,6.05,6.05,0,0,1,1.77-4.37,5.78,5.78,0,0,1,4.32-1.85A6.12,6.12,0,0,1,143,86.76Zm-1-7.7a4.37,4.37,0,0,0-3.27-1.41,4.32,4.32,0,0,0-3.31,1.46,4.82,4.82,0,0,0-1.31,3.39,4.62,4.62,0,0,0,1.35,3.32,4.53,4.53,0,0,0,6.59,0,4.87,4.87,0,0,0,1.29-3.41A4.62,4.62,0,0,0,142,79.06Zm-1.39-4.42-1.84-1.55-1.88,1.55h-2l3.1-2.67h1.41l3.06,2.67ZM138,92.31v-2.7h1.59v2.7Z"/><path class="cls-1" d="M164.6,84.85a6.43,6.43,0,0,1-10.24,2,5.81,5.81,0,0,1-1.85-4.36,5.87,5.87,0,0,1,1.86-4.37,6.14,6.14,0,0,1,4.42-1.78,6.3,6.3,0,0,1,3.5,1,5.89,5.89,0,0,1,2.32,2.82H163a4.34,4.34,0,0,0-4.12-2.48A4.68,4.68,0,0,0,155.42,79,4.54,4.54,0,0,0,154,82.42a4.63,4.63,0,0,0,1.4,3.42,4.68,4.68,0,0,0,3.43,1.39A4.28,4.28,0,0,0,163,84.85Z"/><path class="cls-1" d="M175.57,88.29V81.87a5.73,5.73,0,0,0-.25-1.73,3.32,3.32,0,0,0-.87-1.48,3.72,3.72,0,0,0-5.08,0,3.29,3.29,0,0,0-.86,1.44,5.56,5.56,0,0,0-.24,1.66v6.54h-1.49V72.48h1.49V78.1h0a4,4,0,0,1,3.6-1.79,4.83,4.83,0,0,1,3.83,1.56,5.85,5.85,0,0,1,1.31,4v6.43Z"/><path class="cls-1" d="M179.88,75.18v-2.7h1.49v2.7Zm0,13.11V76.61h1.49V88.29Z"/><path class="cls-1" d="M195.74,83H185.1a4.23,4.23,0,0,0,1.45,3,4.43,4.43,0,0,0,3.09,1.25,4.6,4.6,0,0,0,2.52-.73,4,4,0,0,0,1.66-2h1.59a6,6,0,0,1-2.23,3,6.09,6.09,0,0,1-9.61-5,6,6,0,0,1,1.77-4.33,6,6,0,0,1,8.64,0,6.11,6.11,0,0,1,1.78,4.39Zm-1.51-1.35a4.78,4.78,0,0,0-1.55-2.86,4.56,4.56,0,0,0-6,0,4.73,4.73,0,0,0-1.54,2.86Zm-2.65-7-1.84-1.55-1.88,1.55h-2L189,72h1.41l3.06,2.67Zm.79-1.56-.7-1.23,4.25-2.34.69,1.28Z"/><path class="cls-1" d="M206.79,88.29V86.48h0a3.4,3.4,0,0,1-1.55,1.59,4.62,4.62,0,0,1-2.19.51,4.82,4.82,0,0,1-4-1.75,4.54,4.54,0,0,1-.82-1.78,8.83,8.83,0,0,1-.2-2V76.61h1.49V83a5,5,0,0,0,.77,3A3.23,3.23,0,0,0,203,87.23a3.47,3.47,0,0,0,2.48-.95,3.66,3.66,0,0,0,1-1.61,6.49,6.49,0,0,0,.23-1.89V76.61h1.49V88.29Z"/><path class="cls-1" d="M227.25,88.29V86.24h0a5.13,5.13,0,0,1-4.55,2.34,6.15,6.15,0,0,1-4.46-1.76,6.15,6.15,0,0,1,0-8.76,6.19,6.19,0,0,1,4.43-1.74,5.17,5.17,0,0,1,4.55,2.31h0V72.48h1.5V88.29ZM226,79.08a4.44,4.44,0,0,0-3.34-1.43A4.62,4.62,0,0,0,219.23,79a4.72,4.72,0,0,0-1.36,3.45,4.59,4.59,0,0,0,1.37,3.4,4.68,4.68,0,0,0,3.42,1.35A4.47,4.47,0,0,0,226,85.82a4.65,4.65,0,0,0,1.35-3.36A4.72,4.72,0,0,0,226,79.08Zm4.09-5v1.46h-6.51V74.08Z"/><path class="cls-1" d="M231.57,75.18v-2.7h1.49v2.7Zm0,13.11V76.61h1.49V88.29Z"/><path class="cls-1" d="M247.43,83H236.79a4.23,4.23,0,0,0,1.45,3,4.43,4.43,0,0,0,3.09,1.25,4.6,4.6,0,0,0,2.52-.73,4,4,0,0,0,1.66-2h1.59a6,6,0,0,1-2.23,3,6.09,6.09,0,0,1-9.61-5A6,6,0,0,1,237,78.13a6,6,0,0,1,8.64,0,6.11,6.11,0,0,1,1.78,4.39Zm-1.51-1.35a4.78,4.78,0,0,0-1.55-2.86,4.56,4.56,0,0,0-6,0,4.73,4.73,0,0,0-1.54,2.86Zm-2.65-7-1.84-1.55-1.88,1.55h-2L240.7,72h1.41l3.06,2.67Zm-2.7,17.67v-2.7h1.59v2.7Z"/><path class="cls-1" d="M258.51,88.29V81.87a5.7,5.7,0,0,0-.25-1.73,3.31,3.31,0,0,0-.87-1.48,3.72,3.72,0,0,0-5.08,0,3.29,3.29,0,0,0-.86,1.44,5.56,5.56,0,0,0-.24,1.66v6.54h-1.49V76.61h1.49V78.1h0a4,4,0,0,1,3.6-1.79,4.83,4.83,0,0,1,3.83,1.56,5.85,5.85,0,0,1,1.31,4v6.43Z"/><path class="cls-1" d="M271.53,78V88.29H270V78h-2.46V76.61H270V72.48h1.49v4.13h2.8V78Z"/><path class="cls-1" d="M286.07,78.34v10h-1.41V86.48h0a3.4,3.4,0,0,1-1.55,1.59,4.62,4.62,0,0,1-2.19.51,4.82,4.82,0,0,1-4-1.75A4.54,4.54,0,0,1,276,85a8.83,8.83,0,0,1-.2-2V76.61h1.49V83a5,5,0,0,0,.77,3,3.23,3.23,0,0,0,2.77,1.19,3.47,3.47,0,0,0,2.48-.95,3.66,3.66,0,0,0,1-1.61,6.49,6.49,0,0,0,.23-1.89V76.61h1.49V77l.05,0a1.09,1.09,0,0,0,.43-.74h-.64V74.29h1.84v1.94a2.75,2.75,0,0,1-.24.85,2,2,0,0,1-.42.57,3.68,3.68,0,0,1-.44.36l-.57.34Zm-3-5.09a2.13,2.13,0,0,1-.24.29l-.14.15-.43.42a3.62,3.62,0,0,0-.24.31,1.84,1.84,0,0,0-.22.91h-1.33V75a2,2,0,0,1,.29-1,2.57,2.57,0,0,1,.28-.38l.27-.27.28-.27.25-.29a.85.85,0,0,0,.17-.51.89.89,0,0,0-.27-.69.93.93,0,0,0-.64-.28.95.95,0,0,0-.91.79,5.43,5.43,0,0,0,0,.64H278.8v-.41a2,2,0,0,1,.7-1.5,2.27,2.27,0,0,1,1.6-.59,2.18,2.18,0,0,1,1.58.58,2,2,0,0,1,.65,1.48A1.73,1.73,0,0,1,283,73.25Z"/><path class="cls-2" d="M134.09,51H124v5.46a5.84,5.84,0,0,0,.36,2.53,1.61,1.61,0,0,0,1.3.47,1.44,1.44,0,0,0,1.25-.52,4.83,4.83,0,0,0,.4-2.48V52.61h6.81v2.86q0,5.16-1.92,7.21t-6.55,2q-4.59,0-6.53-2t-1.94-7.21V44.29q0-5.2,1.94-7.17T125.62,35q4.57,0,6.55,2t1.92,7.22ZM124,43.51v2.2h3.31v-2.2a5.59,5.59,0,0,0-.36-2.65,1.43,1.43,0,0,0-1.3-.55,1.4,1.4,0,0,0-1.3.55A5.77,5.77,0,0,0,124,43.51Z"/><path class="cls-3" d="M141.08,31.21h9.79q4.66,0,6.62,2.17t1.89,7.81q0,4.49-1.94,6.34t-6.67,1.84h-2.39V64.3h-7.31Zm7.07,12.56h1.33a3,3,0,0,0,2.13-.69,5.46,5.46,0,0,0,.57-2.81,4,4,0,0,0-.57-2.46,2.3,2.3,0,0,0-2-.78h-1.47Z"/><path class="cls-4" d="M161.72,44.15V42.25a7,7,0,0,1,1.94-5.42q1.94-1.8,6-1.8,4.28,0,6.2,2t2,6.29v21h-6.48V62.74a7.64,7.64,0,0,1-1.94,1.56,6.73,6.73,0,0,1-2.44.47,5.42,5.42,0,0,1-4.3-1.73,7.45,7.45,0,0,1-1.49-5V53.75a7.69,7.69,0,0,1,1.53-5.16Q164.21,46.82,171,44V43a4.31,4.31,0,0,0-.33-2.13,1.23,1.23,0,0,0-1.21-.55,1.29,1.29,0,0,0-1.21.55,3.76,3.76,0,0,0-.36,2.13v1.16Zm9.25,5a7.2,7.2,0,0,0-2.36,2.08,6.43,6.43,0,0,0-.73,3.5v1.68a5.56,5.56,0,0,0,.36,2.53,1.34,1.34,0,0,0,1.21.47,1.49,1.49,0,0,0,1.21-.47,7.71,7.71,0,0,0,.33-2.53Z"/><path class="cls-5" d="M197.91,44.53h-6.7V41.88a1.52,1.52,0,0,0-.47-1.11,1.58,1.58,0,0,0-1.21-.45,1.52,1.52,0,0,0-1.16.45,2,2,0,0,0-.36,1.35q0,1.44,3.29,3.69.87.64,1.89,1.35a13.34,13.34,0,0,1,3.88,4.16,11,11,0,0,1,1.16,5.08q0,4.28-2,6.29-1.87,2-6.34,2-4.85,0-6.79-1.92T181.14,56V52.43H188v4a6,6,0,0,0,.33,2.53,1.75,1.75,0,0,0,2.53-.14,5,5,0,0,0,.38-2,5.73,5.73,0,0,0-.47-2.58A7.29,7.29,0,0,0,188.67,52a19.09,19.09,0,0,0-1.56-1.16q-5.87-4.49-5.87-8.4,0-3.74,2.06-5.56T189.54,35q4.47,0,6.39,1.85t2,5.77Z"/><path class="cls-6" d="M217.57,44.53h-6.7V41.88a1.52,1.52,0,0,0-.47-1.11,1.58,1.58,0,0,0-1.21-.45,1.52,1.52,0,0,0-1.16.45,2,2,0,0,0-.36,1.35q0,1.44,3.29,3.69.87.64,1.89,1.35a13.34,13.34,0,0,1,3.88,4.16,11,11,0,0,1,1.16,5.08q0,4.28-2,6.29-1.87,2-6.34,2-4.85,0-6.79-1.92T200.8,56V52.43h6.84v4A6,6,0,0,0,208,59a1.75,1.75,0,0,0,2.53-.14,5,5,0,0,0,.38-2,5.73,5.73,0,0,0-.47-2.58A7.29,7.29,0,0,0,208.32,52a19.09,19.09,0,0,0-1.56-1.16q-5.87-4.49-5.87-8.4,0-3.74,2.06-5.56T209.2,35q4.47,0,6.39,1.85t2,5.77Z"/><path class="cls-7" d="M221.19,35.47h6.43V37a5.8,5.8,0,0,1,2.11-1.51,6.3,6.3,0,0,1,2.65-.47,4.68,4.68,0,0,1,4.3,2q1.37,2,1.37,6.84V54.77q0,6.13-1.37,8.09-1.23,1.8-4.68,1.87a5.83,5.83,0,0,1-2.32-.43A3.88,3.88,0,0,1,228,63.09v4.54h-6.84Zm9.93,21V43.32a5.13,5.13,0,0,0-.33-2.46,1.32,1.32,0,0,0-1.23-.55,1.29,1.29,0,0,0-1.21.55,6.63,6.63,0,0,0-.33,2.46V56.45a6,6,0,0,0,.33,2.53,1.33,1.33,0,0,0,1.21.47,1.57,1.57,0,0,0,1.23-.47A5.74,5.74,0,0,0,231.12,56.45Z"/><path class="cls-8" d="M241.44,44.29q0-5.2,1.94-7.17T249.9,35q4.57,0,6.55,2t1.92,7.22V55.48q0,5.16-1.92,7.21t-6.55,2q-4.59,0-6.53-2t-1.94-7.21Zm10,12.16V43.32a4.72,4.72,0,0,0-.36-2.46,1.33,1.33,0,0,0-1.21-.55,1.29,1.29,0,0,0-1.21.55,6.63,6.63,0,0,0-.33,2.46V56.45A6,6,0,0,0,248.7,59a1.33,1.33,0,0,0,1.21.47,1.49,1.49,0,0,0,1.21-.47A5.28,5.28,0,0,0,251.46,56.45Z"/><path class="cls-9" d="M262.2,35.47h6.43V37a5.15,5.15,0,0,1,1.94-1.4,5.62,5.62,0,0,1,2.48-.5q3.17,0,4.54,1.94a6.77,6.77,0,0,1,1,2.63,21.29,21.29,0,0,1,.35,4.21v5.32h-6.84V43.32a5.13,5.13,0,0,0-.33-2.46,1.32,1.32,0,0,0-1.23-.55,1.29,1.29,0,0,0-1.21.55,6.63,6.63,0,0,0-.33,2.46v21H262.2Z"/><path class="cls-10" d="M280.55,35.47h1.7V32.08l6.81-1.3v4.68h1.7v5.3h-1.7V57.32a2.19,2.19,0,0,0,.35,1.51,2.29,2.29,0,0,0,1.35.28v5a9.25,9.25,0,0,1-1.75.52,7.81,7.81,0,0,1-1.89.21q-2.74,0-3.81-1.18t-1.06-5.18V40.76h-1.7Z"/><path class="cls-11" d="M23.22,12.2H72.8A14.68,14.68,0,0,1,87.47,26.88V72.94A14.68,14.68,0,0,1,72.8,87.62H11.68a0,0,0,0,1,0,0V23.75A11.54,11.54,0,0,1,23.22,12.2Z" transform="translate(-20.77 49.55) rotate(-44.9)"/><path class="cls-12" d="M23.6,9.95H73.12A14.71,14.71,0,0,1,87.83,24.65V71A14.71,14.71,0,0,1,73.12,85.74H12a0,0,0,0,1,0,0V21.51A11.57,11.57,0,0,1,23.6,9.95Z" transform="translate(-19.21 49.2) rotate(-44.9)"/><path class="cls-13" d="M52.6,101.27l49.48-25.89A6.5,6.5,0,0,0,103.23,65l-6.52-6Z"/><path class="cls-11" d="M52.69,101l48.66-27a6.31,6.31,0,0,0,1.15-10.22L95.92,58Z"/><path class="cls-14" d="M35.65,33.12a21.71,21.71,0,1,0,30.7,0A21.57,21.57,0,0,0,35.65,33.12ZM65.55,63a20.57,20.57,0,1,1,6-14.55A20.59,20.59,0,0,1,65.55,63Z"/><path class="cls-15" d="M93.42,37.87,60.69,5A15,15,0,0,0,39.47,5l-35.08,35a11.79,11.79,0,0,0,0,16.78L18.24,70.64l.1.14L29.42,81.87l-.12-.13L49.7,102.21l.21.21L93.39,59.09a15,15,0,0,0,0-21.22Zm-20.81-.48A24.33,24.33,0,0,1,39.76,70.24l-.37-.2L29.18,80.26l-9.47-9.47L29.87,60.63l-.2-.37a24.32,24.32,0,0,1,33-33l.37.2,9.19-9.19,9.47,9.47L72.41,37Z"/><path class="cls-12" d="M50,102.86,4,56.79C-.31,52.72-1.41,46.75,2,41.84a9.76,9.76,0,0,1,1-1.36l36.24-36a15.43,15.43,0,0,1,21.75,0l33,33a15.32,15.32,0,0,1,0,21.69ZM50.07.6A14.36,14.36,0,0,0,39.9,4.79L4.16,40.41a11.2,11.2,0,0,0,0,15.85L49.92,102.2,93.6,58.67a14.42,14.42,0,0,0,0-20.37L60.28,4.83A14.36,14.36,0,0,0,50.07.6Z"/><path class="cls-11" d="M58.81,53.57A9.13,9.13,0,0,1,51,57.9a9.52,9.52,0,0,1-9.45-8.31H63c0-.39.06-.78.06-1.18A12,12,0,0,0,39,48.4,12.2,12.2,0,0,0,51,60.59c6.37,0,10.84-3.33,12.48-6.93ZM51,38.9a9.52,9.52,0,0,1,9.29,7.38H41.71A9.52,9.52,0,0,1,51,38.9Z"/><path class="cls-12" d="M62.89,26.5A24.89,24.89,0,0,0,29.16,60.23L18.43,71,28.7,81.24,39.49,70.45A24.9,24.9,0,0,0,73.11,36.83L82.9,27,72.63,16.76ZM63.56,61a17.77,17.77,0,1,1,0-25.12A17.77,17.77,0,0,1,63.56,61Z"/><path class="cls-16" d="M51,62.69A14.23,14.23,0,1,1,65.23,48.45c0,.45,0,.92-.07,1.4l0,.4H40.69a10.47,10.47,0,0,0,18.67,4.51l.14-.18,4.32.09-.35.64A14.24,14.24,0,0,1,51,62.69ZM51,35.1A13.35,13.35,0,1,0,62.31,55.53l-2.39-.05A11.26,11.26,0,0,1,51,59.82a11.37,11.37,0,0,1-11.27-9.95l-.06-.5H64.32c0-.31,0-.62,0-.92A13.36,13.36,0,0,0,51,35.1ZM62.2,46.46H39.81l.12-.54a11.35,11.35,0,0,1,22.14,0Zm-21.27-.88H61.07a10.47,10.47,0,0,0-20.14,0Z"/><path class="cls-17" d="M59.74,55.06a10.95,10.95,0,0,1-19.6-5.24H64.77c0-.45.07-.9.07-1.37a13.86,13.86,0,1,0-1.72,6.68ZM51,37.49A11,11,0,0,1,61.68,46H40.33A11,11,0,0,1,51,37.49Z"/></g></g></svg>