<svg xmlns="http://www.w3.org/2000/svg" viewBox="0 0 65.62 65"><defs><style>.cls-1{fill:#fff;}</style></defs><title>to_khai</title><g id="Layer_2" data-name="Layer 2"><g id="Layer_1-2" data-name="Layer 1"><path class="cls-1" d="M52.36,65H40.75c-1.31,0-1.57-.3-1.38-1.61A13,13,0,0,1,49.95,52,13.17,13.17,0,0,1,65.6,63.6c.1,1-.25,1.39-1.31,1.39Z"/><path class="cls-1" d="M59.37,41.75a7,7,0,1,1-7-7A7,7,0,0,1,59.37,41.75Z"/><path class="cls-1" d="M51.44,30.54V6.49A6.51,6.51,0,0,0,44.95,0H6.49A6.51,6.51,0,0,0,0,6.49V50.39a6.49,6.49,0,0,0,1.83,4.51L9.4,62.73a6.49,6.49,0,0,0,4.66,2H35a7.51,7.51,0,0,1,.05-1.92,17.34,17.34,0,0,1,9.1-13.3,11.23,11.23,0,0,1,7.26-19ZM15.86,58.2a1.28,1.28,0,0,1-.46,1L4.92,48.51a1.28,1.28,0,0,1,1-.46l8.76.09a1.3,1.3,0,0,1,1.28,1.31Zm24.3-23.54H11.38a2.7,2.7,0,1,1,0-5.41H40.16a2.7,2.7,0,0,1,0,5.41Zm0-10.88H11.38a2.7,2.7,0,1,1,0-5.41H40.16a2.7,2.7,0,0,1,0,5.41Zm0-10.88H11.38a2.7,2.7,0,1,1,0-5.41H40.16a2.7,2.7,0,0,1,0,5.41Z"/></g></g></svg>