<svg xmlns="http://www.w3.org/2000/svg" viewBox="0 0 26 26"><defs><style>.cls-1{fill:#fff;}.cls-2{fill:none;}</style></defs><title>trungtamluutru</title><g id="Layer_2" data-name="Layer 2"><g id="Layer_1-2" data-name="Layer 1"><path class="cls-1" d="M20.36,18.22H5.09a2,2,0,0,0,0,4H20.36a2,2,0,1,0,0-4Zm-1,2.93a.86.86,0,1,1,.86-.86A.86.86,0,0,1,19.34,21.15Z"/><path class="cls-1" d="M21.54,15.22h-.06l-5.19,0h-7c-2.17,0-3.69-1.35-3.69-3.28a3.06,3.06,0,0,1,.59-1.81H5.51a3.24,3.24,0,0,0-3.34,3.1v3.55a3,3,0,0,0,.8,2,3,3,0,0,1,2.7-1.61H19.94a3,3,0,0,1,2.64,1.5,2.94,2.94,0,0,0,.7-1.89V14.92A4.78,4.78,0,0,1,21.54,15.22Z"/><path class="cls-1" d="M20.65,14.19H20.6c-2.42,0-4.88,0-7.26,0h-3.1a2.75,2.75,0,0,1-3-2.69A2.55,2.55,0,0,1,8,9.67,3.22,3.22,0,0,1,9.78,8.8a2.72,2.72,0,0,1,3.15-2.59,4.76,4.76,0,0,1,2.82-2.26,4.52,4.52,0,0,1,2.9.09,4.81,4.81,0,0,1,3.08,4.78,3,3,0,0,1,2.05,1.93l0,.1V12l0,.09A3,3,0,0,1,20.65,14.19Zm-4.49-1.12,4.45,0a2,2,0,0,0,2.13-1.26v-.76a1.85,1.85,0,0,0-1.61-1.24l-.55,0,0-.55a3.8,3.8,0,0,0-2.34-4.17A3.44,3.44,0,0,0,16.06,5a3.75,3.75,0,0,0-2.35,2.08l-.2.41-.44-.13a1.63,1.63,0,0,0-1.63.31,1.77,1.77,0,0,0-.55,1.6l0,.59h-.59a2.21,2.21,0,0,0-1.59.59,1.44,1.44,0,0,0-.45,1c0,1,.76,1.59,1.94,1.59h5.92Z"/><rect class="cls-2" width="26" height="26"/></g></g></svg>