<svg xmlns="http://www.w3.org/2000/svg" viewBox="0 0 13.6 25"><defs><style>.cls-1{fill:#129f5b;}</style></defs><title>X-quang</title><g id="Layer_2" data-name="Layer 2"><g id="Layer_1-2" data-name="Layer 1"><path class="cls-1" d="M9.19,13.31q0,.57,0,1.14c0,3.87.2,5,.2,8.83,0,.89-.38,1.42-1,1.47A1.19,1.19,0,0,1,7,23.47c0-.69,0-.27,0-1,0-2,0-2.3,0-4.28a1.11,1.11,0,0,0,0-.34.26.26,0,0,0-.19-.15.24.24,0,0,0-.17.16,2.51,2.51,0,0,0,0,.46c0,2.62,0,2.46,0,5.08,0,.87-.42,1.33-1.22,1.33a1.2,1.2,0,0,1-1.21-1.35c0-4.17.2-5.58.2-9.75q0-.3,0-.61H3.92q0,1.77,0,3.54c0,.73-.22,1-.77,1s-.84-.39-.84-1a14.73,14.73,0,0,1,.46-4.87c.44-1.3,1.2-2.35,2.9-2.21a15.28,15.28,0,0,0,2.25,0,2.47,2.47,0,0,1,2.72,1.79,11.35,11.35,0,0,1,.57,5.63.75.75,0,0,1-1,.66,1,1,0,0,1-.65-1c0-1.1,0-2.2,0-3.3Z"/><path class="cls-1" d="M3.45,25H0v-.82H2.51V18.84h.94Z"/><path class="cls-1" d="M13.6,24.15V25H10.11V18.83h.81v5.32Z"/><circle class="cls-1" cx="6.71" cy="7.33" r="2.01"/><path class="cls-1" d="M10.9,9.48h0c0-4.53,0-5.1,0-9.48H2.55c0,4.36,0,4.87,0,9.36H.84a1.3,1.3,0,0,0,0,.4c0,2.27,0,4.54,0,6.81,0,.18,0,.61,0,.82h.71c-.16-2.65-.24-5.51,1.19-7.9.58,0,1,0,1.49,0a3.31,3.31,0,0,1-.51-1.76,3,3,0,0,1,1-2.24h0V1.73h.8V5.05A2.39,2.39,0,0,1,8,5V1.73h.8V5.48h0a3,3,0,0,1,1,2.24A3.28,3.28,0,0,1,9.3,9.48h1.25c1.7,2.43,1.52,5.14,1.44,7.86h.61V9.48Z"/></g></g></svg>