<svg xmlns="http://www.w3.org/2000/svg" viewBox="0 0 18.75 11.34"><defs><style>.cls-1{fill:#8e8e8e;}</style></defs><title>xem_1</title><g id="Layer_2" data-name="Layer 2"><g id="Layer_1-2" data-name="Layer 1"><path class="cls-1" d="M9.38,0C3.16,0,0,4.91,0,5.67s3.27,5.67,9.38,5.67,9.38-4.91,9.38-5.67S15.59,0,9.38,0Zm0,10.14A4.26,4.26,0,0,1,5.23,5.78,4.26,4.26,0,0,1,9.38,1.42a4.26,4.26,0,0,1,4.14,4.36,4.26,4.26,0,0,1-4.14,4.36Zm2.07-4.47A2.17,2.17,0,0,1,9.38,7.85,2.1,2.1,0,0,1,7.3,5.67,2.17,2.17,0,0,1,9.38,3.49c.65,0-.44,1.74,0,2.18s2.07-.55,2.07,0Z"/></g></g></svg>