<svg xmlns="http://www.w3.org/2000/svg" viewBox="0 0 28.46 24.94"><defs><style>.cls-1{fill:#375f99;}</style></defs><title>xet_nghiem</title><g id="Layer_2" data-name="Layer 2"><g id="Layer_1-2" data-name="Layer 1"><path class="cls-1" d="M8.36,0H1A1,1,0,0,0,0,1V4.94A1,1,0,0,0,1,6h.16V21.43a3.52,3.52,0,1,0,7,0V6h.15a1,1,0,0,0,1-1V1A1,1,0,0,0,8.36,0ZM6.17,11.84h-3V6h3Z"/><path class="cls-1" d="M25,0H14.31a3.44,3.44,0,0,0-3.43,3.43V21.5a3.44,3.44,0,0,0,3.43,3.43H25a3.44,3.44,0,0,0,3.43-3.43V3.44A3.44,3.44,0,0,0,25,0Zm.49,20.69a1.23,1.23,0,0,1-1.22,1.22h-9.2a1.23,1.23,0,0,1-1.22-1.22v-.76a1.23,1.23,0,0,1,1.22-1.22h9.2a1.23,1.23,0,0,1,1.22,1.22Zm0-5.14a1.23,1.23,0,0,1-1.22,1.22h-9.2a1.23,1.23,0,0,1-1.22-1.22V14.8a1.23,1.23,0,0,1,1.22-1.22h9.2a1.23,1.23,0,0,1,1.22,1.22Zm0-5.18a1.23,1.23,0,0,1-1.22,1.22h-9.2a1.23,1.23,0,0,1-1.22-1.22V9.62A1.23,1.23,0,0,1,15.09,8.4h9.2a1.23,1.23,0,0,1,1.22,1.22Zm0-5.09a1.23,1.23,0,0,1-1.22,1.22h-9.2A1.23,1.23,0,0,1,13.87,5.3V4.54a1.23,1.23,0,0,1,1.22-1.22h9.2a1.23,1.23,0,0,1,1.22,1.22Z"/></g></g></svg>