<svg xmlns="http://www.w3.org/2000/svg" viewBox="0 0 11.17 14.17"><defs><style>.cls-1{fill:#8e8e8e;}</style></defs><title>xoa</title><g id="Layer_2" data-name="Layer 2"><g id="Layer_1-2" data-name="Layer 1"><path class="cls-1" d="M1.31,13.45a.75.75,0,0,0,.75.72h7a.75.75,0,0,0,.75-.72l.5-9.8H.81ZM7.18,6.29A.31.31,0,0,1,7.49,6H8a.31.31,0,0,1,.31.31v5.25a.31.31,0,0,1-.31.31H7.49a.31.31,0,0,1-.31-.31ZM5,6.29A.31.31,0,0,1,5.34,6h.49a.31.31,0,0,1,.31.31v5.25a.31.31,0,0,1-.31.31H5.34A.31.31,0,0,1,5,11.54Zm-2.14,0A.31.31,0,0,1,3.2,6h.49A.31.31,0,0,1,4,6.29v5.25a.31.31,0,0,1-.31.31H3.2a.31.31,0,0,1-.31-.31Zm0,0"/><path class="cls-1" d="M10.7.77H7.45V.16A.16.16,0,0,0,7.29,0H3.88a.16.16,0,0,0-.16.16V.77H.47A.47.47,0,0,0,0,1.25V2.73H11.17V1.25A.47.47,0,0,0,10.7.77Zm0,0"/></g></g></svg>