<svg xmlns="http://www.w3.org/2000/svg" xmlns:xlink="http://www.w3.org/1999/xlink" viewBox="0 0 21.53 21.22"><defs><style>.cls-1{fill:#0b3675;}.cls-2{fill:#114f99;}.cls-3{fill:url(#linear-gradient);}.cls-4{fill:url(#linear-gradient-2);}.cls-5{fill:url(#linear-gradient-3);}.cls-6{fill:url(#linear-gradient-4);}.cls-7{fill:url(#linear-gradient-5);}</style><linearGradient id="linear-gradient" x1="15.44" y1="14.95" x2="26.25" y2="14.95" gradientTransform="matrix(1, 0, 0, 1, -4.7, 1.47)" gradientUnits="userSpaceOnUse"><stop offset="0" stop-color="#c18e1b"/><stop offset="0.64" stop-color="#fbf2aa"/><stop offset="1" stop-color="#f8ce30"/></linearGradient><linearGradient id="linear-gradient-2" x1="5.93" y1="9.95" x2="14.84" y2="9.95" gradientTransform="matrix(1, 0, 0, 1, 0, 0)" xlink:href="#linear-gradient"/><linearGradient id="linear-gradient-3" x1="0.09" y1="10.57" x2="19.99" y2="10.57" gradientTransform="matrix(1, 0, 0, 1, 0, 0)" xlink:href="#linear-gradient"/><linearGradient id="linear-gradient-4" x1="6.89" y1="10.98" x2="14.11" y2="8.85" gradientTransform="matrix(1, 0, 0, 1, 0, 0)" xlink:href="#linear-gradient"/><linearGradient id="linear-gradient-5" x1="1513.01" y1="74.42" x2="1520.31" y2="74.42" gradientTransform="translate(-1009.43 -1115.11) rotate(45)" xlink:href="#linear-gradient"/></defs><title>1</title><g id="Layer_2" data-name="Layer 2"><g id="Layer_1-2" data-name="Layer 1"><path class="cls-1" d="M4.68,2.51H14.86a3,3,0,0,1,3,3V15a3,3,0,0,1-3,3H2.31a0,0,0,0,1,0,0V4.87A2.37,2.37,0,0,1,4.68,2.51Z" transform="translate(-4.29 10.11) rotate(-44.9)"/><path class="cls-2" d="M4.76,2H14.92a3,3,0,0,1,3,3v9.52a3,3,0,0,1-3,3H2.38a0,0,0,0,1,0,0V4.42A2.37,2.37,0,0,1,4.76,2Z" transform="translate(-3.97 10.04) rotate(-44.9)"/><path class="cls-3" d="M10.71,20.79l10.16-5.31a1.33,1.33,0,0,0,.23-2.13l-1.34-1.23Z"/><path class="cls-1" d="M10.73,20.74l10-5.53a1.3,1.3,0,0,0,.24-2.1L19.6,11.9Z"/><path class="cls-4" d="M7.23,6.8a4.46,4.46,0,1,0,6.3,0A4.43,4.43,0,0,0,7.23,6.8Zm6.14,6.14a4.22,4.22,0,1,1,1.24-3A4.23,4.23,0,0,1,13.37,12.94Z"/><path class="cls-5" d="M19.09,7.77,12.37,1A3.08,3.08,0,0,0,8,1L.82,8.2a2.42,2.42,0,0,0,0,3.44L3.66,14.5l0,0L6,16.8l0,0L10.12,21l0,0,8.93-8.89a3.08,3.08,0,0,0,0-4.36Zm-4.27-.1a5,5,0,0,1-6.74,6.74l-.08,0-2.1,2.1L4,14.53,6,12.44l0-.08A5,5,0,0,1,12.77,5.6l.08,0,1.89-1.89L16.68,5.7l-1.9,1.9Z"/><path class="cls-2" d="M10.18,21.11.73,11.66a2.56,2.56,0,0,1-.4-3.07,1.17,1.17,0,0,1,.21-.28L8,.92a3.17,3.17,0,0,1,4.46,0l6.77,6.77a3.15,3.15,0,0,1,0,4.45Zm0-21A3,3,0,0,0,8.11,1L.77,8.29a2.3,2.3,0,0,0,0,3.25L10.16,21l9-8.93a3,3,0,0,0,0-4.18L12.29,1A3,3,0,0,0,10.19.12Z"/><path class="cls-1" d="M12.49,11.33a2.47,2.47,0,0,1-2.11,1.17,2.57,2.57,0,0,1-2.55-2.24h5.79c0-.11,0-.21,0-.32a3.25,3.25,0,0,0-6.5,0,3.3,3.3,0,0,0,3.25,3.29,3.59,3.59,0,0,0,3.37-1.87Zm-2.11-4a2.57,2.57,0,0,1,2.51,2h-5A2.57,2.57,0,0,1,10.38,7.37Z"/><path class="cls-2" d="M12.82,5.44A5.11,5.11,0,0,0,5.9,12.36l-2.2,2.2,2.11,2.11L8,14.46a5.11,5.11,0,0,0,6.9-6.9l2-2L14.82,3.44ZM13,12.53a3.65,3.65,0,1,1,0-5.16A3.65,3.65,0,0,1,13,12.53Z"/><path class="cls-6" d="M10.38,13.71a3.77,3.77,0,1,1,3.77-3.77c0,.12,0,.24,0,.37v.11H7.65a2.77,2.77,0,0,0,4.94,1.19l0,0,1.14,0-.09.17A3.77,3.77,0,0,1,10.38,13.71Zm0-7.3a3.53,3.53,0,1,0,3,5.41h-.63A3,3,0,0,1,10.38,13a3,3,0,0,1-3-2.63l0-.13h6.52c0-.08,0-.16,0-.24A3.54,3.54,0,0,0,10.38,6.41Zm3,3H7.42l0-.14a3,3,0,0,1,5.86,0ZM7.72,9.18H13a2.77,2.77,0,0,0-5.33,0Z"/><path class="cls-7" d="M12.69,11.69a2.89,2.89,0,0,1-5.17-1.38H14c0-.12,0-.24,0-.36a3.65,3.65,0,1,0-.45,1.76Zm-2.3-4.63A2.89,2.89,0,0,1,13.2,9.3H7.57A2.89,2.89,0,0,1,10.38,7.05Z"/></g></g></svg>