<svg xmlns="http://www.w3.org/2000/svg" xmlns:xlink="http://www.w3.org/1999/xlink" viewBox="0 0 15.11 14.83"><defs><style>.cls-1{fill:#022602;}.cls-2{fill:#114f99;}.cls-3{fill:url(#linear-gradient);}.cls-4{fill:url(#linear-gradient-2);}.cls-5{fill:#0b3675;}</style><linearGradient id="linear-gradient" y1="7.37" x2="14.02" y2="7.37" gradientUnits="userSpaceOnUse"><stop offset="0" stop-color="#c18e1b"/><stop offset="0.64" stop-color="#fbf2aa"/><stop offset="1" stop-color="#f8ce30"/></linearGradient><linearGradient id="linear-gradient-2" x1="7.58" y1="11.55" x2="15.11" y2="11.55" xlink:href="#linear-gradient"/></defs><title>2_1</title><g id="Layer_2" data-name="Layer 2"><g id="Layer_1-2" data-name="Layer 1"><path class="cls-1" d="M3.22,1.87h7.22A2.1,2.1,0,0,1,12.54,4v6.45a2.1,2.1,0,0,1-2.1,2.1H1.57a0,0,0,0,1,0,0v-9A1.65,1.65,0,0,1,3.22,1.87Z" transform="translate(-3.02 7.1) rotate(-45)"/><path class="cls-2" d="M3.29,1.43h7.17a2.13,2.13,0,0,1,2.13,2.13v6.71a2.13,2.13,0,0,1-2.13,2.13H1.62a0,0,0,0,1,0,0V3.11A1.67,1.67,0,0,1,3.29,1.43Z" transform="translate(-2.81 7.05) rotate(-45)"/><path class="cls-3" d="M7.1,14.73l0,0L.5,8.13A1.72,1.72,0,0,1,.5,5.7L5.57.64a2.17,2.17,0,0,1,3.07,0l4.75,4.75a2.17,2.17,0,0,1,0,3.07ZM7.1.09A2.08,2.08,0,0,0,5.63.7L.56,5.76a1.63,1.63,0,0,0,0,2.31L7.1,14.61l6.22-6.22a2.09,2.09,0,0,0,0-2.95L8.58.7A2.08,2.08,0,0,0,7.1.09Z"/><path class="cls-4" d="M7.58,14.63l7.07-3.78a.94.94,0,0,0,.16-1.5l-.95-.86Z"/><path class="cls-5" d="M7.54,14.67l7-3.91a.91.91,0,0,0,.16-1.48l-1-.85Z"/></g></g></svg>