<svg xmlns="http://www.w3.org/2000/svg" xmlns:xlink="http://www.w3.org/1999/xlink" viewBox="0 0 27.64 33.45"><defs><style>.cls-1{fill:#fff;}.cls-2{fill:#882e3f;}.cls-3{fill:#0b3675;}.cls-4{fill:#114f99;}.cls-5{fill:url(#linear-gradient);}.cls-6{fill:url(#linear-gradient-2);}.cls-7{fill:url(#linear-gradient-3);}.cls-8{fill:url(#linear-gradient-4);}.cls-9{fill:url(#linear-gradient-5);}</style><linearGradient id="linear-gradient" x1="18.55" y1="20.59" x2="32.42" y2="20.59" gradientTransform="matrix(1, 0, 0, 1, -4.76, 0.48)" gradientUnits="userSpaceOnUse"><stop offset="0" stop-color="#c18e1b"/><stop offset="0.64" stop-color="#fbf2aa"/><stop offset="1" stop-color="#f8ce30"/></linearGradient><linearGradient id="linear-gradient-2" x1="7.61" y1="12.77" x2="19.05" y2="12.77" gradientTransform="matrix(1, 0, 0, 1, 0, 0)" xlink:href="#linear-gradient"/><linearGradient id="linear-gradient-3" x1="0.12" y1="13.57" x2="25.66" y2="13.57" gradientTransform="matrix(1, 0, 0, 1, 0, 0)" xlink:href="#linear-gradient"/><linearGradient id="linear-gradient-4" x1="8.84" y1="14.09" x2="18.11" y2="11.35" gradientTransform="matrix(1, 0, 0, 1, 0, 0)" xlink:href="#linear-gradient"/><linearGradient id="linear-gradient-5" x1="1704.29" y1="461.04" x2="1713.65" y2="461.04" gradientTransform="translate(-869.1 -1521.66) rotate(45)" xlink:href="#linear-gradient"/></defs><title>3</title><g id="Layer_2" data-name="Layer 2"><g id="Layer_1-2" data-name="Layer 1"><circle class="cls-1" cx="13.36" cy="22.65" r="10.8" transform="translate(-12.56 18.21) rotate(-49.74)"/><circle class="cls-2" cx="13.36" cy="22.65" r="9.88" transform="translate(-12.56 18.21) rotate(-49.74)"/><circle class="cls-1" cx="13.36" cy="22.65" r="7.62" transform="translate(-12.56 18.21) rotate(-49.74)"/><path class="cls-3" d="M6,3.22H19.07a3.87,3.87,0,0,1,3.87,3.87V19.22a3.87,3.87,0,0,1-3.87,3.87H3a0,0,0,0,1,0,0V6.26a3,3,0,0,1,3-3Z" transform="translate(-5.5 12.98) rotate(-44.9)"/><path class="cls-4" d="M6.11,2.62h13A3.87,3.87,0,0,1,23,6.5V18.71a3.87,3.87,0,0,1-3.87,3.87H3.06a0,0,0,0,1,0,0V5.67a3,3,0,0,1,3-3Z" transform="translate(-5.09 12.88) rotate(-44.9)"/><path class="cls-5" d="M13.75,26.68l13-6.82a1.71,1.71,0,0,0,.3-2.73l-1.72-1.58Z"/><path class="cls-3" d="M13.77,26.62l12.82-7.1a1.66,1.66,0,0,0,.3-2.69l-1.74-1.55Z"/><path class="cls-6" d="M9.28,8.73a5.72,5.72,0,1,0,8.09,0A5.68,5.68,0,0,0,9.28,8.73Zm7.88,7.88a5.42,5.42,0,1,1,1.59-3.83A5.43,5.43,0,0,1,17.16,16.6Z"/><path class="cls-7" d="M24.5,10,15.88,1.32a4,4,0,0,0-5.59,0L1,10.52a3.11,3.11,0,0,0,0,4.42L4.7,18.61l0,0,2.92,2.92,0,0L13,26.93,13,27,24.49,15.57a4,4,0,0,0,0-5.59ZM19,9.85a6.41,6.41,0,0,1-8.66,8.66l-.1-.05L7.58,21.14l-2.5-2.5L7.76,16l-.05-.1a6.41,6.41,0,0,1,8.68-8.68l.1.05,2.42-2.42,2.5,2.5L19,9.75Z"/><path class="cls-4" d="M13.07,27.1.94,15A3.28,3.28,0,0,1,.43,11a1.5,1.5,0,0,1,.27-.36l9.55-9.49a4.06,4.06,0,0,1,5.73,0l8.68,8.69a4,4,0,0,1,0,5.71Zm0-26.94A3.78,3.78,0,0,0,10.4,1.26L1,10.65a3,3,0,0,0,0,4.17L13,26.93,24.55,15.46a3.8,3.8,0,0,0,0-5.37L15.77,1.27A3.78,3.78,0,0,0,13.08.16Z"/><path class="cls-3" d="M16,14.54A3.16,3.16,0,0,1,13.33,16,3.3,3.3,0,0,1,10,13.16h7.43c0-.13,0-.27,0-.41a4.17,4.17,0,0,0-8.35,0A4.23,4.23,0,0,0,13.33,17a4.6,4.6,0,0,0,4.33-2.4ZM13.33,9.45A3.3,3.3,0,0,1,16.55,12H10.11A3.3,3.3,0,0,1,13.33,9.45Z"/><path class="cls-4" d="M16.46,7a6.56,6.56,0,0,0-8.89,8.89L4.74,18.7,7.45,21.4l2.84-2.84A6.56,6.56,0,0,0,19.15,9.7l2.58-2.58L19,4.42Zm.18,9.1a4.68,4.68,0,1,1,0-6.62A4.68,4.68,0,0,1,16.64,16.08Z"/><path class="cls-8" d="M13.33,17.6a4.84,4.84,0,1,1,4.83-4.84c0,.15,0,.31,0,.48v.14H9.82a3.56,3.56,0,0,0,6.34,1.53l0-.06,1.47,0-.12.22A4.84,4.84,0,0,1,13.33,17.6Zm0-9.37a4.54,4.54,0,1,0,3.84,6.94l-.81,0a3.82,3.82,0,0,1-3,1.47A3.86,3.86,0,0,1,9.5,13.25l0-.17h8.37c0-.11,0-.21,0-.31A4.54,4.54,0,0,0,13.33,8.23Zm3.8,3.86H9.53l0-.18a3.86,3.86,0,0,1,7.52,0Zm-7.22-.3h6.84a3.56,3.56,0,0,0-6.84,0Z"/><path class="cls-9" d="M16.29,15a3.71,3.71,0,0,1-6.64-1.77H18c0-.15,0-.31,0-.46A4.69,4.69,0,1,0,17.43,15Zm-3-5.95a3.71,3.71,0,0,1,3.61,2.88H9.71A3.71,3.71,0,0,1,13.33,9.05Z"/></g></g></svg>