<svg xmlns="http://www.w3.org/2000/svg" xmlns:xlink="http://www.w3.org/1999/xlink" viewBox="0 0 34.65 42.13"><defs><style>.cls-1{fill:#fff;}.cls-2{fill:#2e7fb6;}.cls-3{fill:#0b3675;}.cls-4{fill:#114f99;}.cls-5{fill:url(#linear-gradient);}.cls-6{fill:url(#linear-gradient-2);}.cls-7{fill:url(#linear-gradient-3);}.cls-8{fill:url(#linear-gradient-4);}.cls-9{fill:url(#linear-gradient-5);}</style><linearGradient id="linear-gradient" x1="22.01" y1="25.73" x2="39.4" y2="25.73" gradientTransform="matrix(1, 0, 0, 1, -4.71, 0.69)" gradientUnits="userSpaceOnUse"><stop offset="0" stop-color="#c18e1b"/><stop offset="0.64" stop-color="#fbf2aa"/><stop offset="1" stop-color="#f8ce30"/></linearGradient><linearGradient id="linear-gradient-2" x1="9.54" y1="16.01" x2="23.88" y2="16.01" gradientTransform="matrix(1, 0, 0, 1, 0, 0)" xlink:href="#linear-gradient"/><linearGradient id="linear-gradient-3" x1="0.15" y1="17.02" x2="32.17" y2="17.02" gradientTransform="matrix(1, 0, 0, 1, 0, 0)" xlink:href="#linear-gradient"/><linearGradient id="linear-gradient-4" x1="11.08" y1="17.66" x2="22.71" y2="14.24" gradientTransform="matrix(1, 0, 0, 1, 0, 0)" xlink:href="#linear-gradient"/><linearGradient id="linear-gradient-5" x1="1653.1" y1="384.35" x2="1664.85" y2="384.35" gradientTransform="translate(-884.59 -1428.85) rotate(45)" xlink:href="#linear-gradient"/></defs><title>4</title><g id="Layer_2" data-name="Layer 2"><g id="Layer_1-2" data-name="Layer 1"><circle class="cls-1" cx="16.25" cy="29.45" r="12.68" transform="translate(-16.72 22.82) rotate(-49.74)"/><circle class="cls-2" cx="16.25" cy="29.45" r="11.6" transform="translate(-16.72 22.82) rotate(-49.74)"/><circle class="cls-1" cx="16.25" cy="29.45" r="8.95" transform="translate(-16.72 22.82) rotate(-49.74)"/><path class="cls-3" d="M7.53,4H23.91a4.85,4.85,0,0,1,4.85,4.85V24.1a4.85,4.85,0,0,1-4.85,4.85H3.72a0,0,0,0,1,0,0V7.84A3.81,3.81,0,0,1,7.53,4Z" transform="translate(-6.9 16.27) rotate(-44.9)"/><path class="cls-4" d="M7.66,3.29H24a4.86,4.86,0,0,1,4.86,4.86V23.46A4.86,4.86,0,0,1,24,28.32H3.84a0,0,0,0,1,0,0V7.11A3.82,3.82,0,0,1,7.66,3.29Z" transform="translate(-6.39 16.15) rotate(-44.9)"/><path class="cls-5" d="M17.24,33.45,33.59,24.9A2.15,2.15,0,0,0,34,21.47l-2.15-2Z"/><path class="cls-3" d="M17.27,33.37l16.07-8.9a2.08,2.08,0,0,0,.38-3.38l-2.18-1.95Z"/><path class="cls-6" d="M11.64,10.94a7.17,7.17,0,1,0,10.14,0A7.12,7.12,0,0,0,11.64,10.94Zm9.88,9.88a6.8,6.8,0,1,1,2-4.8A6.8,6.8,0,0,1,21.52,20.82Z"/><path class="cls-7" d="M30.72,12.51,19.91,1.66a5,5,0,0,0-7,0L1.31,13.19a3.89,3.89,0,0,0,0,5.54l4.59,4.6,0,0L9.58,27l0,0,6.74,6.76.07.07L30.71,19.52a5,5,0,0,0,0-7Zm-6.88-.16A8,8,0,0,1,13,23.2l-.12-.06L9.5,26.51,6.37,23.38,9.73,20l-.07-.12A8,8,0,0,1,20.55,9l.12.07,3-3,3.13,3.13-3.05,3.05Z"/><path class="cls-4" d="M16.39,34,1.18,18.76a4.12,4.12,0,0,1-.64-4.94,1.89,1.89,0,0,1,.34-.45l12-11.89a5.1,5.1,0,0,1,7.19,0L30.92,12.38a5.06,5.06,0,0,1,0,7.16ZM16.4.2A4.74,4.74,0,0,0,13,1.58L1.24,13.35a3.7,3.7,0,0,0,0,5.23L16.35,33.76,30.78,19.38a4.76,4.76,0,0,0,0-6.73l-11-11.06A4.74,4.74,0,0,0,16.4.2Z"/><path class="cls-3" d="M20.1,18.23a4,4,0,0,1-3.4,1.88A4.14,4.14,0,0,1,12.6,16.5h9.31c0-.17,0-.34,0-.51a5.23,5.23,0,0,0-10.46,0,5.31,5.31,0,0,0,5.23,5.3,5.77,5.77,0,0,0,5.42-3Zm-3.4-6.38a4.14,4.14,0,0,1,4,3.21H12.67A4.14,4.14,0,0,1,16.71,11.85Z"/><path class="cls-4" d="M20.64,8.75A8.22,8.22,0,0,0,9.5,19.9L5.95,23.44l3.39,3.39,3.56-3.56A8.23,8.23,0,0,0,24,12.17l3.23-3.23L23.85,5.54Zm.22,11.41a5.87,5.87,0,1,1,0-8.3A5.87,5.87,0,0,1,20.86,20.16Z"/><path class="cls-8" d="M16.71,22.07A6.06,6.06,0,1,1,22.77,16c0,.19,0,.39,0,.6l0,.17H12.32a4.46,4.46,0,0,0,8,1.92l.06-.08,1.84,0-.15.27A6.06,6.06,0,0,1,16.71,22.07Zm0-11.75A5.69,5.69,0,1,0,21.53,19l-1,0a4.8,4.8,0,0,1-3.8,1.85,4.84,4.84,0,0,1-4.8-4.24l0-.21h10.5c0-.13,0-.26,0-.39A5.69,5.69,0,0,0,16.71,10.32Zm4.77,4.84H11.94l.05-.23a4.84,4.84,0,0,1,9.43,0Zm-9.06-.38H21a4.46,4.46,0,0,0-8.58,0Z"/><path class="cls-9" d="M20.42,18.81a4.65,4.65,0,0,1-8.32-2.22H22.55c0-.19,0-.38,0-.58a5.88,5.88,0,1,0-.73,2.83Zm-3.71-7.46A4.65,4.65,0,0,1,21.24,15H12.18A4.65,4.65,0,0,1,16.71,11.35Z"/></g></g></svg>