<svg xmlns="http://www.w3.org/2000/svg" xmlns:xlink="http://www.w3.org/1999/xlink" viewBox="0 0 17.19 24.05"><defs><style>.cls-1{fill:#fff;}.cls-2{fill:#3eccb3;}.cls-3{fill:#022602;}.cls-4{fill:#114f99;}.cls-5{fill:url(#linear-gradient);}.cls-6{fill:url(#linear-gradient-2);}.cls-7{fill:#0b3675;}</style><linearGradient id="linear-gradient" y1="8.38" x2="15.95" y2="8.38" gradientUnits="userSpaceOnUse"><stop offset="0" stop-color="#c18e1b"/><stop offset="0.64" stop-color="#fbf2aa"/><stop offset="1" stop-color="#f8ce30"/></linearGradient><linearGradient id="linear-gradient-2" x1="8.62" y1="13.14" x2="17.19" y2="13.14" xlink:href="#linear-gradient"/></defs><title>5</title><g id="Layer_2" data-name="Layer 2"><g id="Layer_1-2" data-name="Layer 1"><circle class="cls-1" cx="7.84" cy="16.25" r="7.8" transform="translate(-9.63 11.73) rotate(-49.75)"/><circle class="cls-2" cx="7.84" cy="16.25" r="7.13" transform="translate(-9.63 11.73) rotate(-49.74)"/><circle class="cls-1" cx="7.84" cy="16.25" r="5.5" transform="translate(-9.63 11.73) rotate(-49.75)"/><path class="cls-3" d="M3.67,2.13h8.21a2.39,2.39,0,0,1,2.39,2.39v7.34a2.39,2.39,0,0,1-2.39,2.39H1.79a0,0,0,0,1,0,0V4A1.88,1.88,0,0,1,3.67,2.13Z" transform="translate(-3.43 8.07) rotate(-45)"/><path class="cls-4" d="M3.75,1.63H11.9a2.42,2.42,0,0,1,2.42,2.42v7.63a2.42,2.42,0,0,1-2.42,2.42H1.84a0,0,0,0,1,0,0V3.53a1.9,1.9,0,0,1,1.9-1.9Z" transform="translate(-3.2 8.02) rotate(-45)"/><path class="cls-5" d="M8.08,16.76l0,0L.57,9.25a2,2,0,0,1,0-2.76L6.34.72a2.47,2.47,0,0,1,3.49,0l5.4,5.4a2.47,2.47,0,0,1,0,3.49ZM8.08.1A2.36,2.36,0,0,0,6.4.79L.64,6.56a1.86,1.86,0,0,0,0,2.62l7.44,7.44,7.07-7.08a2.37,2.37,0,0,0,0-3.35L9.76.79A2.36,2.36,0,0,0,8.08.1Z"/><path class="cls-6" d="M8.62,16.64l8-4.3a1.07,1.07,0,0,0,.18-1.71l-1.08-1Z"/><path class="cls-7" d="M8.58,16.69l8-4.45a1,1,0,0,0,.19-1.68l-1.09-1Z"/></g></g></svg>