<?xml version="1.0" encoding="UTF-8" standalone="no"?>
<svg
   xmlns:dc="http://purl.org/dc/elements/1.1/"
   xmlns:cc="http://creativecommons.org/ns#"
   xmlns:rdf="http://www.w3.org/1999/02/22-rdf-syntax-ns#"
   xmlns:svg="http://www.w3.org/2000/svg"
   xmlns="http://www.w3.org/2000/svg"
   xmlns:sodipodi="http://sodipodi.sourceforge.net/DTD/sodipodi-0.dtd"
   xmlns:inkscape="http://www.inkscape.org/namespaces/inkscape"
   viewBox="0 0 627.57 44.29"
   version="1.1"
   id="svg3786"
   sodipodi:docname="banner2.svg"
   inkscape:version="0.92.1 r15371">
  <metadata
     id="metadata3790">
    <rdf:RDF>
      <cc:Work
         rdf:about="">
        <dc:format>image/svg+xml</dc:format>
        <dc:type
           rdf:resource="http://purl.org/dc/dcmitype/StillImage" />
        <dc:title>banner</dc:title>
      </cc:Work>
    </rdf:RDF>
  </metadata>
  <sodipodi:namedview
     pagecolor="#ffffff"
     bordercolor="#666666"
     borderopacity="1"
     objecttolerance="10"
     gridtolerance="10"
     guidetolerance="10"
     inkscape:pageopacity="0"
     inkscape:pageshadow="2"
     inkscape:window-width="1366"
     inkscape:window-height="705"
     id="namedview3788"
     showgrid="false"
     inkscape:zoom="1.3520852"
     inkscape:cx="324.83259"
     inkscape:cy="-18.295174"
     inkscape:window-x="-8"
     inkscape:window-y="-8"
     inkscape:window-maximized="1"
     inkscape:current-layer="svg3786" />
  <defs
     id="defs3682">
    <style
       id="style3680">.cls-1{fill:#fff;}.cls-2{fill:#129f5b;}.cls-3{fill:#5a82c2;}</style>
    <clipPath
       clipPathUnits="userSpaceOnUse"
       id="clipPath4925">
      <rect
         id="rect4927"
         width="130.85681"
         height="44.290001"
         x="0"
         y="-0.00370314"
         style="stroke-width:0.96236998" />
    </clipPath>
  </defs>
  <title
     id="title3684">banner</title>
  <g
     id="Layer_2"
     data-name="Layer 2"
     transform="translate(0,0.00370314)"
     clip-path="url(#clipPath4925)">
    <g
       id="Layer_1-2"
       data-name="Layer 1">
      <path
         class="cls-1"
         d="M 0,4.63 V 31.1 c 0,6.1 6.66,15.3 15.44,12.75 l 23.38,-6.8 V 21.68 C 38.82,14.6 34.76,8.18 28.21,6.28 L 4.52,0 C 2,-0.12 0,2.44 0,4.63 Z"
         id="path3686"
         inkscape:connector-curvature="0"
         style="fill:#ffffff" />
      <path
         class="cls-2"
         d="m 2.68,23.6 v 5.22 C 2.75,34.65 7.5,42.72 15,41.7 11.13,41 9.36,36.7 9.43,33.35 c 0.06,-3.1 0,-6.36 0,-9.52 z"
         id="path3688"
         inkscape:connector-curvature="0"
         style="fill:#129f5b" />
      <path
         class="cls-2"
         d="m 9.47,10.83 q 0,-3.49 0,-7 C 8.47,3.58 6.27,3.16 5.54,2.97 A 2.3,2.3 0 0 0 2.68,5.23 q 0,2.25 0,4.5 h 0.06 z"
         id="path3690"
         inkscape:connector-curvature="0"
         style="fill:#129f5b" />
      <path
         class="cls-2"
         d="m 21.14,8.38 v 4.14 l 4.8,0.87 a 1.45,1.45 0 0 1 1.15,1.37 q 0,3.55 0,7.1 c 0,0.64 0.17,2.1 -1.07,2.1 -1.92,0 -2.86,0 -4.79,0 l -0.1,6.33 c 0,4.15 2.39,5.6 5.9,5 3.89,-0.62 6,-1.1 9,-1.75 0,-4.26 0.13,-8.39 0.13,-12.64 a 14.5,14.5 0 0 0 -10,-13.06 l -6,-1.67 a 3.13,3.13 0 0 1 0.98,2.21 z"
         id="path3692"
         inkscape:connector-curvature="0"
         style="fill:#129f5b" />
      <path
         class="cls-3"
         d="m 36.16,36.25 c 0,-0.9 0,-1.35 0,-2.26 -2.63,0.56 -3.51,0.82 -6.14,1.38 -10.55,2.25 -9.62,-2.5 -9.59,-7.93 v -4 h 5 c 0.92,0 1.2,-0.49 1.2,-1.12 q 0,-3.46 0,-6.91 a 1.44,1.44 0 0 0 -1.2,-1.33 l -5,-0.84 v -4 a 3.76,3.76 0 0 0 -1,-3.07 C 16.51,5.41 13.6,4.79 10.69,4 c 0,2.26 0,5.34 0,7.6 L 4.17,10.56 c 0,0 -1.44,-0.29 -1.46,-0.26 0,4.15 -0.12,8.53 0,12.79 0,0 5.93,0.26 8,0.27 0,3.25 0.05,6.56 0,9.75 -0.07,3.49 1.8,7.68 5.51,8.41 a 11.5,11.5 0 0 0 1.69,-0.31 C 24.54,39.45 29.47,38 36.16,36.25 Z"
         id="path3694"
         inkscape:connector-curvature="0"
         style="fill:#5a82c2" />
      <path
         class="cls-1"
         d="m 61.16,17.4 h 10.2 v 3 h -3.45 v 18 h -3.3 v -18 h -3.45 z"
         id="path3696"
         inkscape:connector-curvature="0"
         style="fill:#ffffff" />
      <path
         class="cls-1"
         d="m 76.14,26.26 h 4.54 v 3 h -4.54 v 6.14 h 5.7 v 3 h -9 v -21 h 9 v 3 h -5.7 z"
         id="path3698"
         inkscape:connector-curvature="0"
         style="fill:#ffffff" />
      <path
         class="cls-1"
         d="m 93.46,30.57 v 2.8 q 0,5.27 -4.92,5.27 -4.92,0 -4.92,-5.27 V 22.44 q 0,-5.27 4.92,-5.27 4.92,0 4.92,5.27 v 2.05 h -3.12 v -2.26 q 0,-2.07 -1.71,-2.07 -1.71,0 -1.71,2.07 v 11.34 q 0,2.05 1.71,2.05 1.71,0 1.71,-2.05 v -3 z"
         id="path3700"
         inkscape:connector-curvature="0"
         style="fill:#ffffff" />
      <path
         class="cls-1"
         d="m 106.13,38.4 h -3.33 l -0.57,-3.81 h -4 l -0.57,3.81 h -3 l 3.36,-21 h 4.83 z M 98.6,31.74 h 3.19 l -1.6,-10.62 z"
         id="path3702"
         inkscape:connector-curvature="0"
         style="fill:#ffffff" />
      <path
         class="cls-1"
         d="M 114.64,32.31 116.9,17.4 h 4.58 v 21 h -3.12 V 23.35 L 116.09,38.4 H 113 L 110.54,23.55 V 38.4 h -2.89 v -21 h 4.59 z"
         id="path3704"
         inkscape:connector-curvature="0"
         style="fill:#ffffff" />
      <path
         class="cls-1"
         d="m 127.16,26.26 h 4.54 v 3 h -4.54 v 6.14 h 5.7 v 3 h -9 v -21 h 9 v 3 h -5.7 z"
         id="path3706"
         inkscape:connector-curvature="0"
         style="fill:#ffffff" />
      <path
         class="cls-1"
         d="m 139.35,17.16 q 4.86,0 4.86,5.27 v 1.11 h -3.12 v -1.31 q 0,-2.07 -1.66,-2.07 -1.66,0 -1.65,2.07 a 4.39,4.39 0 0 0 1,2.72 11.34,11.34 0 0 0 1,1.11 l 0.88,0.82 0.31,0.28 a 16.42,16.42 0 0 1 1.17,1.17 8.88,8.88 0 0 1 1,1.36 6.84,6.84 0 0 1 1,3.66 q 0,5.27 -4.92,5.27 -4.92,0 -4.92,-5.27 v -2 h 3.12 v 2.24 q 0,2.05 1.71,2.05 1.71,0 1.7,-2.05 a 4.37,4.37 0 0 0 -1,-2.71 12.45,12.45 0 0 0 -1,-1.13 l -1.19,-1.1 q -0.73,-0.67 -1.19,-1.17 a 9.86,9.86 0 0 1 -1,-1.35 6.92,6.92 0 0 1 -1,-3.68 q 0.04,-5.29 4.9,-5.29 z"
         id="path3708"
         inkscape:connector-curvature="0"
         style="fill:#ffffff" />
      <path
         class="cls-1"
         d="m 150.6,26.41 h 6 v 3 h -6 z"
         id="path3710"
         inkscape:connector-curvature="0"
         style="fill:#ffffff" />
      <path
         class="cls-1"
         d="m 168.34,17.4 q 4.92,0 4.92,5.2 v 2.72 q 0,5.19 -4.92,5.19 h -1.57 v 7.9 h -3.29 v -21 z m -1.57,3 v 7.12 h 1.57 q 1.61,0 1.61,-2 v -3.14 q 0,-2 -1.61,-2 z"
         id="path3712"
         inkscape:connector-curvature="0"
         style="fill:#ffffff" />
      <path
         class="cls-1"
         d="m 178.08,38.4 h -3.29 v -21 h 3.29 v 9 h 3.75 v -9 h 3.37 v 21 h -3.37 v -9 h -3.75 z"
         id="path3714"
         inkscape:connector-curvature="0"
         style="fill:#ffffff" />
      <path
         class="cls-1"
         d="m 197.58,38.4 h -3.33 l -0.57,-3.81 h -4 l -0.57,3.81 h -3 l 3.35,-21 h 4.83 z m -10.14,-22 2.8,-3.52 h 3.15 l 2.78,3.52 h -3 l -1.41,-1.74 -1.38,1.74 z M 190,31.74 h 3.19 l -1.6,-10.62 z m 6.33,-21.28 2.21,3.54 h -2.49 l -3.24,-3.52 z"
         id="path3716"
         inkscape:connector-curvature="0"
         style="fill:#ffffff" />
      <path
         class="cls-1"
         d="m 202,23.2 v 15.2 h -3 v -21 h 4.14 L 206.6,30 V 17.4 h 2.94 v 21 h -3.4 z"
         id="path3718"
         inkscape:connector-curvature="0"
         style="fill:#ffffff" />
      <path
         class="cls-1"
         d="m 223.53,32.31 2.26,-14.91 h 4.58 v 21 h -3.12 V 23.35 L 225,38.4 h -3.12 L 219.4,23.55 V 38.4 h -2.89 v -21 h 4.59 z"
         id="path3720"
         inkscape:connector-curvature="0"
         style="fill:#ffffff" />
      <path
         class="cls-1"
         d="m 236.06,26.26 h 4.54 v 3 h -4.54 v 6.14 h 5.7 v 3 h -9 v -21 h 9 v 3 h -5.7 z m -3.21,-9.87 2.8,-3.52 h 3.15 l 2.78,3.52 h -3 l -1.41,-1.74 -1.38,1.74 z m 8.61,-5.93 2.17,3.54 h -2.49 l -3.24,-3.52 z"
         id="path3722"
         inkscape:connector-curvature="0"
         style="fill:#ffffff" />
      <path
         class="cls-1"
         d="M 250.78,32.31 253,17.4 h 4.58 v 21 H 254.5 V 23.35 l -2.27,15.05 h -3.12 L 246.65,23.55 V 38.4 h -2.89 v -21 h 4.59 z"
         id="path3724"
         inkscape:connector-curvature="0"
         style="fill:#ffffff" />
      <path
         class="cls-1"
         d="m 267.95,38.4 h -3.3 v -21 h 3.3 v 9 h 3.75 v -9 h 3.37 v 21 h -3.37 v -9 h -3.75 z"
         id="path3726"
         inkscape:connector-curvature="0"
         style="fill:#ffffff" />
      <path
         class="cls-1"
         d="m 280.06,26.26 h 4.54 v 3 h -4.54 v 6.14 h 5.7 v 3 h -9 v -21 h 9 v 3 h -5.7 z m -3.21,-9.87 2.8,-3.52 h 3.15 l 2.78,3.52 h -3 l -1.41,-1.74 -1.38,1.74 z M 282.8,40 v 3 h -3.06 v -3 z"
         id="path3728"
         inkscape:connector-curvature="0"
         style="fill:#ffffff" />
      <path
         class="cls-1"
         d="m 291.55,17.4 h 10.2 v 3 h -3.45 v 18 H 295 v -18 h -3.46 z"
         id="path3730"
         inkscape:connector-curvature="0"
         style="fill:#ffffff" />
      <path
         class="cls-1"
         d="m 306.53,38.4 h -3.3 v -21 h 3.3 v 9 h 3.75 v -9 h 3.37 v 21 h -3.37 v -9 h -3.75 z"
         id="path3732"
         inkscape:connector-curvature="0"
         style="fill:#ffffff" />
      <path
         class="cls-1"
         d="m 315.31,22.44 q 0,-5.27 5,-5.27 5,0 5,5.27 v 10.93 q 0,5.27 -5,5.27 -5,0 -5,-5.27 z m 0.63,-6 2.78,-3.52 h 3.16 l 2.78,3.52 h -3 l -1.41,-1.74 -1.38,1.74 z m 2.67,17.18 q 0,2.08 1.71,2.08 1.71,0 1.68,-2.13 V 22.23 q 0,-2.07 -1.71,-2.07 -1.71,0 -1.71,2.07 z m 10.75,-22.84 -3.24,3.52 h -2.34 l 2.17,-3.52 z"
         id="path3734"
         inkscape:connector-curvature="0"
         style="fill:#ffffff" />
      <path
         class="cls-1"
         d="m 330.39,23.2 v 15.2 h -3 v -21 h 4.14 L 335,30 V 17.4 h 2.94 v 21 h -3.4 z"
         id="path3736"
         inkscape:connector-curvature="0"
         style="fill:#ffffff" />
      <path
         class="cls-1"
         d="m 345.2,26.7 h 4.63 v 6.67 q 0,5.27 -4.92,5.27 -4.92,0 -4.91,-5.27 V 22.44 q 0,-5.27 4.92,-5.27 4.92,0 4.92,5.27 v 2.05 h -3.12 v -2.26 q 0,-2.07 -1.71,-2.07 -1.71,0 -1.71,2.07 v 11.34 q 0,2.05 1.71,2.05 1.71,0 1.71,-2.05 V 29.7 h -1.52 z"
         id="path3738"
         inkscape:connector-curvature="0"
         style="fill:#ffffff" />
      <path
         class="cls-1"
         d="m 355.69,17.4 h 10.2 v 3 h -3.44 v 18 h -3.29 v -18 h -3.46 z"
         id="path3740"
         inkscape:connector-curvature="0"
         style="fill:#ffffff" />
      <path
         class="cls-1"
         d="m 370.68,38.4 h -3.29 v -21 h 3.29 v 9 h 3.75 v -9 h 3.37 v 21 h -3.37 v -9 h -3.75 z"
         id="path3742"
         inkscape:connector-curvature="0"
         style="fill:#ffffff" />
      <path
         class="cls-1"
         d="m 379.45,22.44 q 0,-5.27 5,-5.27 5,0 5,5.27 v 10.93 q 0,5.27 -5,5.27 -5,0 -5,-5.27 z m 0.63,-6 2.78,-3.52 H 386 l 2.78,3.52 h -3 l -1.41,-1.74 -1.38,1.74 z m 2.67,17.18 q 0,2.08 1.71,2.08 1.71,0 1.71,-2.08 V 22.23 q 0,-2.07 -1.71,-2.07 -1.71,0 -1.71,2.07 z"
         id="path3744"
         inkscape:connector-curvature="0"
         style="fill:#ffffff" />
      <path
         class="cls-1"
         d="m 394.54,23.2 v 15.2 h -3 v -21 h 4.15 L 399.1,30 V 17.4 h 2.9 v 21 h -3.4 z"
         id="path3746"
         inkscape:connector-curvature="0"
         style="fill:#ffffff" />
      <path
         class="cls-1"
         d="M 409.35,26.7 H 414 v 6.67 q 0,5.27 -4.92,5.27 -4.92,0 -4.92,-5.27 V 22.44 q 0,-5.27 4.92,-5.27 4.92,0 4.92,5.27 v 2.05 h -3.12 v -2.26 q 0,-2.07 -1.71,-2.07 -1.71,0 -1.71,2.07 v 11.34 q 0,2.05 1.71,2.05 1.71,0 1.71,-2.05 V 29.7 h -1.51 z"
         id="path3748"
         inkscape:connector-curvature="0"
         style="fill:#ffffff" />
      <path
         class="cls-1"
         d="M 419.84,17.4 H 430 v 3 h -3.44 v 18 h -3.3 v -18 h -3.46 z"
         id="path3750"
         inkscape:connector-curvature="0"
         style="fill:#ffffff" />
      <path
         class="cls-1"
         d="m 431.53,17.4 h 3.3 v 21 h -3.3 z"
         id="path3752"
         inkscape:connector-curvature="0"
         style="fill:#ffffff" />
      <path
         class="cls-1"
         d="m 440.17,23.2 v 15.2 h -3 v -21 h 4.14 L 444.73,30 V 17.4 h 2.94 v 21 h -3.4 z"
         id="path3754"
         inkscape:connector-curvature="0"
         style="fill:#ffffff" />
      <path
         class="cls-1"
         d="m 454.41,22.44 q 0,-5.27 5,-5.27 5,0 5,5.27 v 10.93 a 6.17,6.17 0 0 1 -0.63,2.94 q 0.18,0.44 0.94,0.44 H 465 v 2.94 h -0.46 a 2.87,2.87 0 0 1 -2.84,-1.44 6.93,6.93 0 0 1 -2.31,0.38 q -5,0 -5,-5.27 z m 3.3,11.13 q 0,2.08 1.71,2.08 1.71,0 1.71,-2.08 V 22.23 q 0,-2.07 -1.71,-2.07 -1.71,0 -1.71,2.07 z"
         id="path3756"
         inkscape:connector-curvature="0"
         style="fill:#ffffff" />
      <path
         class="cls-1"
         d="m 469.7,17.4 v 16.2 q 0,2.05 1.71,2.05 1.71,0 1.71,-2.05 V 17.4 h 3.12 v 16 q 0,5.27 -4.92,5.27 -4.92,0 -4.92,-5.27 v -16 z"
         id="path3758"
         inkscape:connector-curvature="0"
         style="fill:#ffffff" />
      <path
         class="cls-1"
         d="m 489.17,38.4 h -3.33 l -0.57,-3.81 h -4 l -0.57,3.81 h -3 l 3.35,-21 h 4.83 z m -6.91,-21.84 a 1.63,1.63 0 0 1 0,-0.37 2.56,2.56 0 0 1 0.25,-1.16 q 0.09,-0.22 0.21,-0.45 l 0.51,-0.75 0.18,-0.4 a 2.82,2.82 0 0 0 0.18,-1 q 0,-0.44 -0.26,-0.44 -0.26,0 -0.26,0.44 v 1.17 h -1.83 v -1.1 q 0,-2.29 2.12,-2.29 2.12,0 2.13,2.29 a 3.92,3.92 0 0 1 -0.23,1.38 L 485,14.39 a 2.36,2.36 0 0 1 -0.28,0.41 l -0.06,0.09 -0.21,0.28 -0.22,0.32 a 1.74,1.74 0 0 0 -0.18,0.76 1.82,1.82 0 0 0 0,0.32 z m -0.62,15.18 h 3.19 l -1.6,-10.62 z"
         id="path3760"
         inkscape:connector-curvature="0"
         style="fill:#ffffff" />
      <path
         class="cls-1"
         d="m 493.64,23.2 v 15.2 h -3 v -21 h 4.14 L 498.19,30 V 17.4 h 2.94 v 21 h -3.4 z"
         id="path3762"
         inkscape:connector-curvature="0"
         style="fill:#ffffff" />
      <path
         class="cls-1"
         d="m 508.14,17.4 h 3.3 v 18 h 5.43 v 3 h -8.73 z"
         id="path3764"
         inkscape:connector-curvature="0"
         style="fill:#ffffff" />
      <path
         class="cls-1"
         d="m 521.47,31.45 -4.17,-14 h 3.46 l 2.51,9.55 2.52,-9.58 h 3.15 l -4.17,14 v 7 h -3.3 z m 5.7,-18.57 -3.24,3.52 h -2.34 l 2.15,-3.52 z"
         id="path3766"
         inkscape:connector-curvature="0"
         style="fill:#ffffff" />
      <path
         class="cls-1"
         d="m 539.87,17.4 q 4.89,0 4.89,4.83 V 23 q 0,3.24 -2.14,4.23 2.46,1 2.46,4.5 v 1.71 q 0,5 -5,5 h -5.19 v -21 z m -1.68,3 V 26 h 1.29 q 2,0 2,-2.21 v -1.22 q 0,-2.17 -1.69,-2.17 z m 0,8.55 v 6.45 h 1.89 q 1.71,0 1.71,-2.07 v -1.82 q 0,-2.55 -2.12,-2.55 z"
         id="path3768"
         inkscape:connector-curvature="0"
         style="fill:#ffffff" />
      <path
         class="cls-1"
         d="m 550.35,26.26 h 4.54 v 3 h -4.54 v 6.14 h 5.7 v 3 h -9 v -21 h 9 v 3 h -5.7 z m -3.21,-9.87 2.8,-3.52 h 3.15 l 2.78,3.52 h -3 l -1.41,-1.74 -1.38,1.74 z M 553.1,40 v 3 H 550 v -3 z"
         id="path3770"
         inkscape:connector-curvature="0"
         style="fill:#ffffff" />
      <path
         class="cls-1"
         d="m 561,23.2 v 15.2 h -3 v -21 h 4.15 L 565.59,30 V 17.4 h 2.95 v 21 h -3.4 z"
         id="path3772"
         inkscape:connector-curvature="0"
         style="fill:#ffffff" />
      <path
         class="cls-1"
         d="m 574.19,38.4 h -3.3 v -21 h 3.3 v 9 h 3.75 v -9 h 3.37 v 21 h -3.37 v -9 h -3.75 z"
         id="path3774"
         inkscape:connector-curvature="0"
         style="fill:#ffffff" />
      <path
         class="cls-1"
         d="m 593.32,34.54 2.52,-17.14 h 3 l -3.24,21 h -4.92 l -3.24,-21 h 3.33 z"
         id="path3776"
         inkscape:connector-curvature="0"
         style="fill:#ffffff" />
      <path
         class="cls-1"
         d="m 600.39,17.4 h 3.3 v 21 h -3.3 z"
         id="path3778"
         inkscape:connector-curvature="0"
         style="fill:#ffffff" />
      <path
         class="cls-1"
         d="m 609.39,26.26 h 4.54 v 3 h -4.54 v 6.14 h 5.7 v 3 h -9 v -21 h 9 v 3 h -5.7 z m -3.21,-9.87 2.8,-3.52 h 3.15 l 2.78,3.52 h -3 l -1.41,-1.74 -1.38,1.74 z M 612.13,40 v 3 h -3.06 v -3 z"
         id="path3780"
         inkscape:connector-curvature="0"
         style="fill:#ffffff" />
      <path
         class="cls-1"
         d="m 620.07,23.2 v 15.2 h -3 v -21 h 4.15 l 3.4,12.6 V 17.4 h 2.95 v 21 h -3.4 z"
         id="path3782"
         inkscape:connector-curvature="0"
         style="fill:#ffffff" />
    </g>
  </g>
</svg>
