<svg xmlns="http://www.w3.org/2000/svg" viewBox="0 0 25.34 21.88"><defs><style>.cls-1{fill:#375f99;}</style></defs><title>bao_cao_bv</title><g id="Layer_2" data-name="Layer 2"><g id="Layer_1-2" data-name="Layer 1"><path class="cls-1" d="M9.73,0a1,1,0,0,0-1,1V2.46h1.8V2.38a.65.65,0,0,1,.66-.65H23a.65.65,0,0,1,.65.65v8.53a.41.41,0,0,1-.41.41v1.8h1.1a1,1,0,0,0,1-1V1a1,1,0,0,0-1-1Zm0,0"/><path class="cls-1" d="M5.25,5.9H7a.65.65,0,0,1,.66-.65H19.18a.92.92,0,0,1,.92.91v8.27a.41.41,0,0,1-.41.41h-.16v1.72h1.26a1,1,0,0,0,1-1V4.39a1,1,0,0,0-.95-.95H6.28a1,1,0,0,0-1,1Zm0,0"/><path class="cls-1" d="M18.37,11.73a2.13,2.13,0,0,0-2.13-2.13H9.92v0L9.29,8.22A2.13,2.13,0,0,0,7.35,7H2.13A2.13,2.13,0,0,0,0,9.1V20.62a1.2,1.2,0,0,0,1.19,1.2l16.19.06A1.49,1.49,0,0,0,18.75,21l1.19-2.57a.63.63,0,0,0,0-.6.63.63,0,0,0-.53-.29h-1Zm-6.15,4.84H10.5v1.8H8.69v-1.8H7V14.84H8.69v-1.7a0,0,0,0,1,0,0H10.5v1.72h1.72Zm0,0"/></g></g></svg>