<svg xmlns="http://www.w3.org/2000/svg" viewBox="0 0 25 25.51"><defs><style>.cls-1{fill:#129f5b;}</style></defs><title>bao_cao_duoc_vat_tu</title><g id="Layer_2" data-name="Layer 2"><g id="Layer_1-2" data-name="Layer 1"><path class="cls-1" d="M9.65,7.84h-5a1.25,1.25,0,0,0,0,2.5h5a1.25,1.25,0,0,0,0-2.5Z"/><path class="cls-1" d="M14.94,13.29H4.7a1.25,1.25,0,0,0,0,2.5h7.87A6.81,6.81,0,0,1,14.94,13.29Z"/><path class="cls-1" d="M11.78,18.26H4.7a1.24,1.24,0,1,0,0,2.47h7.25a6.48,6.48,0,0,1-.17-2.47Z"/><path class="cls-1" d="M13.42,23.52H2.77a.8.8,0,0,1-.8-.79v-20A.81.81,0,0,1,2.77,2h11.6V4.2A1.79,1.79,0,0,0,16.15,6l2.18,0v6.27h.19a6.77,6.77,0,0,1,1.78.24V5.08L15.34,0H2.77A2.77,2.77,0,0,0,0,2.78v20a2.78,2.78,0,0,0,2.77,2.78H16.45A6.78,6.78,0,0,1,13.42,23.52Z"/><path class="cls-1" d="M19.24,13.38A5.76,5.76,0,1,0,25,19.14,5.76,5.76,0,0,0,19.24,13.38Zm0,1.77a1.8,1.8,0,1,1,2.53,2.57l-.39.38a2.73,2.73,0,0,0-.57-.06l-.17,0a2.66,2.66,0,0,0-1.33.44,3.19,3.19,0,0,0-1.62-1.26l-.43-.14Zm-1.65,6.56a1.72,1.72,0,0,1-2.42-2.46l1.77-1.74h0a2.9,2.9,0,0,1,.72.23L16,19.43a.16.16,0,0,0,.15.28l.08,0S18,17.93,18,17.9a3.25,3.25,0,0,1,1,.91,2.59,2.59,0,0,0-.79,2.37Zm1.36.63a2.5,2.5,0,0,1,3.46-3.48Zm3.86.38a2.56,2.56,0,0,1-3.18.31l3.48-3.5A2.53,2.53,0,0,1,22.8,22.73Z"/></g></g></svg>