<svg xmlns="http://www.w3.org/2000/svg" viewBox="0 0 18.22 11.02"><defs><style>.cls-1{fill:#fff;}</style></defs><title>btn_xem</title><g id="Layer_2" data-name="Layer 2"><g id="Layer_1-2" data-name="Layer 1"><path class="cls-1" d="M9.11,0C3.07,0,0,4.77,0,5.51S3.18,11,9.11,11s9.11-4.77,9.11-5.51S15.15,0,9.11,0Zm0,9.85a4.14,4.14,0,0,1-4-4.24,4.14,4.14,0,0,1,4-4.24,4.14,4.14,0,0,1,4,4.24,4.14,4.14,0,0,1-4,4.24Zm2-4.34a2.11,2.11,0,0,1-2,2.12,2,2,0,0,1-2-2.12,2.11,2.11,0,0,1,2-2.12c.64,0-.42,1.69,0,2.12s2-.53,2,0Z"/></g></g></svg>