<svg xmlns="http://www.w3.org/2000/svg" viewBox="0 0 22.73 25"><defs><style>.cls-1{fill:#375f99;}</style></defs><title>can_lam_sang_icon</title><g id="Layer_2" data-name="Layer 2"><g id="Layer_1-2" data-name="Layer 1"><path class="cls-1" d="M16.39,5a5,5,0,1,1-5-5,5,5,0,0,1,5,5Zm0,0"/><path class="cls-1" d="M16.45,10.51h-.06l-.21,2.78c0,.39-.31.08-.7.16l-1.6.32.39,1.16a.87.87,0,0,1-.05.68l-2.07,4.05a.94.94,0,0,1-.76.4.8.8,0,0,1-.79-.4L8.52,15.62a.87.87,0,0,1,0-.68l.39-1.16-1.6-.32c-.38-.08-.67.23-.7-.16l-.22-2.79H6.29C2.82,10.51,0,12.7,0,16.17v7.06A1.76,1.76,0,0,0,1.76,25H21a1.76,1.76,0,0,0,1.76-1.76V16.15c0-3.46-2.81-5.65-6.28-5.65ZM18.7,21.95H17.37v1.3a.87.87,0,1,1-1.74,0v-1.3h-1.3a.87.87,0,1,1,0-1.74h1.3V18.88a.87.87,0,1,1,1.74,0v1.33H18.7a.87.87,0,1,1,0,1.74Zm0,0"/><path class="cls-1" d="M12.35,13.65l1.59-.39.13-2H8.67l.13,2,1.59.39a.75.75,0,0,1,.48.42c.1.22.13-.15.06.09l-.49,1.75.93,2.2.93-2.2-.49-1.75c-.07-.24,0,.13.06-.09a.74.74,0,0,1,.48-.42Zm0,0"/></g></g></svg>