<svg xmlns="http://www.w3.org/2000/svg" viewBox="0 0 26 26"><defs><style>.cls-1{fill:#fff;}.cls-2{fill:none;}</style></defs><title>cathehoa</title><g id="Layer_2" data-name="Layer 2"><g id="Layer_1-2" data-name="Layer 1"><path class="cls-1" d="M13,10.79A4.14,4.14,0,1,0,8.86,6.64,4.15,4.15,0,0,0,13,10.79Zm0,0"/><path class="cls-1" d="M18.56,12.8h0c-.54-.13-2.19-.36-2.19-.36a.37.37,0,0,0-.45.23l-2.49,6.82a.45.45,0,0,1-.84,0l-2.49-6.82a.37.37,0,0,0-.34-.24s-1.73.24-2.3.38a3.52,3.52,0,0,0-2.52,3.49V22A1.54,1.54,0,0,0,6.47,23.5H19.53A1.54,1.54,0,0,0,21.07,22v-5.7a3.65,3.65,0,0,0-2.51-3.47Zm0,0"/><path class="cls-1" d="M13.94,12.3a.53.53,0,0,0-.39-.16H12.45a.53.53,0,0,0-.39.16.51.51,0,0,0-.07.6l.59.88-.27,2.31.54,1.44a.16.16,0,0,0,.31,0l.54-1.44-.27-2.31L14,12.9a.51.51,0,0,0-.07-.6Zm0,0"/><rect class="cls-2" width="26" height="26"/></g></g></svg>