<svg xmlns="http://www.w3.org/2000/svg" viewBox="0 0 14.83 16"><defs><style>.cls-1{fill:#fff;}</style></defs><title>danh_muc_w</title><g id="Layer_2" data-name="Layer 2"><g id="Layer_1-2" data-name="Layer 1"><path class="cls-1" d="M13.17,0H1.65A1.55,1.55,0,0,0,0,1.42V14.58A1.55,1.55,0,0,0,1.65,16H13.17a1.55,1.55,0,0,0,1.65-1.42V1.42A1.55,1.55,0,0,0,13.17,0ZM2.61,13.14a.91.91,0,1,1,.91-.91A.91.91,0,0,1,2.61,13.14Zm0-4.23A.91.91,0,1,1,3.53,8,.91.91,0,0,1,2.61,8.91Zm0-4.23a.91.91,0,1,1,.91-.91A.91.91,0,0,1,2.61,4.68Zm9.6,8.46H5.07a.91.91,0,0,1,0-1.83h7.14a.91.91,0,1,1,0,1.83Zm0-4.23H5.07a.91.91,0,0,1,0-1.83h7.14a.91.91,0,1,1,0,1.83Zm0-4.23H5.07a.91.91,0,0,1,0-1.83h7.14a.91.91,0,1,1,0,1.83Z"/></g></g></svg>