<svg xmlns="http://www.w3.org/2000/svg" viewBox="0 0 66.03 59"><defs><style>.cls-1{fill:#fff;}</style></defs><title>dieu_tri_noi_tru</title><g id="Layer_2" data-name="Layer 2"><g id="Layer_1-2" data-name="Layer 1"><polygon class="cls-1" points="35.69 8.38 32.4 8.38 32.4 10.88 29.86 10.88 29.86 14.12 32.4 14.12 32.4 16.62 35.69 16.62 35.69 14.12 38.23 14.12 38.23 10.88 35.69 10.88 35.69 8.38"/><path class="cls-1" d="M57,5V.9a.9.9,0,0,0-.9-.9H9.88A.9.9,0,0,0,9,.9V5a.9.9,0,0,1-.9.9H.9a.9.9,0,0,0-.9.9V58.1a.9.9,0,0,0,.9.9H17.08a.9.9,0,0,0,.9-.9V54a.9.9,0,0,1,.9-.9h28a.9.9,0,0,1,.9.9V58.1a.9.9,0,0,0,.9.9h16.5a.9.9,0,0,0,.9-.9V6.81a.9.9,0,0,0-.9-.9h-7.2A.9.9,0,0,1,57,5ZM19.23,40.22H15.67a.9.9,0,0,1-.9-.9V35.77a.9.9,0,0,1,.9-.9h3.56a.9.9,0,0,1,.9.9v3.56A.9.9,0,0,1,19.23,40.22Zm0-9.45H15.67a.9.9,0,0,1-.9-.9V26.32a.9.9,0,0,1,.9-.9h3.56a.9.9,0,0,1,.9.9v3.56A.9.9,0,0,1,19.23,30.77Zm10.39,9.45H26.07a.9.9,0,0,1-.9-.9V35.77a.9.9,0,0,1,.9-.9h3.56a.9.9,0,0,1,.9.9v3.56A.9.9,0,0,1,29.62,40.22Zm0-9.45H26.07a.9.9,0,0,1-.9-.9V26.32a.9.9,0,0,1,.9-.9h3.56a.9.9,0,0,1,.9.9v3.56A.9.9,0,0,1,29.62,30.77ZM40,40.22H36.46a.9.9,0,0,1-.9-.9V35.77a.9.9,0,0,1,.9-.9H40a.9.9,0,0,1,.9.9v3.56A.9.9,0,0,1,40,40.22Zm0-9.45H36.46a.9.9,0,0,1-.9-.9V26.32a.9.9,0,0,1,.9-.9H40a.9.9,0,0,1,.9.9v3.56A.9.9,0,0,1,40,30.77ZM34,21a8.57,8.57,0,0,1-8.64-8.5,8.64,8.64,0,0,1,17.27,0A8.57,8.57,0,0,1,34,21ZM50.41,40.22H46.85a.9.9,0,0,1-.9-.9V35.77a.9.9,0,0,1,.9-.9h3.56a.9.9,0,0,1,.9.9v3.56A.9.9,0,0,1,50.41,40.22Zm0-9.45H46.85a.9.9,0,0,1-.9-.9V26.32a.9.9,0,0,1,.9-.9h3.56a.9.9,0,0,1,.9.9v3.56A.9.9,0,0,1,50.41,30.77Z"/></g></g></svg>