<svg xmlns="http://www.w3.org/2000/svg" viewBox="0 0 13.7 14.17"><defs><style>.cls-1{fill:#636464;}</style></defs><title>ds_chuc_nang</title><g id="Layer_2" data-name="Layer 2"><g id="Layer_1-2" data-name="Layer 1"><circle class="cls-1" cx="10.65" cy="10.98" r="0.8"/><path class="cls-1" d="M10.65,7.92A3.05,3.05,0,1,0,13.7,11,3.05,3.05,0,0,0,10.65,7.92Zm2.24,3.5-.6,0a1.7,1.7,0,0,1-.13.33l.4.45-.63.63-.45-.4a1.69,1.69,0,0,1-.33.13l0,.6H10.2l0-.6a1.69,1.69,0,0,1-.33-.13l-.45.4-.63-.63.4-.45A1.7,1.7,0,0,1,9,11.46l-.6,0v-.89l.6,0a1.7,1.7,0,0,1,.13-.33l-.4-.45.63-.63.45.4a1.69,1.69,0,0,1,.33-.13l0-.6h.89l0,.6a1.69,1.69,0,0,1,.33.13l.45-.4.63.63-.4.45a1.7,1.7,0,0,1,.13.33l.6,0Z"/><path class="cls-1" d="M6.85,11.46H5.11a.58.58,0,0,1-.58-.58v0a.58.58,0,0,1,.58-.58H6.87a3.64,3.64,0,0,1,.4-1.12H5.11a.58.58,0,0,1-.58-.58v0a.58.58,0,0,1,.58-.58H8.35a3.65,3.65,0,0,1,3.16-.53V1.9A1.91,1.91,0,0,0,9.61,0H1.9A1.91,1.91,0,0,0,0,1.9V12.27a1.91,1.91,0,0,0,1.9,1.9H8.78A3.67,3.67,0,0,1,6.85,11.46ZM4.53,3.16a.58.58,0,0,1,.58-.58H9.92a.58.58,0,0,1,.58.58v0a.58.58,0,0,1-.58.58H5.11a.58.58,0,0,1-.58-.58Zm0,2.67a.58.58,0,0,1,.58-.58H9.92a.58.58,0,0,1,.58.58v0a.58.58,0,0,1-.58.58H5.11a.58.58,0,0,1-.58-.58Zm-.93,4.72L2.33,11.81a.35.35,0,0,1-.49,0l-.64-.64a.35.35,0,1,1,.49-.49l.4.4,1-1a.35.35,0,1,1,.49.49Zm0-2.86L2.33,8.95a.35.35,0,0,1-.49,0l-.64-.64a.35.35,0,1,1,.49-.49l.4.4,1-1a.35.35,0,0,1,.49.49ZM3.59,5,2.33,6.29a.35.35,0,0,1-.49,0l-.64-.64a.35.35,0,1,1,.49-.49l.4.4,1-1A.35.35,0,0,1,3.59,5Zm0-2.86L2.33,3.42a.35.35,0,0,1-.49,0l-.64-.64a.35.35,0,1,1,.49-.49l.4.4,1-1a.35.35,0,1,1,.49.49Z"/></g></g></svg>