<?xml version="1.0" encoding="utf-8"?>
<!-- Generator: Adobe Illustrator 21.0.2, SVG Export Plug-In . SVG Version: 6.00 Build 0)  -->
<svg version="1.1" id="Layer_1" xmlns="http://www.w3.org/2000/svg" xmlns:xlink="http://www.w3.org/1999/xlink" x="0px" y="0px"
	 viewBox="0 0 66.5 68" style="enable-background:new 0 0 66.5 68;" xml:space="preserve">
<style type="text/css">
	.st0{fill:#FFFFFF;}
</style>
<g>
	<path class="st0" d="M34.5,34.8c-6.2,6.2-7,16-2.2,23l25.1-25.3C54.1,30,43.1,26.2,34.5,34.8z"/>
	<path class="st0" d="M62.5,37.4L37.2,62.8c10.1,6.1,19.2,1.6,23.1-2.3C66.5,54.3,67.2,44.5,62.5,37.4z"/>
	<path class="st0" d="M34.9,29.8c1.1-0.7,2.3-1.3,3.6-1.9c1.9-0.8,3.9-1.2,6.1-1.3c0.4,0,0.8-0.1,1.3-0.1c1.4,0,2.8,0.2,4.1,0.4
		l2.8-2.8c5.1-5.1,5.2-13.4,0.1-18.5c-3.2-3.3-7.8-4.6-12.3-3.6c-2.3,0.5-4.5,1.7-6.2,3.4L20,19.7l3.1,1
		C28.6,22.5,32.4,26.1,34.9,29.8z"/>
	<path class="st0" d="M32.1,32.1c-1.7-2.4-3.9-4.8-6.9-6.6c0,0.2-12.7,12.8-12.7,12.8c-0.2,0.2-0.4,0.3-0.6,0.3
		c-0.4,0.1-0.8,0-1.1-0.3c-0.5-0.5-0.5-1.2,0-1.7l12.4-12.1c-1.6-0.7-3.3-1.3-5.2-1.7l-0.3-0.1L4.9,35.4c-4.9,4.8-5,12.8-0.1,17.7
		c3.1,3.1,7.5,4.4,11.8,3.4c2.2-0.5,4.3-1.6,5.9-3.3l3.9-3.9c-0.2-1-0.3-2-0.3-3C26.1,40.7,28.4,35.7,32.1,32.1z"/>
</g>
</svg>
