<svg xmlns="http://www.w3.org/2000/svg" viewBox="0 0 28.04 24.94"><defs><style>.cls-1{fill:#375f99;}</style></defs><title>he_thong_icon</title><g id="Layer_2" data-name="Layer 2"><g id="Layer_1-2" data-name="Layer 1"><path class="cls-1" d="M24.89,0H3.14A3.14,3.14,0,0,0,0,3.14V17.69a3.15,3.15,0,0,0,3.14,3.14h7.14v1.76H6.68a1.18,1.18,0,1,0,0,2.36H21.36a1.18,1.18,0,0,0,0-2.36H17.75V20.83h7.14A3.15,3.15,0,0,0,28,17.69V3.14A3.14,3.14,0,0,0,24.89,0Zm-.45,17.14a.36.36,0,0,1-.36.36H4a.36.36,0,0,1-.36-.36V3.69A.36.36,0,0,1,4,3.33H24.07a.36.36,0,0,1,.36.36Z"/><path class="cls-1" d="M19.36,11.57V9.43l-1.44-.09a4.06,4.06,0,0,0-.32-.78l1-1.09L17,6,16,6.92a4,4,0,0,0-.78-.32l-.09-1.45H13L12.86,6.6a4,4,0,0,0-.78.32L11,6,9.48,7.47l1,1.09a4.08,4.08,0,0,0-.32.78l-1.44.09v2.13l1.44.09a4.07,4.07,0,0,0,.32.78l-1,1.09L11,15l1.09-1a4,4,0,0,0,.78.32L13,15.85h2.13l.09-1.45a4,4,0,0,0,.78-.32L17,15l1.51-1.51-1-1.09a4.06,4.06,0,0,0,.32-.78ZM14,12.41a1.91,1.91,0,1,1,1.91-1.91A1.91,1.91,0,0,1,14,12.41Z"/></g></g></svg>