<svg xmlns="http://www.w3.org/2000/svg" viewBox="0 0 16.11 18.42"><defs><style>.cls-1{fill:#fff;}</style></defs><title>icon_ktra</title><g id="Layer_2" data-name="Layer 2"><g id="Layer_1-2" data-name="Layer 1"><path class="cls-1" d="M15,2.3H13.81V1.15A1.15,1.15,0,0,0,12.66,0H1.15A1.15,1.15,0,0,0,0,1.15V15a1.15,1.15,0,0,0,1.15,1.15H2.3v1.15a1.15,1.15,0,0,0,1.15,1.15H15a1.15,1.15,0,0,0,1.15-1.15V3.45A1.15,1.15,0,0,0,15,2.3ZM1.15,15V1.15H12.66V15ZM15,17.27H3.45V16.11h9.21A1.15,1.15,0,0,0,13.81,15V3.45H15Z"/><path class="cls-1" d="M10.93,3.45H5.18a.58.58,0,1,0,0,1.15h5.76a.58.58,0,1,0,0-1.15Z"/><path class="cls-1" d="M10.93,6.91H2.88a.58.58,0,1,0,0,1.15h8.06a.58.58,0,1,0,0-1.15Z"/><path class="cls-1" d="M10.93,9.21H2.88a.58.58,0,0,0,0,1.15h8.06a.58.58,0,1,0,0-1.15Z"/><path class="cls-1" d="M10.93,11.51H2.88a.58.58,0,1,0,0,1.15h8.06a.58.58,0,1,0,0-1.15Z"/></g></g></svg>