<svg xmlns="http://www.w3.org/2000/svg" viewBox="0 0 15 16.31"><defs><style>.cls-1{fill:#2a7044;}</style></defs><title>icon_xuly</title><g id="Layer_2" data-name="Layer 2"><g id="Layer_1-2" data-name="Layer 1"><path class="cls-1" d="M9.05,4.46a.65.65,0,0,0-.66-.64H3.06a.65.65,0,0,0-.66.64v.81a.65.65,0,0,0,.66.64H8.39a.65.65,0,0,0,.66-.64Z"/><path class="cls-1" d="M11.22,8A3.78,3.78,0,1,0,15,11.79,3.78,3.78,0,0,0,11.22,8Zm-1,6a.33.33,0,0,1-.45.13,2.51,2.51,0,0,1-1.38-2.23,2.56,2.56,0,0,1,2.47-2.52V8.86h0a.12.12,0,0,1,.17,0l.84.81a.12.12,0,0,1,0,.17l-.84.81a.13.13,0,0,1-.17,0h0V10A1.91,1.91,0,0,0,9,11.91a1.87,1.87,0,0,0,1,1.67A.32.32,0,0,1,10.22,14Zm1.36.29v.53h0a.13.13,0,0,1-.18,0L10.55,14a.12.12,0,0,1,0-.17l.83-.81a.13.13,0,0,1,.18,0h0v.6a1.91,1.91,0,0,0,1.81-1.88,1.87,1.87,0,0,0-1-1.67.32.32,0,0,1-.14-.43.34.34,0,0,1,.45-.13A2.51,2.51,0,0,1,14,11.77,2.56,2.56,0,0,1,11.57,14.29Z"/><path class="cls-1" d="M9.05,7.55V7.43a.65.65,0,0,0-.66-.64H3.06a.65.65,0,0,0-.66.64v.8a.65.65,0,0,0,.66.64h4.4A4.79,4.79,0,0,1,9.05,7.55Z"/><path class="cls-1" d="M3.06,9.75a.65.65,0,0,0-.66.64v.81a.65.65,0,0,0,.66.64h3.4s0,0,0-.05a4.73,4.73,0,0,1,.46-2Z"/><path class="cls-1" d="M7.22,14.36a4.73,4.73,0,0,1-.57-1.27H1.27q0-4.73,0-9.46H2.8a.81.81,0,0,0,.59-.24.91.91,0,0,0,.25-.64c0-.37,0-.74,0-1.1q0-.19,0-.38H9.83v6A4.75,4.75,0,0,1,11.1,7V5.87q0-2.5,0-5A.9.9,0,0,0,11,.5a.84.84,0,0,0-.85-.5H3a.58.58,0,0,0-.44.19L.18,2.56A.58.58,0,0,0,0,3q0,.74,0,1.48,0,.41,0,.81H0v2.9q0,2.68,0,5.37a.76.76,0,0,0,.07.31.88.88,0,0,0,.87.49H7.22Z"/><path class="cls-1" d="M11.93,3.2V7.08a4.72,4.72,0,0,1,1.28.38c0-.75,0-1.43,0-1.91,0-.11,0-.22,0-.33s0-.23,0-.34q0-.46,0-.92t0-1.18A.77.77,0,0,0,12.55,2a3.22,3.22,0,0,0-.53,0H11.9a.34.34,0,0,0-.33.31c0,.18,0,.36,0,.55V3.2Z"/><path class="cls-1" d="M5.64,15H3.37s0-.05,0-.08a.35.35,0,0,0-.3-.32h-1v.42c0,.18,0,.35,0,.51a.52.52,0,0,0,.05.2A.87.87,0,0,0,3,16.3H9.72a4.76,4.76,0,0,1-2-1.26Z"/></g></g></svg>