<svg xmlns="http://www.w3.org/2000/svg" viewBox="0 0 11.9 15"><defs><style>.cls-1{fill:#2a7044;}</style></defs><title>icon-delete</title><g id="Layer_2" data-name="Layer 2"><g id="Layer_1-2" data-name="Layer 1"><path class="cls-1" d="M.48,3.78s.41.37.41.59v9.49A1.23,1.23,0,0,0,2.2,15H9.7A1.23,1.23,0,0,0,11,13.86V4.37c0-.22.41-.59.41-.59V2.63H.48ZM8.1,5.1h1v7.33h-1Zm-2.62,0h1v7.33h-1Zm-2.36,0h1v7.33h-1Zm0,0"/><path class="cls-1" d="M11.9,1.33h-3A1.77,1.77,0,0,0,7.08,0H4.82A1.77,1.77,0,0,0,3,1.33H0V2H11.9Zm-7.85,0A.84.84,0,0,1,4.82.87H7.08a.84.84,0,0,1,.77.45Zm0,0"/></g></g></svg>