<svg xmlns="http://www.w3.org/2000/svg" viewBox="0 0 96.8 99"><defs><style>.cls-1{fill:#e1e1e1;}.cls-2{fill:#fff;}</style></defs><title>img_user2</title><g id="Layer_2" data-name="Layer 2"><g id="Layer_1-2" data-name="Layer 1"><rect class="cls-1" width="96.8" height="99"/><path class="cls-2" d="M92.59,90.84A252.78,252.78,0,0,0,67.61,80,3,3,0,0,1,66,78.71a43.38,43.38,0,0,1-1.68-4.76,3.33,3.33,0,0,0-1.71-2.49A1.4,1.4,0,0,1,62,70.36c.06-3.72-.82-7.65,1.95-10.89a1.17,1.17,0,0,0,.18-.38c1.49-3.25,1.76-7,3.83-10a.41.41,0,0,0,.07-.26c.24-2.31.49-4.62.69-6.94,0-.29-.21-.8-.47-.87-1.14-.42-1.09-1.33-1.09-2.26,0-4.52,0-9.05,0-13.58a8.64,8.64,0,0,0-2.76-6.74c-2.26-2-4.58-4-6.91-6-1.13-.94-1.21-1.67-.16-2.73A13.55,13.55,0,0,1,59,8.54,5.06,5.06,0,0,1,58.61,8,13.27,13.27,0,0,0,56.5,8c-2.56.42-5.15.78-7.67,1.36C44,10.54,39.32,12,35.41,15.28c-2.69,2.2-4.82,4.77-5.09,8.42-.15,1.89-.13,3.82-.13,5.72,0,3.09,0,6.2-.05,9.31,0,.51-.29,1.35-.64,1.46-1.28.4-1.29,1.22-1.13,2.25.11.71,0,1.48.18,2.18.43,1.95.89,3.87,1.45,5.8a33.26,33.26,0,0,1,1.46,4.22,14.39,14.39,0,0,0,3.47,7.6,2.25,2.25,0,0,1,.54,1.44c-.16,2.23-.38,4.45-.69,6.67a1.54,1.54,0,0,1-.89,1.14c-1.47.31-1.71,1.46-2.05,2.6-.47,1.53-1,3-1.56,4.53a2.28,2.28,0,0,1-1.09,1.13c-2.63,1.14-5.31,2.2-8,3.31-2.82,1.18-5.65,2.33-8.41,3.63s-5.6,2.89-8.36,4.38A19.69,19.69,0,0,0,0,94.13V99H96.8V93.91a16.41,16.41,0,0,0-4.22-3.07Zm0,0"/></g></g></svg>