<svg xmlns="http://www.w3.org/2000/svg" viewBox="0 0 14.9 14.17"><defs><style>.cls-1{fill:#fff;}</style></defs><title>in</title><g id="Layer_2" data-name="Layer 2"><g id="Layer_1-2" data-name="Layer 1"><path class="cls-1" d="M3.72,11.34v2.83h7.45V9.45H3.72Zm.93-.95h5.59v.95H4.66Zm0,1.89h5.59v.95H4.66Zm0,0"/><path class="cls-1" d="M11.18,2.83V0H3.72V4.72h7.45Zm0,0"/><path class="cls-1" d="M13,2.83H12.1V5.67H2.79V2.83H1.86A2,2,0,0,0,0,4.72V9.45a2,2,0,0,0,1.86,1.89h.93V8.5H12.1v2.84H13A2,2,0,0,0,14.9,9.45V4.72A2,2,0,0,0,13,2.83Zm0,0"/></g></g></svg>