<svg xmlns="http://www.w3.org/2000/svg" viewBox="0 0 15.12 14.17"><defs><style>.cls-1{fill:#8e8e8e;}</style></defs><title>in_!</title><g id="Layer_2" data-name="Layer 2"><g id="Layer_1-2" data-name="Layer 1"><path class="cls-1" d="M3.78,11.34v2.83h7.56V9.45H3.78Zm.95-.95h5.67v.95H4.72Zm0,1.89h5.67v.95H4.72Zm0,0"/><path class="cls-1" d="M11.34,2.83V0H3.78V4.72h7.56Zm0,0"/><path class="cls-1" d="M13.23,2.83h-.95V5.67H2.83V2.83H1.89A2,2,0,0,0,0,4.72V9.45a2,2,0,0,0,1.89,1.89h.94V8.5h9.45v2.84h.95a2,2,0,0,0,1.89-1.89V4.72a2,2,0,0,0-1.89-1.89Zm0,0"/></g></g></svg>