<svg xmlns="http://www.w3.org/2000/svg" viewBox="0 0 74.34 63.72"><defs><style>.cls-1{fill:#fff;}</style></defs><title>kham_ngoai_tru1</title><g id="Layer_2" data-name="Layer 2"><g id="Layer_1-2" data-name="Layer 1"><path class="cls-1" d="M2.74,13.36A8.94,8.94,0,0,0,0,19.91V54.43A9,9,0,0,0,2.74,61a9,9,0,0,0,6.56,2.74h1.33V10.62H9.29a9,9,0,0,0-6.56,2.74Zm0,0"/><path class="cls-1" d="M53.1,4a3.84,3.84,0,0,0-1.16-2.82A3.84,3.84,0,0,0,49.12,0H25.22A3.85,3.85,0,0,0,22.4,1.16,3.84,3.84,0,0,0,21.24,4v6.64H14.6v53.1H59.74V10.62H53.1ZM26.55,5.31H47.79v5.31H26.55ZM53.1,41.15a1.28,1.28,0,0,1-1.33,1.33H42.48v9.29a1.28,1.28,0,0,1-1.33,1.33h-8a1.28,1.28,0,0,1-1.33-1.33V42.48H22.57a1.28,1.28,0,0,1-1.33-1.33v-8a1.28,1.28,0,0,1,1.33-1.33h9.29V22.57a1.28,1.28,0,0,1,1.33-1.33h8a1.28,1.28,0,0,1,1.33,1.33v9.29h9.29a1.27,1.27,0,0,1,1.33,1.33v8Zm0,0"/><path class="cls-1" d="M71.61,13.36A9,9,0,0,0,65,10.62H63.72v53.1H65a9.35,9.35,0,0,0,9.29-9.29V19.91a8.94,8.94,0,0,0-2.74-6.55Zm0,0"/></g></g></svg>