<svg xmlns="http://www.w3.org/2000/svg" viewBox="0 0 12.35 12"><defs><style>.cls-1{fill:#fff;}</style></defs><title>lam_lai_w</title><g id="Layer_2" data-name="Layer 2"><g id="Layer_1-2" data-name="Layer 1"><path class="cls-1" d="M12,3.14l-.64.25a6,6,0,1,0-4.5,8.54,5.22,5.22,0,0,0,1.76-.54,6,6,0,0,0,2.1-1.83l-1.38-1a4.35,4.35,0,0,1-1.5,1.3,3.57,3.57,0,0,1-1.24.37A4.32,4.32,0,1,1,9,2.92a4.35,4.35,0,0,1,.84,1.16L9.2,4.4a.23.23,0,0,0-.05.37l2.76,2.38A.21.21,0,0,0,12.25,7s.09-3.64.09-3.64A.22.22,0,0,0,12,3.14Z"/></g></g></svg>