<svg id="Layer_1" data-name="Layer 1" xmlns="http://www.w3.org/2000/svg" viewBox="0 0 20 17"><defs><style>.cls-1{fill:#fff;}</style></defs><title>lephi</title><path class="cls-1" d="M18.27,2.18c0,1.21-4,2.18-9,2.18s-9-1-9-2.18S4.27,0,9.25,0s9,1,9,2.18Zm0,0"/><path class="cls-1" d="M2.86,6.69a24.35,24.35,0,0,0,6.39.76c5.12,0,7.51-1.16,7.51-1.16,1-.38,1.53-.81,1.53-1.2V3.26a3.72,3.72,0,0,1-1.82,1.11V5.49a.29.29,0,0,1-.3.28.28.28,0,0,1-.3-.28V4.56l-.48.12V6a.4.4,0,0,1-.8,0V4.84a30.93,30.93,0,0,1-5.34.42c-4.74,0-8.63-.88-9-2V5.13c0,.52,1,1.1,2.65,1.56Zm0,0"/><path class="cls-1" d="M20,8.08a3.68,3.68,0,0,1-1.82,1.11v1.12a.28.28,0,0,1-.3.28.29.29,0,0,1-.3-.28V9.38l-.48.12v1.36a.4.4,0,0,1-.8,0V9.66a30.81,30.81,0,0,1-5.33.42c-4.74,0-8.64-.88-9-2,0,0,0,0,0,.06V10c0,.52,1,1.1,2.65,1.55a24,24,0,0,0,6.4.77c5.12,0,7.51-1.16,7.51-1.16,1-.38,1.53-.81,1.53-1.2V8.14a.13.13,0,0,0,0-.06Zm0,0"/><path class="cls-1" d="M9,14.81a31.84,31.84,0,0,1-5.33-.42v1.2a.38.38,0,0,1-.4.37.38.38,0,0,1-.4-.37V14.23l-.48-.12V15a.29.29,0,0,1-.3.28.28.28,0,0,1-.3-.28V13.92A3.68,3.68,0,0,1,0,12.81a.13.13,0,0,0,0,.06v1.77c0,.39.55.82,1.53,1.2C1.53,15.84,3.92,17,9,17a24,24,0,0,0,6.4-.77c1.66-.45,2.65-1,2.65-1.55V12.87s0,0,0-.06c-.4,1.12-4.3,2-9,2Zm0,0"/><path class="cls-1" d="M9.55,8.28a22.87,22.87,0,0,1-6.4-.77A9.7,9.7,0,0,1,2,7.11c.17,1.17,4.14,2.11,9,2.11s9-1,9-2.19c0-.43-.52-.83-1.41-1.17v.06c0,.41-.61.86-1.68,1.26a22.69,22.69,0,0,1-7.36,1.1Zm0,0"/><path class="cls-1" d="M9.07,14c4.87,0,8.84-.94,9-2.1a9.79,9.79,0,0,1-1.19.39,22.51,22.51,0,0,1-6.4.77,22.69,22.69,0,0,1-7.36-1.1c-1.07-.4-1.68-.85-1.68-1.26V10.6C.56,10.93,0,11.34,0,11.77c0,1.2,4,2.18,9,2.18Zm0,0"/></svg>