<svg id="Layer_1" data-name="Layer 1" xmlns="http://www.w3.org/2000/svg" viewBox="0 0 20 17"><defs><style>.cls-1{fill:#9da39f;}</style></defs><title>lephi-ghi</title><path class="cls-1" d="M18.27,2.18c0,1.21-4,2.18-9,2.18s-9-1-9-2.18S4.27,0,9.25,0s9,1,9,2.18Z"/><path class="cls-1" d="M2.86,6.69a24.62,24.62,0,0,0,6.39.76c5.12,0,7.51-1.16,7.51-1.16,1-.38,1.53-.81,1.53-1.2V3.26a3.71,3.71,0,0,1-1.82,1.11V5.49a.29.29,0,0,1-.3.28h0a.29.29,0,0,1-.3-.26v-1l-.48.12V6a.4.4,0,0,1-.8,0V4.84a31.79,31.79,0,0,1-5.34.42c-4.74,0-8.63-.88-9-2V5.13c0,.52,1,1.1,2.65,1.56Z"/><path class="cls-1" d="M20,8.08a3.67,3.67,0,0,1-1.82,1.11v1.12a.28.28,0,0,1-.28.28h0a.29.29,0,0,1-.3-.28h0V9.38l-.48.12v1.36a.4.4,0,0,1-.8,0V9.66a31.67,31.67,0,0,1-5.33.42c-4.74,0-8.64-.88-9-2V10c0,.52,1,1.1,2.65,1.55a24.23,24.23,0,0,0,6.4.77c5.12,0,7.51-1.16,7.51-1.16,1-.38,1.53-.81,1.53-1.2V8.08Z"/><path class="cls-1" d="M9,14.81a31.67,31.67,0,0,1-5.33-.42v1.2a.38.38,0,0,1-.39.37h0a.38.38,0,0,1-.4-.36h0V14.23l-.48-.12V15a.29.29,0,0,1-.3.28h0a.29.29,0,0,1-.3-.26v-1.1A3.7,3.7,0,0,1,0,12.81v1.83c0,.39.55.82,1.53,1.2C1.53,15.84,3.92,17,9,17a24.23,24.23,0,0,0,6.4-.77c1.66-.45,2.65-1,2.65-1.55V12.81c-.4,1.12-4.3,2-9,2Z"/><path class="cls-1" d="M9.55,8.28a22.67,22.67,0,0,1-6.4-.77A9.2,9.2,0,0,1,2,7.11c.17,1.17,4.14,2.11,9,2.11s9-1,9-2.19c0-.43-.52-.83-1.41-1.17v.06c0,.41-.61.86-1.68,1.26A22.7,22.7,0,0,1,9.55,8.28Z"/><path class="cls-1" d="M9.07,14c4.87,0,8.84-.94,9-2.1a8.7,8.7,0,0,1-1.19.39,22.67,22.67,0,0,1-6.4.77A22.7,22.7,0,0,1,3.12,12c-1.07-.4-1.68-.85-1.68-1.26v-.1C.56,10.93,0,11.34,0,11.77,0,13,4,14,9,14Z"/></svg>