<svg xmlns="http://www.w3.org/2000/svg" viewBox="0 0 11.76 14.17"><defs><style>.cls-1{fill:#fff;}</style></defs><title>lich_su</title><g id="Layer_2" data-name="Layer 2"><g id="Layer_1-2" data-name="Layer 1"><path class="cls-1" d="M11.21.78H9.09V.48A.51.51,0,0,0,8.55,0H3.21a.51.51,0,0,0-.54.48v.3H.54A.51.51,0,0,0,0,1.25V13.7a.51.51,0,0,0,.54.48H11.21a.51.51,0,0,0,.54-.48V1.25a.51.51,0,0,0-.54-.48ZM3.76,1H8v.6H3.76Zm6.91,12.27H1.09V1.73H2.67V2a.51.51,0,0,0,.54.48H8.55A.51.51,0,0,0,9.09,2v-.3h1.58Zm0,0"/><path class="cls-1" d="M3.45,7.29H4.53v.94a.51.51,0,0,0,.54.48H6.69a.51.51,0,0,0,.54-.48V7.29H8.3a.51.51,0,0,0,.54-.48V5.4a.51.51,0,0,0-.54-.48H7.23V4a.51.51,0,0,0-.54-.48H5.07A.51.51,0,0,0,4.53,4v.94H3.45a.51.51,0,0,0-.54.48V6.82a.51.51,0,0,0,.54.48ZM4,5.88H5.07a.51.51,0,0,0,.54-.48V4.46h.53V5.4a.51.51,0,0,0,.54.48H7.76v.46H6.69a.51.51,0,0,0-.54.48v.94H5.61V6.82a.51.51,0,0,0-.54-.48H4Zm0,0"/><path class="cls-1" d="M3.21,11.06H8.55a.48.48,0,1,0,0-1H3.21a.48.48,0,1,0,0,1Zm0,0"/><path class="cls-1" d="M9,11.67H2.77a.48.48,0,1,0,0,1H9a.48.48,0,1,0,0-1Zm0,0"/></g></g></svg>