<svg xmlns="http://www.w3.org/2000/svg" xmlns:xlink="http://www.w3.org/1999/xlink" viewBox="0 0 181.77 40"><defs><style>.cls-1{fill:#cdbb7d;}.cls-2{fill:#5f5d51;}.cls-3{fill:#007f7c;}.cls-4{fill:#72a203;}.cls-5{fill:#f0dc01;}.cls-6{fill:#f1d003;}.cls-7{fill:#e71405;}.cls-8{fill:#739d00;}.cls-9{fill:#efd400;}.cls-10{fill:#e50102;}.cls-11{fill:#e40000;}.cls-12{fill:#f8d500;}.cls-13{fill:#0e6f9c;}.cls-14{fill:#487900;}.cls-15{fill:#edda02;}.cls-16{fill:#e10000;}.cls-17{fill:#de0002;}.cls-18{fill:#e70100;}.cls-19{fill:#e8d203;}.cls-20{fill:#211917;}.cls-21{fill:none;}.cls-22{fill:url(#linear-gradient);}.cls-23{fill:url(#linear-gradient-2);}.cls-24{fill:url(#linear-gradient-3);}.cls-25{fill:url(#linear-gradient-4);}.cls-26{fill:url(#linear-gradient-5);}.cls-27{fill:url(#linear-gradient-6);}.cls-28{fill:url(#linear-gradient-7);}.cls-29{fill:url(#linear-gradient-8);}.cls-30{fill:url(#linear-gradient-9);}</style><linearGradient id="linear-gradient" x1="53.55" y1="24.71" x2="68.96" y2="15.81" gradientUnits="userSpaceOnUse"><stop offset="0" stop-color="#e7bb57"/><stop offset="0.64" stop-color="#fbf2aa"/><stop offset="1" stop-color="#cfb97d"/></linearGradient><linearGradient id="linear-gradient-2" x1="67.97" y1="22.87" x2="86.77" y2="12.02" xlink:href="#linear-gradient"/><linearGradient id="linear-gradient-3" x1="85.72" y1="25.57" x2="101.33" y2="16.56" xlink:href="#linear-gradient"/><linearGradient id="linear-gradient-4" x1="100.21" y1="24.76" x2="115.68" y2="15.82" xlink:href="#linear-gradient"/><linearGradient id="linear-gradient-5" x1="114.55" y1="24.76" x2="130.03" y2="15.82" xlink:href="#linear-gradient"/><linearGradient id="linear-gradient-6" x1="126.63" y1="25.65" x2="144.77" y2="15.17" xlink:href="#linear-gradient"/><linearGradient id="linear-gradient-7" x1="144.24" y1="24.71" x2="159.65" y2="15.81" xlink:href="#linear-gradient"/><linearGradient id="linear-gradient-8" x1="156.99" y1="23.96" x2="174.03" y2="14.12" xlink:href="#linear-gradient"/><linearGradient id="linear-gradient-9" x1="171.97" y1="22.81" x2="185.53" y2="14.98" xlink:href="#linear-gradient"/></defs><title>logo1</title><g id="Layer_2" data-name="Layer 2"><g id="Layer_1-2" data-name="Layer 1"><path class="cls-1" d="M20,0A20,20,0,1,0,40,20,20,20,0,0,0,20,0Zm0,34.59A14.63,14.63,0,1,1,34.68,20,14.63,14.63,0,0,1,20,34.59Z"/><path class="cls-2" d="M11.34,31.72l.18-.14a15.46,15.46,0,0,0,3-2.93s.31-.32.78-.88a10.87,10.87,0,0,0,1.22-12.1L13.35,10s0-1.4,3-4.26h0a14.74,14.74,0,0,1,11.79,2L27,9.45S24.3,18.85,26.87,27c0,0-.49,3.59-4.39,7.05l-.27.27-.12.12A14.27,14.27,0,0,1,11.34,31.72Z"/><path class="cls-3" d="M11.18,11.54,13,9.67l1.6,1.42L17.29,11s2.48-3.28,5.23,0H25.1L27,9.59l1.77,1.77L28.82,24a14.29,14.29,0,0,1-7.1,7.18,1.14,1.14,0,0,1-.62,1.24s-.35.89-1.15.8a1.11,1.11,0,0,1-1.24-.8A1.1,1.1,0,0,1,18.09,31s-5.32-2.13-6.83-6.83Z"/><polygon class="cls-4" points="11.79 11.78 13.04 10.45 14.46 11.6 14.01 11.96 14.19 23.31 13.21 24.11 12.06 24.11 11.88 23.93 11.79 11.78"/><path class="cls-5" d="M12.81,14.57H13v-.27s.71-.89-.09-1.51a1.1,1.1,0,0,0-.09,1.51Z"/><path class="cls-6" d="M12.9,16.61h.18v-.35a1.39,1.39,0,0,0,.62-1.51,1.42,1.42,0,0,0-.63.64.09.09,0,0,1-.16,0,1.43,1.43,0,0,0-.72-.65,1.51,1.51,0,0,0,.71,1.51Z"/><path class="cls-6" d="M12.9,18.21h.18v-.35a1.39,1.39,0,0,0,.62-1.51,1.42,1.42,0,0,0-.63.64.09.09,0,0,1-.16,0,1.43,1.43,0,0,0-.72-.65,1.51,1.51,0,0,0,.71,1.51Z"/><path class="cls-6" d="M12.9,19.72h.18v-.35a1.39,1.39,0,0,0,.62-1.51,1.42,1.42,0,0,0-.63.64.09.09,0,0,1-.16,0,1.43,1.43,0,0,0-.72-.65,1.51,1.51,0,0,0,.71,1.51Z"/><path class="cls-6" d="M12.9,21.23h.18v-.35a1.39,1.39,0,0,0,.62-1.51,1.42,1.42,0,0,0-.63.64.09.09,0,0,1-.16,0,1.43,1.43,0,0,0-.72-.65,1.51,1.51,0,0,0,.71,1.51Z"/><path class="cls-6" d="M12.9,22.76h.18V22.4a1.39,1.39,0,0,0,.62-1.51,1.42,1.42,0,0,0-.63.64.09.09,0,0,1-.16,0,1.43,1.43,0,0,0-.72-.65,1.51,1.51,0,0,0,.71,1.51Z"/><path class="cls-6" d="M12.9,24.15h.18V23.8a1.39,1.39,0,0,0,.62-1.51,1.42,1.42,0,0,0-.63.64.09.09,0,0,1-.16,0,1.43,1.43,0,0,0-.72-.65,1.51,1.51,0,0,0,.71,1.51Z"/><polygon class="cls-4" points="28.31 11.53 27.07 10.2 25.65 11.35 26.1 11.71 25.92 23.06 26.89 23.86 28.05 23.86 28.22 23.68 28.31 11.53"/><path class="cls-5" d="M27.29,14.33h-.18v-.27s-.71-.89.09-1.51a1.1,1.1,0,0,1,.09,1.51Z"/><path class="cls-6" d="M27.2,16.37H27V16a1.39,1.39,0,0,1-.62-1.51,1.42,1.42,0,0,1,.63.64.09.09,0,0,0,.16,0,1.43,1.43,0,0,1,.72-.65A1.51,1.51,0,0,1,27.2,16Z"/><path class="cls-6" d="M27.2,18H27v-.35a1.39,1.39,0,0,1-.62-1.51,1.42,1.42,0,0,1,.63.64.09.09,0,0,0,.16,0,1.43,1.43,0,0,1,.72-.65,1.51,1.51,0,0,1-.71,1.51Z"/><path class="cls-6" d="M27.2,19.47H27v-.35a1.39,1.39,0,0,1-.62-1.51,1.42,1.42,0,0,1,.63.64.09.09,0,0,0,.16,0,1.43,1.43,0,0,1,.72-.65,1.51,1.51,0,0,1-.71,1.51Z"/><path class="cls-6" d="M27.2,21H27v-.35a1.39,1.39,0,0,1-.62-1.51,1.42,1.42,0,0,1,.63.64.09.09,0,0,0,.16,0,1.43,1.43,0,0,1,.72-.65,1.51,1.51,0,0,1-.71,1.51Z"/><path class="cls-6" d="M27.2,22.51H27v-.35a1.39,1.39,0,0,1-.62-1.51,1.42,1.42,0,0,1,.63.64.09.09,0,0,0,.16,0,1.43,1.43,0,0,1,.72-.65,1.51,1.51,0,0,1-.71,1.51Z"/><path class="cls-6" d="M27.2,23.9H27v-.35A1.39,1.39,0,0,1,26.41,22a1.42,1.42,0,0,1,.63.64.09.09,0,0,0,.16,0,1.43,1.43,0,0,1,.72-.65,1.51,1.51,0,0,1-.71,1.51Z"/><polygon class="cls-7" points="4.21 26.95 4.5 27.83 5.41 27.82 4.67 28.34 4.95 29.23 4.21 28.68 3.47 29.23 3.72 28.35 3.02 27.82 3.93 27.82 4.21 26.95"/><polygon class="cls-7" points="35.74 26.88 36.02 27.76 36.94 27.75 36.2 28.28 36.48 29.16 35.74 28.62 35 29.16 35.25 28.29 34.55 27.75 35.46 27.75 35.74 26.88"/><path class="cls-8" d="M17.87,11.23a2.52,2.52,0,0,1,4.21,0,9.78,9.78,0,0,1-2.28,1.18A5.61,5.61,0,0,1,17.87,11.23Z"/><path class="cls-9" d="M19.9,10.05a3.78,3.78,0,0,0-1,1.93V22.31h1.73l-.22-12.22A2.15,2.15,0,0,0,19.9,10.05Z"/><path class="cls-10" d="M17.42,11.49l1.52.8v2.2A13.18,13.18,0,0,1,17.42,11.49Z"/><polygon class="cls-10" points="14.93 11.56 16.84 11.49 19.22 16.06 14.93 11.56"/><polygon class="cls-10" points="14.46 11.87 19.22 16.06 19.08 16.64 14.46 14.21 14.46 11.87"/><polygon class="cls-10" points="14.54 14.77 18.94 16.64 19.08 16.9 14.54 16.9 14.54 14.77"/><polygon class="cls-10" points="14.71 17.3 19.22 17.14 19.22 17.3 14.54 19.39 14.54 17.3 14.71 17.3"/><polygon class="cls-10" points="14.66 20 19.22 17.3 19.31 17.41 14.66 21.93 14.66 20"/><polygon class="cls-10" points="14.46 22.86 18.98 17.83 19.08 17.88 17.07 21.82 15.84 22.44 16.08 23.37 15.64 23.59 15.05 23.13 14.66 23.14 14.46 22.86"/><polyline class="cls-10" points="18.94 18.26 17.26 22.22 17.61 22.66 17.86 22.74 18.94 22.48 18.94 18.26"/><path class="cls-10" d="M22.2,11.72l-1.52.8v2.2A13.18,13.18,0,0,0,22.2,11.72Z"/><polygon class="cls-10" points="24.82 11.61 22.92 11.54 20.53 16.11 24.82 11.61"/><polygon class="cls-10" points="25.38 11.87 20.62 16.06 20.76 16.64 25.38 14.21 25.38 11.87"/><polygon class="cls-10" points="25.42 14.72 21.02 16.58 20.88 16.84 25.42 16.84 25.42 14.72"/><polygon class="cls-10" points="25.18 17.3 20.66 17.14 20.66 17.3 25.34 19.39 25.34 17.3 25.18 17.3"/><polygon class="cls-10" points="25.14 19.95 20.57 17.25 20.48 17.35 25.14 21.88 25.14 19.95"/><polygon class="cls-10" points="25.51 22.77 20.83 18.04 20.73 18.09 22.89 21.95 24.09 22.51 23.98 23.17 24.52 23.43 25.01 23.48 25.14 22.97 25.51 22.77"/><polyline class="cls-10" points="20.69 18.13 22.81 22.55 22.54 22.71 21.75 22.55 20.69 22.45 20.69 18.13"/><polygon class="cls-11" points="19.8 13.82 20.66 15.56 22.57 15.84 21.19 17.19 21.52 19.1 19.8 18.2 18.09 19.1 18.41 17.19 17.03 15.84 18.95 15.56 19.8 13.82"/><polygon class="cls-12" points="19.08 15.59 19.8 14.21 20.5 15.64 19.76 16.55 19.08 15.59"/><polygon class="cls-12" points="20.6 15.78 22.14 16.01 21.01 17.14 19.91 16.73 20.6 15.78"/><polygon class="cls-12" points="20.94 17.28 21.25 18.77 19.82 18.07 19.84 16.9 20.94 17.28"/><polygon class="cls-12" points="19.67 18.06 18.3 18.77 18.54 17.2 19.67 16.89 19.67 18.06"/><polygon class="cls-12" points="18.52 17.05 17.42 15.96 19 15.71 19.64 16.7 18.52 17.05"/><path class="cls-13" d="M24.06,22.93l.14-.59a0,0,0,0,0,0,0l-1.3-.42a0,0,0,0,0,0,0l-.27.68a.1.1,0,0,1-.11.06,11,11,0,0,0-1.73-.23,0,0,0,0,1,0,0v-1a0,0,0,0,0,0,0H19a0,0,0,0,0,0,0v1a0,0,0,0,1,0,0,9,9,0,0,0-1.1.2.24.24,0,0,1-.27-.12l-.44-.7a0,0,0,0,0,0,0l-1.18.59a0,0,0,0,0,0,0L16,23a.35.35,0,0,1-.15.46l-.16.09a0,0,0,0,0,0,.05l.24.34a0,0,0,0,0,0,0,10.18,10.18,0,0,1,8.65-.08,0,0,0,0,0,0,0l.25-.36a0,0,0,0,0,0-.05,6.61,6.61,0,0,0-.7-.31A.17.17,0,0,1,24.06,22.93Z"/><path class="cls-14" d="M13.61,26.63l2.79-.33.07.13a1.91,1.91,0,0,0,.37.4,9.45,9.45,0,0,0,1.29,1,3.29,3.29,0,0,0,1.76.61,3.57,3.57,0,0,0,1.92-.67,4.62,4.62,0,0,0,1.29-1.34,3.53,3.53,0,0,0,3.3-.16c-.05,0-.1.21-.14.26a5.92,5.92,0,0,1-.48.71c-1.69,2.17-4.59,4.38-7.48,3.22A11.36,11.36,0,0,1,14.77,28a7.27,7.27,0,0,1-.62-.7l-.29-.38S13.68,26.62,13.61,26.63Z"/><path class="cls-15" d="M19.11,30.18h-.44c-.13,0-.37-.21-.49-.28l-.56-.3a10.59,10.59,0,0,0-1.14-.46s-.3-.15-.34-.12l.68-.43H16L15.18,28l.89-.19-.26-.2-.63.18-1-.83,1.91-.27L16,27.3l.21.09.09-.71.74.59.06,1h.21v-.84l1.8,1.27V29l-.3-.09-.62-.38v.33l.93.4v.34h-.28l-.75-.44v.24l1,.52Z"/><path class="cls-15" d="M20.55,30.24H21l.51-.28.59-.33a5,5,0,0,1,.6-.25l.8-.29h0l-.68-.43h.81l.84-.61-.89-.19.29-.22.59.21,1-.83-1.91-.27.07.62-.21.09-.09-.71-.74.59-.06,1h-.21v-.84l-1.8,1.27v.34l.3-.09.62-.38v.33l-.93.4v.34h.28l.75-.44v.24l-1,.52Z"/><path class="cls-16" d="M16.63,26.62s1.8,1.84,3.35,1.8a4.14,4.14,0,0,0,3.14-2S20.69,25.11,16.63,26.62Z"/><path class="cls-17" d="M14,24.73l1-.57.34-.2c.09-.06.2-.16.32-.12s.11.13.05.22l-1.45.87S13.7,24.93,14,24.73Z"/><path class="cls-17" d="M12.18,24.52l.09.15.15.22.41.6.41.6.22.33,0,0h.9a0,0,0,0,0,0,0,5.5,5.5,0,0,0-.49-.67c-.14-.21-.29-.4-.42-.62a.31.31,0,0,1,0-.09.48.48,0,0,1,0-.25c0-.12.15-.18.25-.24L14,24.4l.61-.39.38-.24c.09-.05.18-.11.18-.23s-.11-.13-.19-.13a.53.53,0,0,0-.3.14L14,24l-.38.26a1.15,1.15,0,0,1-.65.15,2.08,2.08,0,0,1-.65-.11.41.41,0,0,0-.16-.06c-.08,0-.1.06-.09.13A.52.52,0,0,0,12.18,24.52Z"/><path class="cls-17" d="M26.51,24.54l-1-.57-.34-.2c-.09-.06-.2-.16-.32-.12s-.11.13-.05.22l1.45.87S26.85,24.74,26.51,24.54Z"/><path class="cls-17" d="M28.37,24.27l-.1.14-.16.22-.42.59-.42.59-.23.32,0,0-.9,0a0,0,0,0,1,0,0,5.5,5.5,0,0,1,.51-.66c.14-.2.3-.39.43-.6a.31.31,0,0,0,0-.09.48.48,0,0,0,0-.25c0-.13-.14-.18-.25-.25l-.21-.14-.6-.4-.38-.25c-.08-.06-.17-.12-.17-.23s.11-.13.19-.12a.53.53,0,0,1,.3.14l.61.44.37.27a1.15,1.15,0,0,0,.64.17,2.08,2.08,0,0,0,.66-.09.41.41,0,0,1,.16-.06c.08,0,.1.06.09.13A.52.52,0,0,1,28.37,24.27Z"/><path class="cls-18" d="M14,25.21a1.12,1.12,0,0,0,.68-.12,10,10,0,0,1,10.82-.34,1.13,1.13,0,0,0,.78.19L25,26.54s-5-2.11-9.36.41Z"/><polygon class="cls-19" points="19.11 26.14 19.19 30.69 20.47 30.72 20.47 26.39 19.11 26.14"/><path class="cls-14" d="M20.52,30.76l-1.37,0-.08-4.65,1.45.28Zm-1.28-.12,1.19,0V26.43l-1.27-.24Z"/><line class="cls-19" x1="20.36" y1="26.66" x2="19.13" y2="27.38"/><rect class="cls-14" x="19.03" y="26.97" width="1.42" height="0.09" transform="translate(-10.99 13.77) rotate(-30.52)"/><line class="cls-19" x1="20.49" y1="27.39" x2="19.14" y2="28.27"/><rect class="cls-14" x="19.01" y="27.78" width="1.61" height="0.09" transform="translate(-12.02 15.44) rotate(-33.29)"/><line class="cls-19" x1="19.15" y1="29.11" x2="20.47" y2="28.25"/><rect class="cls-14" x="19.03" y="28.64" width="1.57" height="0.09" transform="translate(-12.47 15.53) rotate(-33.19)"/><line class="cls-19" x1="19.16" y1="29.99" x2="20.46" y2="29.11"/><rect class="cls-14" x="19.03" y="29.51" width="1.56" height="0.09" transform="translate(-13.12 16.09) rotate(-33.94)"/><line class="cls-19" x1="19.38" y1="30.73" x2="20.5" y2="30"/><rect class="cls-14" x="19.27" y="30.32" width="1.33" height="0.09" transform="translate(-13.29 15.69) rotate(-32.88)"/><path class="cls-19" d="M18.09,26.71a.43.43,0,0,0,.2-.11,1.61,1.61,0,0,1,1-.22,3.54,3.54,0,0,1,.83.22,1.59,1.59,0,0,0,.86,0,2.3,2.3,0,0,0,.58-.21,1.17,1.17,0,0,0,.36-.25.15.15,0,0,0-.09-.25.52.52,0,0,0-.4.15,1.1,1.1,0,0,1-.42.16,2.36,2.36,0,0,1-1,0c-.26-.06-.49-.18-.76-.21A1.91,1.91,0,0,0,18,26.3a.25.25,0,0,0-.08.25.2.2,0,0,0,.14.16Z"/><path class="cls-14" d="M18.08,26.75h0a.24.24,0,0,1-.17-.19.29.29,0,0,1,.1-.3,1.94,1.94,0,0,1,1.28-.34,2.41,2.41,0,0,1,.45.12l.31.09a2.31,2.31,0,0,0,1,0,1,1,0,0,0,.4-.15h0a.54.54,0,0,1,.43-.15A.21.21,0,0,1,22,26a.2.2,0,0,1,0,.19,1.18,1.18,0,0,1-.36.26,2.34,2.34,0,0,1-.6.21,1.6,1.6,0,0,1-.89,0l-.15,0a2.75,2.75,0,0,0-.67-.17,1.59,1.59,0,0,0-1,.22l0,0a.37.37,0,0,1-.19.09h0Zm1-.76a2,2,0,0,0-1,.34.2.2,0,0,0-.06.21.16.16,0,0,0,.11.12h0a.3.3,0,0,0,.14-.07l0,0a1.67,1.67,0,0,1,1-.23,2.82,2.82,0,0,1,.69.17l.15,0a1.52,1.52,0,0,0,.84,0,2.24,2.24,0,0,0,.57-.2,1.14,1.14,0,0,0,.34-.24.11.11,0,0,0,0-.11.12.12,0,0,0-.09-.08.47.47,0,0,0-.36.13h0a1.13,1.13,0,0,1-.43.17,2.39,2.39,0,0,1-1,0l-.32-.1a2.34,2.34,0,0,0-.44-.12Z"/><path class="cls-20" d="M4.56,22.48a3.59,3.59,0,0,0,.23-1H5A4,4,0,0,1,4.69,23,1.15,1.15,0,0,1,3.6,24.29a1.35,1.35,0,0,1-1-.14,1.43,1.43,0,0,1-.34-1.84,1.34,1.34,0,0,1,.88-.49A1.15,1.15,0,0,1,4.56,22.48Zm-2.17.76q.12.66,1.1.48a1.46,1.46,0,0,0,.63-.25.57.57,0,0,0,.23-.59q-.12-.66-1.1-.48T2.39,23.24Z"/><path class="cls-20" d="M1.83,21q0-.46,0-.55t0-.54h.22a.37.37,0,0,0,.06.25.39.39,0,0,0,.26.06h1.1a.68.68,0,0,0,.43-.1.49.49,0,0,0,.15-.4q0-.53-.58-.53H2.38a.38.38,0,0,0-.25.06.35.35,0,0,0-.07.25H1.84v0q0-.08,0-.24t0-.24,0-.5h.22v.06q0,.2.32.21H3.43a1,1,0,0,1,.74.25,1.07,1.07,0,0,1,.22.76q0,1-.88,1H2.36a.59.59,0,0,0-.22,0A.17.17,0,0,0,2,21v0Z"/><path class="cls-20" d="M2,16.14,2,16.39H1.92a.44.44,0,0,1-.21-.17q-.12-.15-.19-.16t-.12.1.06.13h.07l0,.13-.3-.06a.82.82,0,0,1,0-.28.58.58,0,0,1,.13-.27.26.26,0,0,1,.26-.11.37.37,0,0,1,.24.22q.1.19.16.2Zm.11.49L2.27,16l2-.33.27-.06a.3.3,0,0,0,.18-.19l.21,0q0,.19-.09.42l-.06.3q0,.21-.08.41l-.21,0a.68.68,0,0,0,0-.21.15.15,0,0,0-.13-.13,2.51,2.51,0,0,0-.47,0l-.18.9a3.46,3.46,0,0,0,.42.22.15.15,0,0,0,.17-.07.87.87,0,0,0,.07-.19l.21,0q0,.2-.12.55t-.1.52l-.21,0q0-.19-.31-.41Zm.36-.24.94.57.14-.69Z"/><path class="cls-20" d="M2.72,14.18l.39-.93,2.26-.09L4,12.58a.39.39,0,0,0-.26,0q-.08,0-.16.21l-.2-.08h0l.1-.23.1-.23.1-.24.1-.24h0l.2.08a.35.35,0,0,0,0,.25.38.38,0,0,0,.21.16L6,12.94l-.27.64-2.25.1,1.39.57a.4.4,0,0,0,.26,0q.08,0,.16-.2l.2.08-.16.36-.11.26L5,15.14l-.2-.08a.35.35,0,0,0,0-.26.37.37,0,0,0-.21-.16l-1.32-.55a.37.37,0,0,0-.26,0,.36.36,0,0,0-.16.21Z"/><path class="cls-20" d="M5.13,9.48,5.51,9l.37-.48.17.13a.57.57,0,0,0-.14.26q0,.1.16.23l1.31,1,.22-.28a.63.63,0,0,0,.18-.37q0-.13-.25-.32L7.67,9l.62.48L7.09,11l-.17-.13a.34.34,0,0,0,.1-.24.39.39,0,0,0-.16-.2L5.74,9.57a.38.38,0,0,0-.24-.11q-.09,0-.2.15Z"/><path class="cls-20" d="M6.8,7.41l.38-.34.39-.37.15.16q-.15.14-.07.23a.4.4,0,0,0,.14.07l.67.26-.19-.67a.35.35,0,0,0-.07-.14q-.09-.1-.24,0l-.15-.16h0L8,6.29l.18-.16.35-.33L8.69,6a.28.28,0,0,0-.09.2,1.11,1.11,0,0,0,0,.23l.23,1.14.34.37q.13.14.22.13a.5.5,0,0,0,.22-.15L9.8,8l-.44.39-.43.41-.15-.16a.48.48,0,0,0,.16-.21q0-.09-.11-.23l-.35-.38L7.39,7.53a.45.45,0,0,0-.44,0Zm.53-.87-.13.12,0-.78a.43.43,0,0,1,.09-.3.16.16,0,0,1,.25,0q.08.09,0,.29Z"/><path class="cls-20" d="M10.59,4.34h0l.24-.12.24-.12.47-.25.1.19q-.2.1-.16.19a.23.23,0,0,0,.11.08l.56.27L12.24,4a.35.35,0,0,0,0-.19q0-.08-.24,0l-.1-.19,0,0,.24-.12.24-.12.46-.24.1.19a.48.48,0,0,0-.24.36l-.22,1,1,.39a1.06,1.06,0,0,0,.26.08A.46.46,0,0,0,14,5.16l.1.19-.54.27L13,5.9l-.1-.19q.19-.11.14-.21a.25.25,0,0,0-.12-.1l-.58-.27-.09.62a.24.24,0,0,0,0,.14q.05.1.24,0l.1.19,0,0-.24.12-.24.12-.43.23-.1-.19A.5.5,0,0,0,11.81,6L12,5l-1-.42a.43.43,0,0,0-.33,0Z"/><path class="cls-20" d="M13.79,2.81l.54-.15.52-.16.06.21a.37.37,0,0,0-.23.13.39.39,0,0,0,0,.26L15,4.16a.68.68,0,0,0,.22.38.49.49,0,0,0,.43,0q.51-.15.34-.71l-.3-1a.38.38,0,0,0-.13-.23.35.35,0,0,0-.26,0l-.06-.21h0l.23-.06.23-.06.48-.15.06.21-.06,0q-.2.06-.11.36l.29,1a1,1,0,0,1,0,.79,1.07,1.07,0,0,1-.67.43q-1,.28-1.21-.56l-.32-1.11a.59.59,0,0,0-.09-.2A.17.17,0,0,0,13.9,3l0,0Z"/><path class="cls-20" d="M18.1,1.85l.67-.06.89,1.82a1.33,1.33,0,0,0,.14.24A.3.3,0,0,0,20,4l0,.22-.43,0-.31,0-.42,0,0-.22a.68.68,0,0,0,.2,0,.15.15,0,0,0,.09-.16A2.49,2.49,0,0,0,19,3.42l-.91.08A3.45,3.45,0,0,0,18,4a.15.15,0,0,0,.11.14h.2l0,.22-.56,0-.53.06,0-.22q.19,0,.31-.41ZM18,.93l-.18,0,.49-.61a.43.43,0,0,1,.25-.19.16.16,0,0,1,.19.16q0,.12-.17.23Zm.21.05.29,0,.51.65h-.17l-.46-.32L18,1.7h-.17Zm.22,1.15L18.16,3.2l.7-.06Z"/><path class="cls-20" d="M20.59,1.72l.37,0,.37,0,.71.06.39,0,.38,0-.07.75-.27,0q0-.33-.08-.42a1.23,1.23,0,0,0-.45-.09L21.8,3.8a.34.34,0,0,0,.05.28.5.5,0,0,0,.26.07l0,.22-.62-.06-.62,0,0-.22a.48.48,0,0,0,.27,0q.08-.05.1-.26L21.4,2.1l-.22,0a.41.41,0,0,0-.29.05.34.34,0,0,0-.1.24s0,.08,0,.12l-.26,0Z"/><path class="cls-20" d="M25.32,2.47l.94.36.16,2.26.53-1.42a.39.39,0,0,0,0-.26q0-.08-.21-.15l.08-.2h0l.24.1.24.1.25.09.24.09h0l-.08.2a.35.35,0,0,0-.26,0,.38.38,0,0,0-.15.21l-.71,1.84L26,5.42l-.16-2.25-.53,1.41a.4.4,0,0,0,0,.26q0,.08.21.15l-.08.2L25,5l-.26-.1-.37-.13.08-.2a.35.35,0,0,0,.26,0,.37.37,0,0,0,.15-.22l.51-1.33a.37.37,0,0,0,0-.26.36.36,0,0,0-.21-.15Z"/><path class="cls-20" d="M28.69,3.87l.49.32.49.31-.12.18a.36.36,0,0,0-.24-.08q-.09,0-.19.18l-.29.45.88.56L30,5.35a.37.37,0,0,0,.08-.25q0-.09-.18-.19L30,4.73l.49.32.5.31-.12.18a.35.35,0,0,0-.24-.08q-.09,0-.19.18l-.77,1.2a.38.38,0,0,0-.09.25q0,.09.17.19l-.12.18-.49-.32-.5-.31.12-.18a.36.36,0,0,0,.25.08q.09,0,.19-.18l.32-.5-.88-.56-.32.5a.38.38,0,0,0-.09.25q0,.09.18.19l-.12.18-.49-.32L27.35,6l.12-.18a.34.34,0,0,0,.24.08q.09,0,.19-.18l.77-1.2a.38.38,0,0,0,.08-.25q0-.09-.17-.19Z"/><path class="cls-20" d="M32.48,6.65l.48.47L32.17,9a1.34,1.34,0,0,0-.09.26.3.3,0,0,0,.06.26L32,9.66l-.31-.31-.22-.21-.31-.29.15-.16a.68.68,0,0,0,.17.12.15.15,0,0,0,.18,0,2.51,2.51,0,0,0,.22-.41l-.66-.64A3.47,3.47,0,0,0,30.8,8a.15.15,0,0,0,0,.18.87.87,0,0,0,.13.16l-.15.16-.4-.4L30,7.69l.15-.16q.15.13.51,0ZM30.77,8.89a.26.26,0,1,1-.37,0A.23.23,0,0,1,30.77,8.89Zm1.72-1.8-1,.49.51.49Zm.72-.92.21.2-.16.81-.12-.12-.06-.56-.56,0-.12-.12Z"/><path class="cls-20" d="M34.21,8.47l.61.85a1.62,1.62,0,0,1,.32.66.62.62,0,0,1-.3.62.62.62,0,0,1-.76.06,2.87,2.87,0,0,1-.54-.63l-.41.3a.39.39,0,0,0-.17.2.35.35,0,0,0,.09.24l-.18.13-.26-.37-.15-.21-.28-.37.18-.13q.11.15.2.17a.38.38,0,0,0,.24-.1L34,9q.16-.11.17-.2A.36.36,0,0,0,34,8.6Zm.27.87-.72.52.13.17a.41.41,0,0,0,.65.11q.34-.25.06-.64Z"/><path class="cls-20" d="M37.39,14.59l-.62.23-.11-.3a.53.53,0,0,0,.32-.24.52.52,0,0,0,0-.4.68.68,0,0,0-.5-.47,1.22,1.22,0,0,0-.7.08,1.24,1.24,0,0,0-.59.41.68.68,0,0,0-.08.68.49.49,0,0,0,.26.31.59.59,0,0,0,.41,0l.11.3-.66.25a3,3,0,0,1-.44-.78,1.27,1.27,0,0,1,0-1,1.35,1.35,0,0,1,.8-.65,1.27,1.27,0,0,1,1,0,1.35,1.35,0,0,1,.66.79A3,3,0,0,1,37.39,14.59Z"/><path class="cls-20" d="M37.92,16.49l.12.66-1.74,1a1.33,1.33,0,0,0-.23.16.3.3,0,0,0-.1.25l-.21,0q0-.19-.07-.43l-.05-.3q0-.21-.08-.41l.21,0a.69.69,0,0,0,.06.19.15.15,0,0,0,.17.08,2.52,2.52,0,0,0,.42-.21l-.16-.9-.47-.05a.15.15,0,0,0-.13.12.87.87,0,0,0,0,.2l-.21,0q0-.2-.09-.56t-.1-.52l.21,0q0,.19.44.27Zm-.25.36-1.09-.19.12.69Zm.53.06,0-.26h.05a.44.44,0,0,1,.26.08.45.45,0,0,0,.23.08q.1,0,.08-.14t-.1-.1h-.07l0-.13.3-.05a.83.83,0,0,1,.1.26A.57.57,0,0,1,39,17a.26.26,0,0,1-.21.19.37.37,0,0,1-.3-.12q-.16-.14-.22-.13Z"/><path class="cls-20" d="M38.27,19l0,1-2.07.92,1.51,0a.39.39,0,0,0,.26-.06.35.35,0,0,0,.07-.25h.21q0,.09,0,.26t0,.26,0,.26q0,.17,0,.26H38a.35.35,0,0,0-.06-.25.38.38,0,0,0-.25-.07l-2,0v-.69l2.06-.92-1.5,0a.4.4,0,0,0-.26.06A.34.34,0,0,0,36,20h-.22q0-.18,0-.39v-.28q0-.21,0-.39H36a.35.35,0,0,0,.06.25.37.37,0,0,0,.25.07l1.43,0a.37.37,0,0,0,.26-.06.36.36,0,0,0,.07-.25Z"/><path class="cls-20" d="M38.11,22.64l-.14.57-.12.57-.21,0a.36.36,0,0,0,0-.26.37.37,0,0,0-.23-.12l-.52-.12-.23,1,.52.12a.37.37,0,0,0,.26,0,.36.36,0,0,0,.12-.23l.21,0-.14.57-.12.57-.21,0a.35.35,0,0,0,0-.26.37.37,0,0,0-.23-.12l-1.39-.32a.38.38,0,0,0-.26,0,.35.35,0,0,0-.12.23l-.21,0q.05-.2.14-.57t.12-.57l.21,0a.36.36,0,0,0,0,.26.38.38,0,0,0,.24.12l.58.13.23-1L36,23a.38.38,0,0,0-.26,0,.35.35,0,0,0-.12.23l-.21,0q.05-.2.14-.57t.12-.57l.21,0a.34.34,0,0,0,0,.26.39.39,0,0,0,.23.12l1.39.32a.38.38,0,0,0,.26,0,.35.35,0,0,0,.12-.23Z"/><path class="cls-20" d="M7.51,30l.38.45.39.44-.16.14a.36.36,0,0,0-.21-.15.37.37,0,0,0-.23.12L6.58,32a.38.38,0,0,0-.15.21.36.36,0,0,0,.12.23l-.16.14-.32-.38L5.93,32l-.31-.35.16-.14q.12.14.21.15a.39.39,0,0,0,.23-.12l1.08-.93a.38.38,0,0,0,.15-.21.35.35,0,0,0-.11-.23Z"/><path class="cls-20" d="M8.57,31.35l.42.36.43.35-.67,1.61a2.6,2.6,0,0,1-.17.33,2.1,2.1,0,0,1,.29-.23l1.47-.95.39.33.21.17.21.17,0,0-.14.17a.37.37,0,0,0-.24-.12q-.09,0-.21.16l-.89,1.11a.44.44,0,0,0-.12.23q0,.1.15.22l-.14.17-.42-.36-.41-.33.14-.17a.36.36,0,0,0,.24.11.38.38,0,0,0,.21-.16l1.1-1.32-2,1.29-.38-.32L9,32,7.89,33.33a.39.39,0,0,0-.12.23q0,.09.15.21l-.14.17-.4-.34L7,33.26l.14-.17a.32.32,0,0,0,.24.1.42.42,0,0,0,.2-.15l.94-1.1a.32.32,0,0,0,.1-.23.38.38,0,0,0-.15-.2Z"/><path class="cls-20" d="M11.57,33.76l.49.25.5.24L12.28,36a2.6,2.6,0,0,1-.09.36,2.1,2.1,0,0,1,.23-.29l1.21-1.26.45.23.24.11.24.11,0,0-.1.19a.37.37,0,0,0-.26-.06q-.08,0-.17.2l-.61,1.29a.44.44,0,0,0-.06.25q0,.09.2.18l-.1.19L13,37.26,12.54,37l.1-.19a.36.36,0,0,0,.25.05.38.38,0,0,0,.17-.2l.76-1.54-1.63,1.71-.45-.22.38-2.31-.75,1.53a.39.39,0,0,0-.06.26q0,.09.19.17l-.1.19-.46-.24L10.45,36l.1-.19a.32.32,0,0,0,.26,0,.42.42,0,0,0,.16-.2l.66-1.29a.32.32,0,0,0,0-.25.38.38,0,0,0-.19-.16Z"/><path class="cls-20" d="M15.12,35.36l.56.17.56.16-.06.21a.36.36,0,0,0-.26,0,.37.37,0,0,0-.13.23l-.4,1.37a.38.38,0,0,0,0,.26.36.36,0,0,0,.22.13l-.06.21-.47-.15-.2-.06-.45-.12.06-.21a.34.34,0,0,0,.26,0,.39.39,0,0,0,.13-.23l.4-1.37a.38.38,0,0,0,0-.26.35.35,0,0,0-.22-.13Z"/><path class="cls-20" d="M19,36.22l-.1.72-.34,0v-.07a.44.44,0,0,0-.09-.38.64.64,0,0,0-.37-.15.76.76,0,0,0-.66.2,1,1,0,0,0-.31.63,1.09,1.09,0,0,0,.12.75.86.86,0,0,0,.65.37h.27l.06-.41q0-.23,0-.3a.71.71,0,0,0-.35-.1l0-.21h0l.31,0,.3,0,.6.08,0,.21a.33.33,0,0,0-.24,0,.39.39,0,0,0-.08.22l-.1.69a4.2,4.2,0,0,1-.85,0,1.61,1.61,0,0,1-1-.45,1.22,1.22,0,0,1-.26-1q.18-1.28,1.6-1.08A4,4,0,0,1,19,36.22Z"/><path class="cls-20" d="M19.73,36.21l1,0a1.78,1.78,0,0,1,.71.08.57.57,0,0,1,.36.55.53.53,0,0,1-.42.59.37.37,0,0,1,.26.13.94.94,0,0,1,.12.27l0,.16a1.4,1.4,0,0,0,.12.33.33.33,0,0,0,.31.13v.22l-.75,0a2.59,2.59,0,0,1-.17-.5q0-.13-.1-.37a.32.32,0,0,0-.15-.17,1.18,1.18,0,0,0-.47,0l0,.57a.38.38,0,0,0,.07.25.35.35,0,0,0,.25.06v.22h-.72l-.45,0v-.22a.34.34,0,0,0,.25-.07.39.39,0,0,0,.05-.26l0-1.43a.38.38,0,0,0-.07-.25.35.35,0,0,0-.25-.06Zm.87.27,0,.83h.19a.7.7,0,0,0,.37-.09.36.36,0,0,0,.14-.33.4.4,0,0,0-.14-.33.62.62,0,0,0-.37-.07Z"/><path class="cls-20" d="M23.31,35.91l.66-.13,1.09,1.7a1.34,1.34,0,0,0,.17.22.3.3,0,0,0,.25.09l0,.21-.43.08-.3.06-.41.09,0-.21a.69.69,0,0,0,.19-.07.15.15,0,0,0,.07-.17,2.52,2.52,0,0,0-.22-.42l-.9.18a3.46,3.46,0,0,0,0,.47.15.15,0,0,0,.13.13h.2l0,.21-.55.11-.52.11,0-.21q.19,0,.26-.45Zm.36.24-.16,1.09.69-.14Z"/><path class="cls-20" d="M25.07,35.52l.35-.13.35-.13.66-.25.36-.14.36-.14.27.7-.25.1q-.12-.31-.26-.34a1.23,1.23,0,0,0-.44.12l.59,1.55q.07.2.17.23a.5.5,0,0,0,.27-.05l.08.2-.58.21-.58.23-.08-.2a.48.48,0,0,0,.23-.14.34.34,0,0,0,0-.28L26,35.5l-.21.08a.41.41,0,0,0-.24.17.34.34,0,0,0,0,.27l0,.11-.24.09Z"/><path class="cls-20" d="M27.58,34.49l.52-.27.51-.29.1.19q-.17.09-.19.18a.37.37,0,0,0,.07.25l.68,1.25q.09.17.18.19a.36.36,0,0,0,.25-.06l.1.19-.44.23-.19.1-.4.23-.1-.19q.16-.09.19-.18a.39.39,0,0,0-.07-.25l-.68-1.25q-.09-.17-.18-.19a.34.34,0,0,0-.25.06Z"/><path class="cls-20" d="M30.07,32.88a1.22,1.22,0,0,1,1-.28,1.58,1.58,0,0,1,1.15,1.53,1.42,1.42,0,0,1-1.5,1.12,1.59,1.59,0,0,1-1.15-1.53A1.22,1.22,0,0,1,30.07,32.88Zm.18.25q-.54.4.06,1.2a1.45,1.45,0,0,0,.5.45.57.57,0,0,0,.63-.06q.54-.4-.06-1.2T30.25,33.12Z"/><path class="cls-20" d="M31.47,31.86l.68-.74,2.16.68-1.12-1a.39.39,0,0,0-.23-.13q-.09,0-.22.14l-.16-.15h0l.18-.19.18-.19.17-.2.17-.2h0l.16.15a.35.35,0,0,0-.12.23.38.38,0,0,0,.15.22l1.45,1.33-.47.51-2.15-.67,1.11,1a.4.4,0,0,0,.23.13q.09,0,.22-.14l.16.15-.27.28-.19.21-.26.29-.16-.15a.35.35,0,0,0,.12-.23.37.37,0,0,0-.15-.22l-1.05-1a.37.37,0,0,0-.23-.12.36.36,0,0,0-.22.14Z"/><path class="cls-3" d="M15.71,25.22l.13,0a.26.26,0,0,1,0,.17.3.3,0,0,1-.13.12.29.29,0,0,1-.23,0,.29.29,0,0,1-.18-.15.3.3,0,0,1,0-.24.31.31,0,0,1,.15-.18.29.29,0,0,1,.2,0,.23.23,0,0,1,.11.06l-.1.09a.13.13,0,0,0-.08,0l-.09,0a.16.16,0,0,0-.08.1.21.21,0,0,0,0,.15.22.22,0,0,0,.12.12.15.15,0,0,0,.12,0,.14.14,0,0,0,.06-.07A.17.17,0,0,0,15.71,25.22Z"/><path class="cls-3" d="M15.91,25a.34.34,0,0,1,0-.15.29.29,0,0,1,0-.1.26.26,0,0,1,.06-.08.39.39,0,0,1,.12-.08.33.33,0,0,1,.25,0,.29.29,0,0,1,.17.17.29.29,0,0,1,0,.24.32.32,0,0,1-.18.16.33.33,0,0,1-.24,0A.28.28,0,0,1,15.91,25Zm0-.36,0-.14.11,0,.13.07-.09,0-.07,0,0,.07ZM16,25a.2.2,0,0,0,.1.12.18.18,0,0,0,.14,0,.17.17,0,0,0,.1-.1.2.2,0,0,0,0-.16.2.2,0,0,0-.1-.12.2.2,0,0,0-.24.1A.21.21,0,0,0,16,25Z"/><path class="cls-3" d="M16.72,25l-.17-.56.12,0,.37.29-.12-.37.12,0,.17.56-.13,0-.37-.28.11.36Z"/><path class="cls-3" d="M17.64,24.52l0-.1.28-.06.05.23a.39.39,0,0,1-.1.09.47.47,0,0,1-.15.06.4.4,0,0,1-.18,0,.26.26,0,0,1-.14-.08.31.31,0,0,1-.07-.14.3.3,0,0,1,0-.17.28.28,0,0,1,.1-.13.4.4,0,0,1,.15-.06.35.35,0,0,1,.2,0,.21.21,0,0,1,.11.1l-.12.05a.13.13,0,0,0-.07-.05h-.1a.2.2,0,0,0-.12.08.19.19,0,0,0,0,.15.21.21,0,0,0,.08.14.18.18,0,0,0,.14,0l.08,0,.06,0,0-.07Z"/><path class="cls-3" d="M19,24.52l-.14,0-.07-.12-.26,0,0,.14-.14,0L18.5,24l.14,0Zm-.27-.2-.12-.2-.06.23Z"/><path class="cls-3" d="M19.08,24.51l0-.58h.13l.29.37,0-.39h.12l0,.58h-.13l-.29-.36,0,.38Z"/><path class="cls-3" d="M20.07,24.47v-.58h.13l.26.39V23.9h.12v.58h-.13l-.25-.39v.38Z"/><path class="cls-3" d="M20.76,24.49l0-.58h.13l0,.23.26,0,0-.23h.13l0,.58h-.13l0-.25-.26,0,0,.25Z"/><path class="cls-3" d="M22,24.64l-.14,0,0-.14-.26,0-.07.12-.14,0,.34-.54.14,0ZM21.65,24l.11-.1.11,0,.07.13h-.1l0-.07-.06.05Zm.18.42-.06-.23-.12.2Z"/><path class="cls-3" d="M22.15,24.66l.12-.57.13,0,.18.44.08-.38.12,0-.12.57-.13,0-.18-.43-.08.37Z"/><path class="cls-3" d="M23.28,24.33l.23.07.12,0a.24.24,0,0,1,.08.08.25.25,0,0,1,0,.11.38.38,0,0,1,0,.14.33.33,0,0,1-.06.11.25.25,0,0,1-.1.08l-.1,0-.12,0-.24-.08Zm.1.13-.12.37.09,0,.08,0h.06l.05,0a.34.34,0,0,0,0-.1.31.31,0,0,0,0-.1.14.14,0,0,0,0-.07l0,0-.1,0Z"/><path class="cls-3" d="M24.31,25.33l-.13-.06v-.14l-.24-.1-.1.1-.13-.05.46-.44.13.05ZM24.17,25v-.23L24,25Zm-.07-.45.13-.07.11,0,0,.14-.09,0,0-.07-.07,0Z"/><path class="cls-3" d="M24.39,25.38l.28-.51.11.06.05.47.18-.34.11.06-.28.51-.12-.06-.05-.46-.18.33Z"/><path class="cls-3" d="M18.15,25.63l-.33-.54.14,0,.23.4.09-.45.14,0-.14.61Z"/><path class="cls-3" d="M18.64,25.55,18.58,25l.13,0,.07.58Z"/><path class="cls-3" d="M18.94,25.51l0-.58.48,0V25L19,25v.13l.33,0v.1l-.33,0v.16l.37,0v.1Zm.21-.65,0,0H19l.09-.06h.08l.1,0H19.2Zm0,.79v-.11h.13v.11Z"/><path class="cls-3" d="M19.75,25.47V25h-.2v-.1h.52V25h-.19v.48Z"/><path class="cls-3" d="M20.52,25.47l0-.58h.13l.24.4,0-.39h.12l0,.58h-.13l-.24-.4,0,.38Z"/><path class="cls-3" d="M21.81,25.59l-.14,0,0-.14-.26,0-.07.12-.14,0,.33-.55.14,0Zm-.21-.26-.06-.23-.11.2Z"/><path class="cls-3" d="M21.94,25.61l.11-.57.19,0,0,.41.19-.37.19,0-.11.57-.12,0,.09-.45-.22.43-.13,0,0-.47-.09.45Z"/><path class="cls-21" d="M20.51,31.21s.23.41.16.43a.46.46,0,0,0,.14-.1.4.4,0,0,0,.12-.27.57.57,0,0,0-.09-.35.33.33,0,0,0-.34-.12c-.08,0-.22.1-.2.23a.1.1,0,0,0,0,.06h.08v0a.09.09,0,0,1,0,.11Z"/><path class="cls-21" d="M20.59,31.66h.08l-.08,0Z"/><path class="cls-14" d="M21,30.81a.51.51,0,0,0-.54-.18.41.41,0,0,0-.33.42.27.27,0,0,0,.09.17.2.2,0,0,0,.16,0h0l0,0a.09.09,0,0,0,0-.11h-.09a.1.1,0,0,1,0-.06c0-.13.12-.21.2-.23a.33.33,0,0,1,.34.12.57.57,0,0,1,.09.35.4.4,0,0,1-.12.27.46.46,0,0,1-.14.1h-.08l-.15,0v.08a.62.62,0,0,1-.13.49.56.56,0,0,1-.37.16c-.45-.06-.44-.57-.44-.59v-.08h-.08a.55.55,0,0,1-.52-.59A.31.31,0,0,1,19,30.9a.5.5,0,0,1,.22-.13.35.35,0,0,1,.31.06.25.25,0,0,1,.08.1.13.13,0,0,1,0,.11.17.17,0,0,1-.11.05.09.09,0,0,0-.08.1.09.09,0,0,0,.1.08.34.34,0,0,0,.24-.13.29.29,0,0,0,0-.26.42.42,0,0,0-.15-.2.53.53,0,0,0-.45-.08.68.68,0,0,0-.31.17.49.49,0,0,0-.15.37.72.72,0,0,0,.6.76.7.7,0,0,0,.6.69h0a.74.74,0,0,0,.5-.21.75.75,0,0,0,.19-.54l.06,0a.59.59,0,0,0,.25-.16.58.58,0,0,0,.17-.39A.75.75,0,0,0,21,30.81Z"/><polygon class="cls-2" points="20.67 31.64 20.67 31.64 20.67 31.64 20.67 31.64"/><path class="cls-22" d="M67.43,21.05H60v4a4.26,4.26,0,0,0,.26,1.85,1.18,1.18,0,0,0,.95.35,1.05,1.05,0,0,0,.91-.38A3.52,3.52,0,0,0,62.46,25v-2.8h5v2.09q0,3.76-1.4,5.26t-4.78,1.48q-3.35,0-4.76-1.48t-1.41-5.26V16.17q0-3.8,1.41-5.23t4.76-1.52q3.33,0,4.78,1.48t1.4,5.27ZM60,15.6V17.2h2.42V15.6a4.08,4.08,0,0,0-.26-1.93,1,1,0,0,0-.95-.4,1,1,0,0,0-.95.4A4.21,4.21,0,0,0,60,15.6Z"/><path class="cls-23" d="M72.53,6.62h7.15q3.4,0,4.83,1.59t1.38,5.7q0,3.28-1.41,4.63t-4.87,1.35H77.87V30.77H72.53Zm5.16,9.16h1a2.19,2.19,0,0,0,1.55-.5,4,4,0,0,0,.41-2.05,2.94,2.94,0,0,0-.41-1.79,1.68,1.68,0,0,0-1.45-.57H77.69Z"/><path class="cls-24" d="M87.6,16.06V14.68a5.13,5.13,0,0,1,1.41-4,6.22,6.22,0,0,1,4.35-1.31q3.12,0,4.52,1.45t1.45,4.59V30.77H94.61V29.63a5.57,5.57,0,0,1-1.42,1.14,4.91,4.91,0,0,1-1.78.35,4,4,0,0,1-3.14-1.26,5.44,5.44,0,0,1-1.09-3.68V23.07a5.61,5.61,0,0,1,1.11-3.76q1.11-1.29,6-3.38v-.71a3.15,3.15,0,0,0-.24-1.55.9.9,0,0,0-.88-.4.94.94,0,0,0-.88.4,2.74,2.74,0,0,0-.26,1.55v.85Zm6.75,3.68a5.26,5.26,0,0,0-1.73,1.52,4.69,4.69,0,0,0-.54,2.55V25a4.05,4.05,0,0,0,.26,1.85,1,1,0,0,0,.88.35,1.09,1.09,0,0,0,.88-.35A5.63,5.63,0,0,0,94.35,25Z"/><path class="cls-25" d="M114,16.34h-4.89V14.41a1.11,1.11,0,0,0-.35-.81,1.15,1.15,0,0,0-.88-.33,1.11,1.11,0,0,0-.85.33,1.44,1.44,0,0,0-.26,1q0,1.05,2.4,2.69l1.38,1a9.74,9.74,0,0,1,2.83,3,8,8,0,0,1,.85,3.71,6.22,6.22,0,0,1-1.48,4.59q-1.36,1.43-4.63,1.48-3.54,0-5-1.4t-1.42-5V22.1h5V25a4.41,4.41,0,0,0,.24,1.85,1.28,1.28,0,0,0,1.85-.1,3.61,3.61,0,0,0,.28-1.48,4.18,4.18,0,0,0-.35-1.88,5.32,5.32,0,0,0-1.52-1.59,13.93,13.93,0,0,0-1.14-.85q-4.28-3.28-4.28-6.13a5.14,5.14,0,0,1,1.5-4.06,6.62,6.62,0,0,1,4.56-1.38q3.26,0,4.66,1.35A5.39,5.39,0,0,1,114,15Z"/><path class="cls-26" d="M128.35,16.34h-4.89V14.41a1.11,1.11,0,0,0-.35-.81,1.15,1.15,0,0,0-.88-.33,1.11,1.11,0,0,0-.85.33,1.44,1.44,0,0,0-.26,1q0,1.05,2.4,2.69l1.38,1a9.74,9.74,0,0,1,2.83,3,8,8,0,0,1,.85,3.71,6.22,6.22,0,0,1-1.48,4.59q-1.36,1.43-4.63,1.48-3.54,0-5-1.4t-1.42-5V22.1h5V25a4.41,4.41,0,0,0,.24,1.85,1.28,1.28,0,0,0,1.85-.1,3.61,3.61,0,0,0,.28-1.48,4.18,4.18,0,0,0-.35-1.88,5.32,5.32,0,0,0-1.52-1.59,13.93,13.93,0,0,0-1.14-.85q-4.28-3.28-4.28-6.13a5.14,5.14,0,0,1,1.5-4.06,6.62,6.62,0,0,1,4.56-1.38q3.26,0,4.66,1.35A5.39,5.39,0,0,1,128.35,15Z"/><path class="cls-27" d="M131,9.73h4.69v1.14a4.24,4.24,0,0,1,1.54-1.1,4.6,4.6,0,0,1,1.93-.35,3.42,3.42,0,0,1,3.14,1.48q1,1.47,1,5v7.92q0,4.47-1,5.9t-3.42,1.36a4.25,4.25,0,0,1-1.69-.31,2.83,2.83,0,0,1-1.21-.88V33.2h-5ZM138.24,25V15.46a3.74,3.74,0,0,0-.24-1.79,1,1,0,0,0-.9-.4.94.94,0,0,0-.88.4,4.84,4.84,0,0,0-.24,1.79V25a4.38,4.38,0,0,0,.24,1.85,1,1,0,0,0,.88.35,1.14,1.14,0,0,0,.9-.35A4.19,4.19,0,0,0,138.24,25Z"/><path class="cls-28" d="M145.77,16.17q0-3.8,1.41-5.23t4.76-1.52q3.33,0,4.78,1.48t1.4,5.27v8.16q0,3.76-1.4,5.26t-4.78,1.48q-3.35,0-4.76-1.48t-1.41-5.26ZM153.08,25V15.46a3.44,3.44,0,0,0-.26-1.79,1,1,0,0,0-.88-.4.94.94,0,0,0-.88.4,4.84,4.84,0,0,0-.24,1.79V25a4.38,4.38,0,0,0,.24,1.85,1,1,0,0,0,.88.35,1.09,1.09,0,0,0,.88-.35A3.86,3.86,0,0,0,153.08,25Z"/><path class="cls-29" d="M160.92,9.73h4.69v1.14a3.76,3.76,0,0,1,1.42-1,4.1,4.1,0,0,1,1.81-.36,3.78,3.78,0,0,1,3.31,1.41,4.94,4.94,0,0,1,.74,1.92,15.53,15.53,0,0,1,.26,3.07v3.88h-5V15.46a3.74,3.74,0,0,0-.24-1.79,1,1,0,0,0-.9-.4.94.94,0,0,0-.88.4,4.84,4.84,0,0,0-.24,1.79V30.77h-5Z"/><path class="cls-30" d="M174.31,9.73h1.24V7.26l5-.95V9.73h1.24V13.6h-1.24V25.68a1.6,1.6,0,0,0,.26,1.1,1.67,1.67,0,0,0,1,.21v3.64a6.75,6.75,0,0,1-1.28.38,5.7,5.7,0,0,1-1.38.15,3.64,3.64,0,0,1-2.78-.86q-.78-.92-.78-3.78V13.6h-1.24Z"/></g></g></svg>