<svg xmlns="http://www.w3.org/2000/svg" viewBox="0 0 15 13"><defs><style>.cls-1{fill:#2a7044;}</style></defs><title>ngungdichvu</title><g id="Layer_2" data-name="Layer 2"><g id="Layer_1-2" data-name="Layer 1"><path class="cls-1" d="M14.58,9.31,9.65,1.18a2.55,2.55,0,0,0-4.3,0l-5,8.27a2.27,2.27,0,0,0,0,2.37A2.51,2.51,0,0,0,2.48,13h10A2.43,2.43,0,0,0,15,10.63a2.27,2.27,0,0,0-.42-1.32Zm-6,.79a1,1,0,0,1-1.06,1,1,1,0,0,1-1.06-1v0a1,1,0,0,1,1.06-1,1,1,0,0,1,1.06,1Zm0-6.65L8.06,7.81a.56.56,0,0,1-1.12,0L6.41,3.45a.49.49,0,0,1,.49-.59H8.1a.49.49,0,0,1,.49.6Zm0,0"/></g></g></svg>