<svg xmlns="http://www.w3.org/2000/svg" viewBox="0 0 101.59 48.45"><defs><style>.cls-1{fill:#6d87c4;}.cls-2,.cls-3{font-size:12px;fill:#010101;stroke:#010101;stroke-miterlimit:10;stroke-width:0.5px;}.cls-2{font-family:CambriaMath, Cambria Math;}.cls-3{font-family:BookshelfSymbolSeven, Bookshelf Symbol 7;}</style></defs><title>nhapcap</title><g id="Layer_2" data-name="Layer 2"><g id="Layer_1-2" data-name="Layer 1"><rect class="cls-1" x="75.55" y="3.03" width="1.15" height="25.61"/><text class="cls-2" transform="translate(9.87 18.92) rotate(-81.3)">1</text><text class="cls-2" transform="translate(10.05 13.21) rotate(-39.33)">2</text><text class="cls-3" transform="translate(13.8 8.58) rotate(20.84)">g</text><text class="cls-2" transform="translate(24.91 13.34) rotate(23.09)">v</text><text class="cls-2" transform="translate(30.88 15.89) rotate(18.07)">v</text><text class="cls-2" transform="translate(37.26 17.98) rotate(9.02)">k</text><text class="cls-2" transform="translate(44.71 18.89) rotate(-4.4)">j</text><text class="cls-2" transform="translate(49.64 18.49) rotate(-23.26)">7</text><path class="cls-1" d="M86.7,13.93A1.39,1.39,0,0,0,88,13.08a5.92,5.92,0,0,1,5.46-3.64A5.84,5.84,0,0,1,97,10.67l-.78.12a.61.61,0,0,0-.16,1.16l4.29,1.93a.61.61,0,0,0,.86-.55l0-4.72a.61.61,0,0,0-1.11-.34l-.59.89A8.71,8.71,0,0,0,85.41,12a1.41,1.41,0,0,0,1.29,2Zm0,0"/><path class="cls-1" d="M101.36,17.42a1.4,1.4,0,0,0-2.46.22,5.92,5.92,0,0,1-5.46,3.64,5.84,5.84,0,0,1-3.59-1.23l.78-.12a.61.61,0,0,0,.16-1.16L86.5,16.85a.61.61,0,0,0-.86.55l0,4.72a.61.61,0,0,0,1.11.34l.59-.89a8.71,8.71,0,0,0,14.15-2.83,1.41,1.41,0,0,0-.12-1.32Zm0,0"/></g></g></svg>