<svg xmlns="http://www.w3.org/2000/svg" viewBox="0 0 23.46 25.34"><defs><style>.cls-1{fill:#375f99;}</style></defs><title>nhom_quyen_icon</title><g id="Layer_2" data-name="Layer 2"><g id="Layer_1-2" data-name="Layer 1"><path class="cls-1" d="M3.77,4.36A2.18,2.18,0,1,0,1.59,2.18,2.18,2.18,0,0,0,3.77,4.36Zm0,0"/><path class="cls-1" d="M19.7,4.36a2.18,2.18,0,1,0-2.18-2.18A2.18,2.18,0,0,0,19.7,4.36Zm0,0"/><path class="cls-1" d="M11.71,8A2.18,2.18,0,1,0,9.53,5.79,2.18,2.18,0,0,0,11.71,8Zm0,0"/><path class="cls-1" d="M9.2,15.88v4.61a.59.59,0,0,0,.59.59h3.83a.59.59,0,0,0,.59-.59V15.88l1.16-1.77a.59.59,0,0,0,.1-.32V10.36a2.16,2.16,0,0,0-1.48-2h0l-.56-.17a.59.59,0,0,0-.64.2L11.71,9.73,10.63,8.34a.59.59,0,0,0-.64-.2l-.56.17h0a2.16,2.16,0,0,0-1.48,2v3.42a.59.59,0,0,0,.1.32Zm0,0"/><path class="cls-1" d="M1.26,12.26v4.61a.59.59,0,0,0,.59.59H5.68a.59.59,0,0,0,.59-.59V12.26L7.43,10.5a.59.59,0,0,0,.1-.32V6.75a2.16,2.16,0,0,0-1.48-2H6l-.56-.17a.59.59,0,0,0-.61.17L3.77,5.9,2.66,4.69A.59.59,0,0,0,2,4.52l-.56.17h0A2.16,2.16,0,0,0,0,6.75v3.42a.59.59,0,0,0,.1.32Zm0,0"/><path class="cls-1" d="M22,4.7h0l-.56-.17a.59.59,0,0,0-.63.19L19.7,6,18.61,4.72A.59.59,0,0,0,18,4.52l-.56.17h0a2.16,2.16,0,0,0-1.48,2v3.42a.59.59,0,0,0,.1.32l1.16,1.77v4.61a.59.59,0,0,0,.59.59h3.83a.59.59,0,0,0,.59-.59V12.26l1.16-1.77a.59.59,0,0,0,.1-.32V6.75A2.16,2.16,0,0,0,22,4.7Zm0,0"/><path class="cls-1" d="M7.24,21.73a4,4,0,0,1-.57.28,6.72,6.72,0,0,1-1.53.4l2.19.91a2.15,2.15,0,0,1,1.11-1.09Zm0,0"/><path class="cls-1" d="M7.48,20.24c0,.83-1.66,1.51-3.71,1.51S.05,21.07.05,20.24s1.66-1.51,3.71-1.51,3.71.68,3.71,1.51Zm0,0"/><path class="cls-1" d="M16.26,21.75l-1.23.5a2.09,2.09,0,0,1,1.07,1.11l2.31-.94A6.83,6.83,0,0,1,16.79,22a4.09,4.09,0,0,1-.53-.26Zm0,0"/><path class="cls-1" d="M15.42,23.83c0,.83-1.66,1.51-3.71,1.51S8,24.66,8,23.83s1.66-1.51,3.71-1.51,3.71.68,3.71,1.51Zm0,0"/><path class="cls-1" d="M23.41,20.24c0,.83-1.66,1.51-3.71,1.51S16,21.07,16,20.24s1.66-1.51,3.71-1.51,3.71.68,3.71,1.51Zm0,0"/></g></g></svg>