<svg xmlns="http://www.w3.org/2000/svg" viewBox="0 0 18.2 17.01"><defs><style>.cls-1{fill:#636464;}</style></defs><title>phan_quyen_ng_dung</title><g id="Layer_2" data-name="Layer 2"><g id="Layer_1-2" data-name="Layer 1"><path class="cls-1" d="M9.15,3.14A1.57,1.57,0,1,0,7.58,1.57,1.57,1.57,0,0,0,9.15,3.14Zm0,0"/><path class="cls-1" d="M6.66,8h5a.58.58,0,0,0,.58-.58V5.21a1.38,1.38,0,0,0-1-1.31h0l-.83-.14a.14.14,0,0,0-.17.09L9.3,6.43a.17.17,0,0,1-.32,0L8,3.85a.14.14,0,0,0-.13-.09h0L7,3.9a1.39,1.39,0,0,0-1,1.32V7.37A.58.58,0,0,0,6.66,8Zm0,0"/><path class="cls-1" d="M3.07,12.19A1.57,1.57,0,1,0,1.5,10.62a1.57,1.57,0,0,0,1.57,1.57Zm0,0"/><path class="cls-1" d="M5.17,13h0l-.83-.14a.14.14,0,0,0-.17.09l-.94,2.59a.17.17,0,0,1-.32,0L2,12.9a.14.14,0,0,0-.13-.09h0L1,13a1.39,1.39,0,0,0-1,1.32v2.15A.58.58,0,0,0,.58,17h5a.58.58,0,0,0,.58-.58V14.27a1.38,1.38,0,0,0-1-1.31Zm0,0"/><path class="cls-1" d="M15.14,12.19a1.57,1.57,0,1,0-1.57-1.57,1.57,1.57,0,0,0,1.57,1.57Zm0,0"/><path class="cls-1" d="M17.25,13h0l-.83-.14a.14.14,0,0,0-.17.09l-.94,2.59a.17.17,0,0,1-.32,0L14,12.9a.14.14,0,0,0-.13-.09h0L13,13a1.39,1.39,0,0,0-1,1.32v2.15a.58.58,0,0,0,.58.58h5a.58.58,0,0,0,.58-.58V14.27a1.38,1.38,0,0,0-1-1.31Zm0,0"/><path class="cls-1" d="M9.67,8.4h-1v2.36L6.19,13.2a1.81,1.81,0,0,1,.35,1.07v.05l2.61-2.61,2.51,2.51a1.81,1.81,0,0,1,.39-1.07L9.67,10.76Zm0,0"/><path class="cls-1" d="M9.52,3.75a.22.22,0,0,0-.16-.07H8.91a.22.22,0,0,0-.16.07.21.21,0,0,0,0,.25L9,4.36l-.11,1,.22.59a.07.07,0,0,0,.13,0l.22-.59-.11-1L9.55,4a.21.21,0,0,0,0-.25Zm0,0"/><path class="cls-1" d="M3.44,12.81a.22.22,0,0,0-.16-.07H2.83a.22.22,0,0,0-.16.07.21.21,0,0,0,0,.25l.24.36-.11,1L3,15a.07.07,0,0,0,.13,0l.22-.59-.11-1,.24-.36a.21.21,0,0,0,0-.25Zm0,0"/><path class="cls-1" d="M15.53,12.81a.22.22,0,0,0-.16-.07h-.45a.22.22,0,0,0-.16.07.21.21,0,0,0,0,.25l.24.36-.11,1,.22.59a.07.07,0,0,0,.13,0l.22-.59-.11-1,.24-.36a.21.21,0,0,0,0-.25Zm0,0"/></g></g></svg>