<svg xmlns="http://www.w3.org/2000/svg" viewBox="0 0 14.66 15"><defs><style>.cls-1{fill:#fff;}</style></defs><title>phieu_phat_thuoc</title><g id="Layer_2" data-name="Layer 2"><g id="Layer_1-2" data-name="Layer 1"><path class="cls-1" d="M4.19,6.43a.32.32,0,0,1,.32-.32h1v-1a.32.32,0,0,1,.32-.32H7.19a.32.32,0,0,1,.32.32v1h1a.32.32,0,0,1,.32.32V7.8a.32.32,0,0,1-.32.32h-1v1a.32.32,0,0,1-.32.32H5.81a.32.32,0,0,1-.32-.32v-1h-1a.32.32,0,0,1-.32-.32Z"/><path class="cls-1" d="M1.78,12.71c-.23,0-.26,0-.26-.25q0-3.88,0-7.75s0-.08,0-.15h2A1,1,0,0,0,4.56,3.47q0-.87,0-1.75V1.51h5.85c.23,0,.26,0,.26.27v9.65l.56.34.95-.78V7.12h0q0-2.77,0-5.55A1.52,1.52,0,0,0,10.63,0H3.94a1.16,1.16,0,0,0-.85.35L.27,3.11A.85.85,0,0,0,0,3.76q0,4.43,0,8.87a1.52,1.52,0,0,0,1.6,1.6H9.48L8.41,12.71Z"/><path class="cls-1" d="M14.56,10.08a.33.33,0,0,0-.43,0l-3,2.47-2-1.19a.33.33,0,0,0-.43.47l2.16,3.06a.33.33,0,0,0,.26.14h0a.32.32,0,0,0,.26-.13l3.2-4.36a.33.33,0,0,0,0-.43Zm0,0"/></g></g></svg>