<svg xmlns="http://www.w3.org/2000/svg" viewBox="0 0 14 14.18"><defs><style>.cls-1{fill:none;}.cls-2{fill:#636464;}</style></defs><title>phieu_hoan_tra</title><g id="Layer_2" data-name="Layer 2"><g id="Layer_1-2" data-name="Layer 1"><path class="cls-1" d="M10.29,3.72a1.12,1.12,0,0,1-1.1-1.11V1.22H2a.51.51,0,0,0-.5.5V12.45a.5.5,0,0,0,.5.49H8.59a4.21,4.21,0,0,1-.91-1.74H3.17a.77.77,0,1,1,0-1.54h4.4a4.19,4.19,0,0,1,.49-1.54H3.17a.78.78,0,0,1,0-1.55H9.54a4.19,4.19,0,0,1,2.11-.63V3.74Zm-4,1H3.17a.78.78,0,0,1,0-1.55H6.25a.78.78,0,0,1,0,1.55Z"/><path class="cls-2" d="M5.3,3.19H2.58A.74.74,0,0,0,1.9,4a.74.74,0,0,0,.68.78H5.3A.74.74,0,0,0,6,4,.74.74,0,0,0,5.3,3.19Z"/><path class="cls-2" d="M8.21,6.58H2.58a.74.74,0,0,0-.68.78.74.74,0,0,0,.68.78H6.9A4.06,4.06,0,0,1,8.21,6.58Z"/><path class="cls-2" d="M6.47,9.67H2.58a.77.77,0,0,0,0,1.54h4a4.74,4.74,0,0,1-.12-1A4.8,4.8,0,0,1,6.47,9.67Z"/><path class="cls-2" d="M7.37,12.94H1.52a.47.47,0,0,1-.44-.49V1.73a.48.48,0,0,1,.44-.5H7.9V2.61a1.06,1.06,0,0,0,1,1.11h1.2V5.94h.1a3.32,3.32,0,0,1,1,.15V3.16L8.42,0H1.52A1.63,1.63,0,0,0,0,1.73V12.45a1.64,1.64,0,0,0,1.52,1.73H9A3.73,3.73,0,0,1,7.37,12.94Z"/><path class="cls-2" d="M10.42,6.52A3.58,3.58,0,1,0,14,10.1,3.58,3.58,0,0,0,10.42,6.52Zm2.29,5.28a2.1,2.1,0,0,1-1.45.89h-.05A.2.2,0,0,1,11,12.6a.08.08,0,0,1,0,0q0-.5,0-1a.07.07,0,0,1,0,0,.31.31,0,0,1,.18-.12.85.85,0,0,0,.68-.84.86.86,0,0,0-.68-.84l-.23,0h-.7s-.06,0-.05.06c0,.26,0,.51,0,.77a.07.07,0,0,1,0,.07.19.19,0,0,1-.25,0L7.78,9.1l0,0,.55-.38L10,7.51a.09.09,0,0,1,.09,0c.1,0,.13.1.12.2s0,.44,0,.67v.06h.06c.28,0,.56,0,.83,0a2.14,2.14,0,0,1,1.46.69,2,2,0,0,1,.55,1.08A2.07,2.07,0,0,1,12.71,11.8Z"/></g></g></svg>