<svg xmlns="http://www.w3.org/2000/svg" viewBox="0 0 23.71 25"><defs><style>.cls-1{fill:#375f99;}</style></defs><title>quan_ly_danh_muc_icon</title><g id="Layer_2" data-name="Layer 2"><g id="Layer_1-2" data-name="Layer 1"><circle class="cls-1" cx="17.46" cy="18.75" r="1.64"/><path class="cls-1" d="M17.46,12.5a6.25,6.25,0,1,0,6.25,6.25A6.25,6.25,0,0,0,17.46,12.5ZM22,19.66l-1.24.08a3.48,3.48,0,0,1-.28.67l.82.93-1.29,1.29-.93-.82a3.46,3.46,0,0,1-.67.28l-.08,1.24H16.55l-.08-1.24a3.46,3.46,0,0,1-.67-.28l-.93.82-1.29-1.29.82-.93a3.48,3.48,0,0,1-.28-.67l-1.24-.08V17.84l1.24-.08a3.49,3.49,0,0,1,.28-.67l-.82-.93,1.29-1.29.93.82a3.45,3.45,0,0,1,.67-.28l.08-1.24h1.83l.08,1.24a3.46,3.46,0,0,1,.67.28l.93-.82,1.29,1.29-.82.93a3.48,3.48,0,0,1,.28.67l1.24.08Z"/><path class="cls-1" d="M6.91,0h12.2l.16,0a8.54,8.54,0,0,1,.93.23A4.16,4.16,0,0,1,22,1.57,4.49,4.49,0,0,1,23,3.44c.07.3.12.61.18.91V13c-.3-.38-.59-.79-.92-1.14a7.44,7.44,0,0,0-1.82-1.44.27.27,0,0,1-.15-.28q0-1.89,0-3.77c0-.58,0-1.16,0-1.74a1.55,1.55,0,0,0-.53-1.16,1.45,1.45,0,0,0-1-.37H7.36a.71.71,0,0,0-.24,0,3.06,3.06,0,0,0-.74.32,1.63,1.63,0,0,0-.6,1.42q0,5.62,0,11.24,0,2,0,4.07a1.54,1.54,0,0,0,1.58,1.71H9.4a.26.26,0,0,1,.26.16c.24.42.48.85.75,1.25A8.09,8.09,0,0,0,12.05,25H6.91l-.14,0a7.13,7.13,0,0,1-1.07-.29,4.52,4.52,0,0,1-2.79-4.18c0-.15,0-.21-.19-.2H1.43a1.23,1.23,0,0,1-1.08-.56A5.31,5.31,0,0,1,0,18.93q0-.18,0-.36a.18.18,0,0,0,0,0,1.44,1.44,0,0,1,1.5-1.31H2.67c.24,0,.24,0,.24-.26q0-1.34,0-2.67c0-.06,0-.13,0-.21H2.71c-.41,0-.83,0-1.24,0a1.29,1.29,0,0,1-1.13-.59,5.47,5.47,0,0,1-.34-.8v-.32l0-.13A1.47,1.47,0,0,1,.85,11.1a1.86,1.86,0,0,1,.66-.15c.46,0,.92,0,1.39,0a1,1,0,0,0,0-.12c0-1,0-1.92,0-2.87,0-.13,0-.17-.17-.17H1.45a1.24,1.24,0,0,1-1.1-.57A5.32,5.32,0,0,1,0,6.43q0-.18,0-.36A.18.18,0,0,0,0,6,1.44,1.44,0,0,1,1.51,4.71H2.75c.11,0,.17,0,.17-.16a4.7,4.7,0,0,1,.9-2.72A4.14,4.14,0,0,1,6.07.19C6.35.11,6.63.06,6.91,0Z"/><rect class="cls-1" x="7.63" y="5.38" width="11.35" height="3.48" rx="0.89" ry="0.89"/><path class="cls-1" d="M14.74,11.11H9.37a1.74,1.74,0,0,0,0,3.48h1.3A6.89,6.89,0,0,1,14.74,11.11Z"/></g></g></svg>