<svg xmlns="http://www.w3.org/2000/svg" viewBox="0 0 18.62 17.02"><defs><style>.cls-1{fill:#fff;}</style></defs><title>quan_ly_duoc</title><g id="Layer_2" data-name="Layer 2"><g id="Layer_1-2" data-name="Layer 1"><circle class="cls-1" cx="14.12" cy="12.18" r="1.18"/><path class="cls-1" d="M14.12,7.68a4.5,4.5,0,1,0,4.5,4.5A4.5,4.5,0,0,0,14.12,7.68Zm3.29,5.16-.89.06a2.51,2.51,0,0,1-.2.48l.59.67L16,15l-.67-.59a2.49,2.49,0,0,1-.48.2l-.06.89H13.46l-.06-.89a2.49,2.49,0,0,1-.48-.2l-.67.59L11.32,14l.59-.67a2.51,2.51,0,0,1-.2-.48l-.89-.06V11.52l.89-.06a2.51,2.51,0,0,1,.2-.48l-.59-.67.93-.93.67.59a2.48,2.48,0,0,1,.48-.2l.06-.89h1.31l.06.89a2.49,2.49,0,0,1,.48.2L16,9.38l.93.93-.59.67a2.51,2.51,0,0,1,.2.48l.89.06Z"/><path class="cls-1" d="M8,2.89a1.64,1.64,0,0,0-1.1.63L4.81,6.21l2.62,2L9.5,5.53A1.65,1.65,0,0,0,8,2.89Z"/><path class="cls-1" d="M8.22,12.22a5.66,5.66,0,0,1,5-5.62V2.4A2.41,2.41,0,0,0,10.81,0H2.4A2.41,2.41,0,0,0,0,2.4V14.61A2.41,2.41,0,0,0,2.4,17h8.47A5.65,5.65,0,0,1,8.22,12.22Zm-5.95.1a2.54,2.54,0,0,1-.49-3.56L6.17,3a2.54,2.54,0,1,1,4,3.07L5.83,11.83A2.54,2.54,0,0,1,2.27,12.32Z"/></g></g></svg>