<svg xmlns="http://www.w3.org/2000/svg" viewBox="0 0 28.1 25"><defs><style>.cls-1{fill:#375f99;}</style></defs><title>Quan_tri_he_thong_icon</title><g id="Layer_2" data-name="Layer 2"><g id="Layer_1-2" data-name="Layer 1"><path class="cls-1" d="M24.95,0H3.15A3.15,3.15,0,0,0,0,3.15V17.73a3.15,3.15,0,0,0,3.15,3.15h7.16v1.76H6.7A1.18,1.18,0,1,0,6.7,25H21.4a1.18,1.18,0,0,0,0-2.36H17.79V20.88h7.16a3.15,3.15,0,0,0,3.15-3.15V3.15A3.15,3.15,0,0,0,24.95,0Zm-.46,17.18a.36.36,0,0,1-.36.36H4a.36.36,0,0,1-.36-.36V3.7A.36.36,0,0,1,4,3.34H24.13a.36.36,0,0,1,.36.36Z"/><path class="cls-1" d="M19.41,11.59V9.45L18,9.36a4.07,4.07,0,0,0-.32-.78l1-1.09L17.08,6,16,6.94a4,4,0,0,0-.78-.32l-.09-1.45H13l-.09,1.45a4,4,0,0,0-.78.32L11,6,9.5,7.49l1,1.09a4.08,4.08,0,0,0-.32.78l-1.45.09v2.14l1.45.09a4.08,4.08,0,0,0,.32.78l-1,1.09L11,15.07l1.09-1a4.05,4.05,0,0,0,.78.32L13,15.88h2.14l.09-1.45a4,4,0,0,0,.78-.32l1.09,1,1.51-1.51-1-1.09a4.07,4.07,0,0,0,.32-.78ZM14,12.44A1.92,1.92,0,1,1,16,10.52,1.92,1.92,0,0,1,14,12.44Z"/></g></g></svg>