<svg xmlns="http://www.w3.org/2000/svg" viewBox="0 0 22.87 25"><defs><style>.cls-1{fill:#375f99;}</style></defs><title>quan_ly_nhap_xuat_1</title><g id="Layer_2" data-name="Layer 2"><g id="Layer_1-2" data-name="Layer 1"><path class="cls-1" d="M18.43,16.12a4.44,4.44,0,1,0,4.44,4.44A4.44,4.44,0,0,0,18.43,16.12ZM21,21.58H19.42v1.57h-2V21.58H15.81v-2h1.57V18h2v1.57H21Z"/><path class="cls-1" d="M17.31,0H2.4A2.55,2.55,0,0,0,0,2.67V21.33A2.55,2.55,0,0,0,2.4,24H13.48c-.06-.1-.11-.21-.17-.31a5.63,5.63,0,0,1-.72-5h-10C2,15.43,4.12,13,6.86,13c2,0,4,0,6.06,0a4.36,4.36,0,0,1,3.6,1.93l.11,0h0a5.23,5.23,0,0,1,3,.13V2.67A2.55,2.55,0,0,0,17.31,0ZM10,12A4.12,4.12,0,0,1,5.94,7.88a4.13,4.13,0,1,1,8.25,0A4.08,4.08,0,0,1,10,12Z"/></g></g></svg>