<svg xmlns="http://www.w3.org/2000/svg" viewBox="0 0 14.87 15.92"><defs><style>.cls-1{fill:#5f5d51;}</style></defs><title>reset_1</title><g id="Layer_2" data-name="Layer 2"><g id="Layer_1-2" data-name="Layer 1"><path class="cls-1" d="M1.28,6.65a1.27,1.27,0,0,0,1.17-.78,5.41,5.41,0,0,1,5-3.32,5.33,5.33,0,0,1,3.28,1.13L10,3.79a.56.56,0,0,0-.14,1.05l3.91,1.76a.56.56,0,0,0,.78-.5l0-4.31a.56.56,0,0,0-1-.31L13,2.29A8,8,0,0,0,.1,4.87,1.28,1.28,0,0,0,1.28,6.65Zm0,0"/><path class="cls-1" d="M14.66,9.84a1.28,1.28,0,0,0-2.24.2,5.41,5.41,0,0,1-5,3.32,5.33,5.33,0,0,1-3.28-1.13l.71-.11A.56.56,0,0,0,5,11.08L1.1,9.32a.56.56,0,0,0-.78.5l0,4.31a.56.56,0,0,0,1,.31l.54-.81a8,8,0,0,0,12.92-2.58,1.28,1.28,0,0,0-.11-1.21Zm0,0"/></g></g></svg>