<svg xmlns="http://www.w3.org/2000/svg" viewBox="0 0 22.92 25"><defs><style>.cls-1{fill:#375f99;}</style></defs><title>tham_do_chuc_nang</title><g id="Layer_2" data-name="Layer 2"><g id="Layer_1-2" data-name="Layer 1"><path class="cls-1" d="M11.46,12.5a6,6,0,0,0,4.42-1.83,6,6,0,0,0,1.83-4.42,6,6,0,0,0-1.83-4.42A6,6,0,0,0,11.46,0,6,6,0,0,0,7,1.83,6,6,0,0,0,5.21,6.25,6,6,0,0,0,7,10.67a6,6,0,0,0,4.42,1.83Zm0,0"/><path class="cls-1" d="M22.83,18.65a14.92,14.92,0,0,0-.39-2.25,10.23,10.23,0,0,0-.77-2.16,5.54,5.54,0,0,0-1.32-1.68,4.34,4.34,0,0,0-2-1,4.2,4.2,0,0,1,.21.65,4.89,4.89,0,0,1,.11.76q0,.42,0,.68c0,.17,0,.43,0,.78s0,.58,0,.69a4.18,4.18,0,0,1,2.08,3.6V20.2a1.56,1.56,0,1,1-2.08,0V18.75a2.08,2.08,0,0,0-4.17,0V20.2a1.56,1.56,0,1,1-2.08,0V18.75a4.17,4.17,0,0,1,4.17-4.17v-1A2.38,2.38,0,0,0,16.26,12a7.65,7.65,0,0,1-9.6,0,2.38,2.38,0,0,0-.41,1.51v3.3a3.14,3.14,0,0,1,2.08,2.95A3,3,0,0,1,7.42,22a3,3,0,0,1-2.21.91A3,3,0,0,1,3,22a3,3,0,0,1-.91-2.21A3.08,3.08,0,0,1,2.65,18a3,3,0,0,1,1.51-1.14v-3.3a5,5,0,0,1,.36-2,4.34,4.34,0,0,0-2,1,5.54,5.54,0,0,0-1.32,1.68,10.23,10.23,0,0,0-.77,2.16,14.79,14.79,0,0,0-.39,2.25Q0,19.68,0,20.78a4.05,4.05,0,0,0,1.19,3.09A4.41,4.41,0,0,0,4.35,25H18.57a4.41,4.41,0,0,0,3.16-1.12,4,4,0,0,0,1.19-3.09q0-1.11-.09-2.13Zm0,0"/><path class="cls-1" d="M4.17,19.79a1,1,0,0,0,1.77.73,1,1,0,1,0-1.47-1.47,1,1,0,0,0-.31.73Zm0,0"/></g></g></svg>