<svg xmlns="http://www.w3.org/2000/svg" viewBox="0 0 17.95 17.01"><defs><style>.cls-1{fill:#fff;}</style></defs><title>thiet_lap_ht_1</title><g id="Layer_2" data-name="Layer 2"><g id="Layer_1-2" data-name="Layer 1"><path class="cls-1" d="M4.34,7.33a2.6,2.6,0,1,1,5,.92h3.35a5.88,5.88,0,0,0-.05-2.13l1-.93a.49.49,0,0,0,.1-.61L12.75,2.74a.49.49,0,0,0-.57-.22L10.85,3a5.87,5.87,0,0,0-2.08-1.2L8.48.39A.48.48,0,0,0,8,0H5.87A.49.49,0,0,0,5.4.39L5.12,1.76A5.85,5.85,0,0,0,3,3L1.71,2.52a.49.49,0,0,0-.57.22L.07,4.59a.49.49,0,0,0,.1.61l1,.93a5.88,5.88,0,0,0,0,2.41l-1,.93a.49.49,0,0,0-.1.61l1.07,1.85a.48.48,0,0,0,.57.22L3,11.69a5.86,5.86,0,0,0,2.08,1.2l.28,1.37a.49.49,0,0,0,.48.39H7.53V9.86A2.6,2.6,0,0,1,4.34,7.33Zm0,0"/><path class="cls-1" d="M17.51,8.93H8.65a.44.44,0,0,0-.44.44v7.2a.44.44,0,0,0,.44.44h8.86a.44.44,0,0,0,.44-.44V9.37a.44.44,0,0,0-.44-.44Zm-.82,6.86H9.47V11.46h7.22Zm0,0"/><path class="cls-1" d="M12.24,14.89a.52.52,0,0,0,.74,0l1.9-1.9a.52.52,0,1,0-.74-.74l-1.53,1.53L12,13.19a.52.52,0,0,0-.74.74Zm0,0"/></g></g></svg>