<svg xmlns="http://www.w3.org/2000/svg" viewBox="0 0 13.76 14.17"><defs><style>.cls-1{fill:#636464;}</style></defs><title>thong_tin_don_vi</title><g id="Layer_2" data-name="Layer 2"><g id="Layer_1-2" data-name="Layer 1"><path class="cls-1" d="M7.62,6.89H6.56A1.12,1.12,0,0,1,5.34,5.69q0-2.24,0-4.48A1.12,1.12,0,0,1,6.55,0h6a1.13,1.13,0,0,1,1.21,1.2q0,2.23,0,4.46a1.14,1.14,0,0,1-1.23,1.22H9.68a.48.48,0,0,0-.3.12c-.43.42-.85.85-1.28,1.27a.44.44,0,0,1-.31.12c-.16,0-.16-.18-.16-.31C7.62,7.7,7.62,7.31,7.62,6.89Zm2.29-4H10c0-.33,0-.65,0-1s0-.39-.37-.39H9.3a.15.15,0,0,0-.17.18c0,.79,0,1.58.06,2.37,0,.05.11.15.16.15s.41.12.56-.1c0,0,0-.05,0-.08Q9.91,3.51,9.91,2.94ZM9.54,5.32c.4,0,.43,0,.43-.31s0-.37-.37-.37H9.4c-.19,0-.29.07-.27.26a1.5,1.5,0,0,1,0,.18c0,.17.07.24.23.23Z"/><path class="cls-1" d="M4.46,0a2.63,2.63,0,0,0-.28,1.52H1.54V12.17l.68-.33L6.81,9.57l.33-.16A.75.75,0,0,1,8.2,10a1.12,1.12,0,0,0,.73,1A1.1,1.1,0,0,0,10.42,10c0-.56,0-1.12,0-1.68,0-.07,0-.15,0-.25h1.5s0,0,0,0c0,.74,0,1.48,0,2.21a2.64,2.64,0,0,1-2.35,2.42L1.68,14l-.77.13A.75.75,0,0,1,0,13.55a1.48,1.48,0,0,1,0-.26Q0,7.08,0,.87A.78.78,0,0,1,.87,0H4.46Z"/></g></g></svg>