<?xml version="1.0" encoding="utf-8"?>
<!-- Generator: Adobe Illustrator 21.0.2, SVG Export Plug-In . SVG Version: 6.00 Build 0)  -->
<svg version="1.1" id="Layer_1" xmlns="http://www.w3.org/2000/svg" xmlns:xlink="http://www.w3.org/1999/xlink" x="0px" y="0px"
	 viewBox="0 0 29.9 25" style="enable-background:new 0 0 29.9 25;" xml:space="preserve">
<style type="text/css">
	.st0{fill:#375F99;}
</style>
<g>
	<path class="st0" d="M28.2,113.3h-3.7v-0.5c0-0.5-0.4-0.8-1-0.8H14c-0.5,0-1,0.4-1,0.8v0.5H9.3c-0.5,0-1,0.4-1,0.8v21.9
		c0,0.5,0.4,0.8,1,0.8h18.8c0.5,0,1-0.4,1-0.8v-21.9C29.1,113.7,28.7,113.3,28.2,113.3L28.2,113.3z M15,113.6h7.5v1.1H15V113.6z
		 M27.2,135.2H10.3V115h2.8v0.5c0,0.5,0.4,0.8,1,0.8h9.4c0.5,0,1-0.4,1-0.8V115h2.8V135.2z M27.2,135.2"/>
	<path class="st0" d="M14.5,124.8h1.9v1.7c0,0.5,0.4,0.8,1,0.8h2.9c0.5,0,1-0.4,1-0.8v-1.7H23c0.5,0,1-0.4,1-0.8v-2.5
		c0-0.5-0.4-0.8-1-0.8h-1.9V119c0-0.5-0.4-0.8-1-0.8h-2.9c-0.5,0-1,0.4-1,0.8v1.7h-1.9c-0.5,0-1,0.4-1,0.8v2.5
		C13.5,124.4,13.9,124.8,14.5,124.8L14.5,124.8z M15.4,122.3h1.9c0.5,0,1-0.4,1-0.8v-1.7h0.9v1.7c0,0.5,0.4,0.8,1,0.8h1.9v0.8h-1.9
		c-0.5,0-1,0.4-1,0.8v1.7h-0.9v-1.7c0-0.5-0.4-0.8-1-0.8h-1.9V122.3z M15.4,122.3"/>
	<path class="st0" d="M14,131.4h9.4c0.5,0,1-0.4,1-0.8c0-0.5-0.4-0.8-1-0.8H14c-0.5,0-1,0.4-1,0.8C13.1,131.1,13.5,131.4,14,131.4
		L14,131.4z M14,131.4"/>
	<path class="st0" d="M24.2,132.5h-11c-0.5,0-1,0.4-1,0.8c0,0.5,0.4,0.8,1,0.8h11c0.5,0,1-0.4,1-0.8
		C25.2,132.9,24.8,132.5,24.2,132.5L24.2,132.5z M24.2,132.5"/>
</g>
<g>
	<path class="st0" d="M9.5,22.1c0,1.8-1.6,3.2-3.5,2.9c-1.1-0.2-2.1-1.1-2.3-2.3c-0.4-1.9,1.1-3.5,2.9-3.5
		C8.2,19.2,9.5,20.5,9.5,22.1L9.5,22.1z M9.5,22.1"/>
	<path class="st0" d="M24.1,22.1c0,1.8-1.6,3.2-3.5,2.9c-1.1-0.2-2.1-1.1-2.3-2.3c-0.4-1.9,1.1-3.5,2.9-3.5
		C22.8,19.2,24.1,20.5,24.1,22.1L24.1,22.1z M24.1,22.1"/>
	<path class="st0" d="M19.4,1.4c0-0.9-0.8-1.6-1.7-1.4c-0.7,0.1-1.2,0.8-1.2,1.5v1.3h2.9V1.4z M19.4,1.4"/>
	<path class="st0" d="M26.7,15.6L22.6,4.5c-0.2-0.5-0.6-0.7-1.1-0.7H2.4C1.1,3.8,0,4.8,0,6.2v14c0,1.1,0.9,1.9,1.9,1.9h0.5v0
		c0-2.6,2.4-4.7,5.2-4c1.8,0.4,3.1,2.1,3.1,4v0c0,0,0,0,0,0h6.3v0c0-2.6,2.4-4.7,5.2-4c1.8,0.4,3.1,2.1,3.1,4v0c0,0,0,0,0,0H29
		c0.5,0,0.9-0.4,0.9-0.9v-2.4C29.9,17.1,26.7,15.6,26.7,15.6L26.7,15.6z M10.1,11H8.7v1.4c0,0.5-0.4,1-0.9,1.1
		c-0.7,0.1-1.3-0.4-1.3-1.1V11H5.1c-0.5,0-1-0.4-1.1-0.9C3.9,9.4,4.4,8.8,5.1,8.8h1.4V7.5c0-0.5,0.4-1,0.9-1.1
		c0.7-0.1,1.3,0.4,1.3,1.1v1.4h1.4c0.6,0,1.1,0.5,1.1,1.1C11.2,10.5,10.7,11,10.1,11L10.1,11z M16.5,11.5V6.3h5l1.8,5.2L16.5,11.5
		L16.5,11.5z M16.5,11.5"/>
</g>
<g>
	<path class="st0" d="M3,59.8c-0.7,0.7-1.1,1.6-1.1,2.6v13.5c0,1,0.4,1.9,1.1,2.6c0.7,0.7,1.6,1.1,2.6,1.1h0.5V58.7H5.6
		C4.6,58.7,3.7,59.1,3,59.8L3,59.8z M3,59.8"/>
	<path class="st0" d="M22.8,56.1c0-0.4-0.2-0.8-0.5-1.1c-0.3-0.3-0.7-0.5-1.1-0.5h-9.4c-0.4,0-0.8,0.2-1.1,0.5
		c-0.3,0.3-0.5,0.7-0.5,1.1v2.6H7.7v20.8h17.7V58.7h-2.6V56.1z M12.3,56.6h8.3v2.1h-8.3V56.6z M22.8,70.7c0,0.2,0,0.3-0.1,0.4
		c-0.1,0.1-0.2,0.1-0.4,0.1h-3.6v3.6c0,0.2,0,0.3-0.1,0.4c-0.1,0.1-0.2,0.1-0.4,0.1H15c-0.2,0-0.3,0-0.4-0.1
		c-0.1-0.1-0.1-0.2-0.1-0.4v-3.6h-3.6c-0.2,0-0.3,0-0.4-0.1c-0.1-0.1-0.1-0.2-0.1-0.4v-3.1c0-0.2,0-0.3,0.1-0.4
		c0.1-0.1,0.2-0.1,0.4-0.1h3.6v-3.6c0-0.2,0-0.3,0.1-0.4c0.1-0.1,0.2-0.1,0.4-0.1h3.1c0.2,0,0.3,0,0.4,0.1c0.1,0.1,0.1,0.2,0.1,0.4
		V67h3.6c0.2,0,0.3,0,0.4,0.1c0.1,0.1,0.1,0.2,0.1,0.4L22.8,70.7L22.8,70.7z M22.8,70.7"/>
	<path class="st0" d="M30,59.8c-0.7-0.7-1.6-1.1-2.6-1.1h-0.5v20.8h0.5c1,0,1.9-0.4,2.6-1.1c0.7-0.7,1.1-1.6,1.1-2.6V62.4
		C31.1,61.4,30.7,60.5,30,59.8L30,59.8z M30,59.8"/>
</g>
</svg>
