<svg xmlns="http://www.w3.org/2000/svg" viewBox="0 0 323.22 63.7"><defs><style>.cls-1{fill:#fff;}.cls-2{fill:#ed1c24;}</style></defs><title>tieude</title><g id="Layer_2" data-name="Layer 2"><g id="Layer_1-2" data-name="Layer 1"><path class="cls-1" d="M19.9,56.07V42H4.35v14.1h-3V26h3V39.25H19.9V26h3V56.07Z"/><path class="cls-1" d="M47.49,53.15a11.44,11.44,0,0,1-16.34,0,11,11,0,0,1-3.45-8.09,11.51,11.51,0,0,1,3.37-8.31,11,11,0,0,1,8.21-3.51A11.79,11.79,0,0,1,50.92,44.94,11.2,11.2,0,0,1,47.49,53.15Zm-2-14.64a8.31,8.31,0,0,0-6.21-2.68A8.22,8.22,0,0,0,33,38.61a9.16,9.16,0,0,0-2.5,6.45,8.78,8.78,0,0,0,2.56,6.31,8.61,8.61,0,0,0,12.54-.06,9.25,9.25,0,0,0,2.46-6.49A8.79,8.79,0,0,0,45.53,38.51ZM42.89,30.1l-3.49-3-3.57,3H32.12L38,25h2.68L46.5,30.1ZM37.81,63.7V58.57h3V63.7Z"/><path class="cls-1" d="M88.47,49.52q-3.59,7.08-11,7.08A11.73,11.73,0,0,1,69,53.27,11,11,0,0,1,65.48,45,11.16,11.16,0,0,1,69,36.67a11.68,11.68,0,0,1,8.41-3.39,12,12,0,0,1,6.65,1.92,11.2,11.2,0,0,1,4.4,5.36H85.33a8.26,8.26,0,0,0-7.83-4.72A8.9,8.9,0,0,0,71,38.46a8.63,8.63,0,0,0-2.7,6.45A8.81,8.81,0,0,0,71,51.41,8.91,8.91,0,0,0,77.5,54q5.49,0,7.83-4.52Z"/><path class="cls-1" d="M109.31,56.07V43.85a10.89,10.89,0,0,0-.48-3.29,6.31,6.31,0,0,0-1.65-2.82,7.07,7.07,0,0,0-9.66,0,6.26,6.26,0,0,0-1.63,2.74,10.56,10.56,0,0,0-.45,3.15V56.07H92.61V26h2.84V36.69h.08a7.57,7.57,0,0,1,6.84-3.41,9.19,9.19,0,0,1,7.28,3,11.13,11.13,0,0,1,2.5,7.6V56.07Z"/><path class="cls-1" d="M117.53,31.14V26h2.84v5.14Zm0,24.93V33.85h2.84V56.07Z"/><path class="cls-1" d="M147.67,46H127.44a8,8,0,0,0,2.76,5.67A8.42,8.42,0,0,0,136.07,54a8.75,8.75,0,0,0,4.8-1.39A7.64,7.64,0,0,0,144,48.79h3a11.5,11.5,0,0,1-4.25,5.65A11.57,11.57,0,0,1,124.53,45a11.37,11.37,0,0,1,3.37-8.23,11.36,11.36,0,0,1,16.42.08,11.61,11.61,0,0,1,3.39,8.35Zm-2.88-2.56a9.08,9.08,0,0,0-3-5.43,8.68,8.68,0,0,0-11.46,0,9,9,0,0,0-2.94,5.43Zm-5-13.33-3.49-3-3.57,3H129L134.88,25h2.68l5.81,5.08Zm1.51-3-1.33-2.34L148,20.35l1.31,2.44Z"/><path class="cls-1" d="M168.68,56.07V52.62h-.08a6.46,6.46,0,0,1-3,3,8.79,8.79,0,0,1-4.17,1,9.16,9.16,0,0,1-7.64-3.33,8.64,8.64,0,0,1-1.57-3.39,16.79,16.79,0,0,1-.38-3.77V33.85h2.84V46.07a9.48,9.48,0,0,0,1.47,5.71A6.15,6.15,0,0,0,161.48,54a6.6,6.6,0,0,0,4.72-1.8,7,7,0,0,0,1.88-3.06,12.33,12.33,0,0,0,.44-3.59V33.85h2.84V56.07Z"/><path class="cls-1" d="M207.58,56.07V52.16h-.08a9.76,9.76,0,0,1-8.65,4.44,11.69,11.69,0,0,1-8.47-3.35,11.13,11.13,0,0,1-3.47-8.35,11,11,0,0,1,3.51-8.31,11.76,11.76,0,0,1,8.43-3.31,9.83,9.83,0,0,1,8.65,4.38h.08V26h2.86V56.07ZM205.2,38.55a8.45,8.45,0,0,0-6.35-2.72,8.78,8.78,0,0,0-6.53,2.62A9,9,0,0,0,189.75,45a8.73,8.73,0,0,0,2.6,6.47A8.9,8.9,0,0,0,198.85,54a8.51,8.51,0,0,0,6.35-2.68A8.84,8.84,0,0,0,207.76,45,9,9,0,0,0,205.2,38.55Zm7.77-9.5v2.78H200.59V29.05Z"/><path class="cls-1" d="M215.79,31.14V26h2.84v5.14Zm0,24.93V33.85h2.84V56.07Z"/><path class="cls-1" d="M245.94,46H225.7a8,8,0,0,0,2.76,5.67A8.42,8.42,0,0,0,234.33,54a8.75,8.75,0,0,0,4.8-1.39,7.64,7.64,0,0,0,3.15-3.87h3a11.5,11.5,0,0,1-4.25,5.65A11.57,11.57,0,0,1,222.79,45a11.37,11.37,0,0,1,3.37-8.23,11.36,11.36,0,0,1,16.42.08A11.61,11.61,0,0,1,246,45.18Zm-2.88-2.56a9.08,9.08,0,0,0-3-5.43,8.68,8.68,0,0,0-11.46,0,9,9,0,0,0-2.94,5.43ZM238,30.1l-3.49-3-3.57,3h-3.71L233.14,25h2.68l5.81,5.08Zm-5.14,33.6V58.57h3V63.7Z"/><path class="cls-1" d="M267,56.07V43.85a10.83,10.83,0,0,0-.48-3.29,6.29,6.29,0,0,0-1.64-2.82,7.08,7.08,0,0,0-9.66,0,6.25,6.25,0,0,0-1.63,2.74,10.56,10.56,0,0,0-.46,3.15V56.07H250.3V33.85h2.84v2.84h.08a7.56,7.56,0,0,1,6.84-3.41,9.19,9.19,0,0,1,7.28,3,11.13,11.13,0,0,1,2.5,7.6V56.07Z"/><path class="cls-1" d="M291.76,36.41V56.07h-2.84V36.41h-4.68V33.85h4.68V26h2.84v7.85h5.32v2.56Z"/><path class="cls-1" d="M319.41,37.15V56.07h-2.68V52.62h-.08a6.46,6.46,0,0,1-3,3,8.79,8.79,0,0,1-4.17,1,9.16,9.16,0,0,1-7.64-3.33,8.64,8.64,0,0,1-1.57-3.39,16.79,16.79,0,0,1-.38-3.77V33.85h2.84V46.07a9.48,9.48,0,0,0,1.47,5.71A6.15,6.15,0,0,0,309.53,54a6.6,6.6,0,0,0,4.72-1.8,7,7,0,0,0,1.88-3.06,12.33,12.33,0,0,0,.44-3.59V33.85h2.84v.65l.1-.08a2.07,2.07,0,0,0,.81-1.41h-1.21V29.45h3.49v3.69a5.23,5.23,0,0,1-.47,1.62,3.87,3.87,0,0,1-.79,1.08,7,7,0,0,1-.83.69q-.37.25-1.08.64Zm-5.79-9.68a4.05,4.05,0,0,1-.46.56l-.26.28-.81.79a6.89,6.89,0,0,0-.45.6,3.5,3.5,0,0,0-.42,1.73h-2.52v-.53a3.86,3.86,0,0,1,.56-2,4.88,4.88,0,0,1,.53-.71c.11-.12.28-.29.52-.52l.53-.52c.17-.19.33-.37.48-.56a1.62,1.62,0,0,0,.32-1,1.7,1.7,0,0,0-.52-1.31,1.77,1.77,0,0,0-1.21-.53,1.8,1.8,0,0,0-1.73,1.51,10.33,10.33,0,0,0,0,1.21h-2.56v-.77a3.83,3.83,0,0,1,1.33-2.86,4.32,4.32,0,0,1,3-1.13,4.14,4.14,0,0,1,3,1.11,3.84,3.84,0,0,1,1.23,2.82A3.29,3.29,0,0,1,313.61,27.47Z"/><path class="cls-2" d="M6.61,11.88a5.38,5.38,0,0,1-2.17.37A4.06,4.06,0,0,1,0,7.94,4.35,4.35,0,0,1,4.62,3.37a4.92,4.92,0,0,1,2.08.38L6.32,5.3A4.08,4.08,0,0,0,4.71,5,2.57,2.57,0,0,0,2,7.83a2.55,2.55,0,0,0,2.71,2.81,4.71,4.71,0,0,0,1.6-.28Z"/><path class="cls-2" d="M15.23,7.73c0,2.82-1.68,4.53-4.16,4.53s-4-1.93-4-4.38,1.62-4.51,4.12-4.51S15.23,5.35,15.23,7.73Zm-6.12.12c0,1.69.78,2.87,2.06,2.87s2-1.25,2-2.92-.73-2.87-2-2.87S9.11,6.17,9.11,7.84ZM12,1.48,13.1,3.05H11.86l-.55-.8h0l-.55.8H9.5l1.13-1.57Zm.92.78c.18-.54.63-.66.63-1.06a.38.38,0,0,0-.38-.38c-.26,0-.46.25-.58.46L12,.93A1.54,1.54,0,0,1,13.4,0a1,1,0,0,1,1.13,1c0,.68-.57.79-.9,1.43Z"/><path class="cls-2" d="M16.48,12.12V3.51h2.23l1.76,3.16a25,25,0,0,1,1.38,3h0A32.63,32.63,0,0,1,21.73,6V3.51h1.76v8.61h-2L19.67,8.8a32.28,32.28,0,0,1-1.47-3h0c0,1.14.08,2.35.08,3.75v2.59Z"/><path class="cls-2" d="M32.22,11.72a9.35,9.35,0,0,1-2.83.49A4.67,4.67,0,0,1,25.95,11a4.21,4.21,0,0,1-1.19-3.13c0-2.86,2.06-4.5,4.83-4.5a5.75,5.75,0,0,1,2.35.42l-.4,1.56a4.62,4.62,0,0,0-2-.37,2.58,2.58,0,0,0-2.8,2.78,2.57,2.57,0,0,0,2.66,2.82,2.51,2.51,0,0,0,.94-.13V8.71H29.06V7.19h3.15Z"/><path class="cls-2" d="M37.39,5.15H35.11V3.51h6.5V5.15H39.31v7H37.39Z"/><path class="cls-2" d="M44.55,3.51V6.82h3.15V3.51h1.91v8.61H47.71V8.52H44.55v3.6H42.63V3.51Z"/><path class="cls-2" d="M59,7.73c0,2.82-1.68,4.53-4.16,4.53s-4-1.93-4-4.38S52.51,3.37,55,3.37,59,5.35,59,7.73Zm-6.12.12c0,1.69.78,2.87,2.06,2.87s2-1.25,2-2.92-.73-2.87-2-2.87S52.91,6.17,52.91,7.84Zm2.76-6.36L56.95,3H55.6L55,2.25h0L54.32,3H53l1.27-1.56Z"/><path class="cls-2" d="M60.28,12.12V3.51h2.24l1.76,3.16a25.19,25.19,0,0,1,1.38,3h0A32.64,32.64,0,0,1,65.53,6V3.51h1.76v8.61h-2L63.47,8.8a32.28,32.28,0,0,1-1.47-3h0c0,1.14.07,2.35.07,3.75v2.59Z"/><path class="cls-2" d="M76,11.72a9.34,9.34,0,0,1-2.83.49A4.67,4.67,0,0,1,69.75,11a4.2,4.2,0,0,1-1.19-3.13c0-2.86,2.06-4.5,4.83-4.5a5.75,5.75,0,0,1,2.35.42l-.4,1.56a4.63,4.63,0,0,0-2-.37,2.58,2.58,0,0,0-2.8,2.78,2.57,2.57,0,0,0,2.66,2.82,2.51,2.51,0,0,0,.94-.13V8.71H72.86V7.19H76Z"/><path class="cls-2" d="M81.18,5.15H78.91V3.51h6.5V5.15H83.11v7H81.18Z"/><path class="cls-2" d="M88.35,3.51v8.61H86.43V3.51Z"/><path class="cls-2" d="M90,12.12V3.51h2.24L94,6.67a25,25,0,0,1,1.38,3h0A32.39,32.39,0,0,1,95.26,6V3.51H97v8.61H95L93.2,8.8a32.28,32.28,0,0,1-1.47-3h0c.05,1.14.08,2.35.08,3.75v2.59Z"/><path class="cls-2" d="M100.42,7h.89V3.6a16.63,16.63,0,0,1,2.59-.19,5.4,5.4,0,0,1,3.47.91,3.91,3.91,0,0,1,1.42,3.28,4.44,4.44,0,0,1-1.39,3.53,6,6,0,0,1-3.91,1.12,16.37,16.37,0,0,1-2.17-.13V8.49h-.89Zm4.48,1.52h-1.68v2.2a5.43,5.43,0,0,0,.67,0c1.76,0,2.88-.94,2.88-3.05a2.43,2.43,0,0,0-2.67-2.75,4.14,4.14,0,0,0-.87.08V7h1.68Z"/><path class="cls-2" d="M112,3.51v8.61H110V3.51Z"/><path class="cls-2" d="M118.66,8.48h-3.12v2H119v1.6h-5.4V3.51h5.22v1.6h-3.3V6.9h3.12Zm-1.67-7,1.27,1.57h-1.34l-.63-.79h0l-.63.79H114.3l1.26-1.57ZM115.41,14a.86.86,0,0,1,.88-.88.85.85,0,0,1,.84.88.86.86,0,0,1-.84.87A.88.88,0,0,1,115.41,14Z"/><path class="cls-2" d="M120.33,12.12V3.51h2.24l1.76,3.16a25,25,0,0,1,1.38,3h0A32.38,32.38,0,0,1,125.58,6V3.51h1.76v8.61h-2L123.52,8.8a32.28,32.28,0,0,1-1.47-3h0c.05,1.14.08,2.35.08,3.75v2.59Z"/><path class="cls-2" d="M132.67,5.15h-2.27V3.51h6.5V5.15h-2.31v7h-1.92Z"/><path class="cls-2" d="M146.1,1.94a2.77,2.77,0,0,1,.28,1.19A1.31,1.31,0,0,1,145,4.52l-.21,0V8.34c0,2.66-1.32,3.92-3.53,3.92s-3.39-1.2-3.39-3.95V3.51h1.92v5c0,1.48.55,2.23,1.53,2.23s1.56-.71,1.56-2.23v-5h1.46c.51,0,.65-.17.65-.5a1.69,1.69,0,0,0-.26-.86Zm-4.89,1c.19-.58.62-.68.62-1.1a.36.36,0,0,0-.37-.38c-.24,0-.45.25-.56.43l-.6-.37a1.63,1.63,0,0,1,1.53-1A1.16,1.16,0,0,1,143,1.57c0,.75-.62.89-1,1.53Z"/><path class="cls-2" d="M151.12,12.12l-2.71-8.61h2.1l1,3.64c.29,1,.55,2,.75,3.08h0c.21-1,.48-2.06.77-3l1.08-3.68h2l-2.85,8.61Z"/><path class="cls-2" d="M162.14,8.48H159v2h3.48v1.6h-5.4V3.51h5.22v1.6H159V6.9h3.11Zm-1.75-7,1.14,1.57h-1.23l-.57-.8h0l-.55.8H158l1.12-1.57Zm1.39-.87.82,1.44h-1L160.15.61Z"/><path class="cls-2" d="M170.81,12.12,170,10.56c-.31-.6-.52-1-.75-1.54h0c-.18.5-.39.95-.65,1.54l-.7,1.56h-2.19l2.45-4.36-2.36-4.25H168l.74,1.57c.25.52.44.95.64,1.43h0c.2-.55.36-.93.58-1.43l.72-1.57h2.18l-2.39,4.2L173,12.12Z"/><path class="cls-2" d="M176,3.51v5c0,1.48.55,2.23,1.53,2.23S179,10,179,8.47v-5H181V8.34c0,2.66-1.32,3.92-3.53,3.92S174,11.06,174,8.31V3.51Z"/><path class="cls-2" d="M184.2,9.91l-.6,2.21h-2l2.59-8.61h2.51l2.62,8.61h-2.06l-.65-2.21Zm2-8.43,1.13,1.57H186.1l-.55-.8h0l-.57.8h-1.22l1.13-1.57Zm.15,7-.53-1.83c-.15-.51-.3-1.15-.43-1.66h0c-.13.51-.25,1.16-.39,1.66l-.5,1.83Zm2.94-8L187.6,1.89h-.92l1-1.46Z"/><path class="cls-2" d="M191.05,5.15h-2.27V3.51h6.5V5.15H193v7h-1.92Z"/><path class="cls-2" d="M198.84,12.12V3.51h2.23l1.76,3.16a25,25,0,0,1,1.38,3h0A32.63,32.63,0,0,1,204.09,6V3.51h1.76v8.61h-2L202,8.8a32.28,32.28,0,0,1-1.47-3h0c0,1.14.08,2.35.08,3.75v2.59Z"/><path class="cls-2" d="M209.42,3.51V6.82h3.15V3.51h1.91v8.61h-1.91V8.52h-3.15v3.6H207.5V3.51Z"/><path class="cls-2" d="M218.12,9.91l-.6,2.21h-2l2.59-8.61h2.51l2.62,8.61H221.2l-.65-2.21Zm2-8.43,1.28,1.57h-1.36l-.63-.79h0l-.63.79h-1.33l1.26-1.57Zm.14,7-.53-1.83c-.15-.51-.3-1.15-.43-1.66h0c-.13.51-.25,1.16-.39,1.66l-.5,1.83ZM218.45,14a.86.86,0,0,1,.88-.88.85.85,0,0,1,.84.88.86.86,0,0,1-.84.87A.88.88,0,0,1,218.45,14Z"/><path class="cls-2" d="M224.38,3.63A15.37,15.37,0,0,1,227,3.45a4,4,0,0,1,2.59.69,2.54,2.54,0,0,1,.9,2,2.77,2.77,0,0,1-.78,2,3.88,3.88,0,0,1-2.75.91,4.76,4.76,0,0,1-.65,0v3.08h-1.9Zm1.9,3.91a2.88,2.88,0,0,0,.64.05c1,0,1.64-.52,1.64-1.4s-.54-1.26-1.49-1.26a3.22,3.22,0,0,0-.79.08Z"/><path class="cls-2" d="M240.43,11.88a5.38,5.38,0,0,1-2.17.37,4.06,4.06,0,0,1-4.43-4.3,4.35,4.35,0,0,1,4.62-4.57,4.92,4.92,0,0,1,2.08.38l-.39,1.54A4.07,4.07,0,0,0,238.53,5a2.57,2.57,0,0,0-2.7,2.85,2.55,2.55,0,0,0,2.71,2.81,4.71,4.71,0,0,0,1.59-.28Z"/><path class="cls-2" d="M243.78,9.91l-.6,2.21h-2l2.59-8.61h2.51l2.63,8.61h-2.06l-.65-2.21Zm.88-7c.19-.58.62-.68.62-1.1a.36.36,0,0,0-.36-.38c-.24,0-.45.25-.56.43l-.6-.37a1.63,1.63,0,0,1,1.53-1,1.16,1.16,0,0,1,1.22,1.08c0,.75-.6.89-1,1.53Zm1.27,5.54-.53-1.83c-.15-.51-.3-1.15-.43-1.66h0c-.12.51-.25,1.16-.39,1.66l-.5,1.83Z"/><path class="cls-2" d="M250,12.12V3.51h2.24L254,6.67a25,25,0,0,1,1.38,3h0A32.39,32.39,0,0,1,255.29,6V3.51H257v8.61h-2L253.23,8.8a32.28,32.28,0,0,1-1.47-3h0c.05,1.14.08,2.35.08,3.75v2.59Z"/><path class="cls-2" d="M260.63,3.51V6.82h3.15V3.51h1.91v8.61h-1.91V8.52h-3.15v3.6H258.7V3.51Z"/><path class="cls-2" d="M271.42,12.12l-2.71-8.61h2.1l1,3.64c.29,1,.55,2,.75,3.08h0c.21-1,.48-2.06.77-3l1.08-3.68h2l-2.85,8.61Z"/><path class="cls-2" d="M279.33,3.51v8.61h-1.92V3.51Z"/><path class="cls-2" d="M286,8.48h-3.11v2h3.48v1.6H281V3.51h5.22v1.6h-3.3V6.9H286Zm-1.67-7,1.27,1.57h-1.34l-.63-.79h0l-.63.79h-1.33l1.26-1.57ZM282.77,14a.86.86,0,0,1,.88-.88.85.85,0,0,1,.84.88.86.86,0,0,1-.84.87A.88.88,0,0,1,282.77,14Z"/><path class="cls-2" d="M289.39,5.15h-2.27V3.51h6.51V5.15h-2.31v7h-1.92Z"/><path class="cls-2" d="M297.17,12.12V3.51h2.24l1.76,3.16a25,25,0,0,1,1.38,3h0A32.38,32.38,0,0,1,302.42,6V3.51h1.76v8.61h-2L300.36,8.8a32.28,32.28,0,0,1-1.47-3h0c.05,1.14.08,2.35.08,3.75v2.59Z"/><path class="cls-2" d="M307.8,9.91l-.6,2.21h-2l2.59-8.61h2.51l2.63,8.61h-2.06l-.65-2.21Zm2.15-1.46-.53-1.83c-.15-.51-.3-1.15-.43-1.66h0c-.12.51-.25,1.16-.39,1.66l-.5,1.83Z"/><path class="cls-2" d="M321.22,8.83c0-1-.08-2.29-.08-3.54h0c-.26,1.1-.62,2.32-.94,3.33l-1,3.36h-1.5l-.9-3.33c-.28-1-.57-2.24-.77-3.36h0c0,1.16-.09,2.49-.15,3.56l-.15,3.27h-1.77l.54-8.61H317l.83,2.87c.26,1,.53,2.07.71,3.08h0c.24-1,.53-2.13.8-3.09l.9-2.86h2.5l.46,8.61h-1.87Z"/></g></g></svg>