<svg xmlns="http://www.w3.org/2000/svg" viewBox="0 0 26 26"><defs><style>.cls-1{fill:#fff;}.cls-2{fill:none;}</style></defs><title>trungtamdieuhanh</title><g id="Layer_2" data-name="Layer 2"><g id="Layer_1-2" data-name="Layer 1"><path class="cls-1" d="M21.71,6.67V5.16a.88.88,0,0,0-.87-.87H11.26l-.63-.79H4.37a.88.88,0,0,0-.87.87V21.63a.88.88,0,0,0,.87.87H21.63a.88.88,0,0,0,.87-.87V7.54A.86.86,0,0,0,21.71,6.67ZM20.26,20.26H5.74V5.74H10.1l2.18,2.9h8ZM20,6.67H12.88l-1-1L20,5.63Z"/><path class="cls-1" d="M12.21,10.63v.87a2.37,2.37,0,0,0-.79.32l-.63-.55L9.67,12.37l.63.63a3.31,3.31,0,0,0-.32.79H9v1.58h.87a2.37,2.37,0,0,0,.32.79l-.63.63,1.11,1.11.63-.63a3.31,3.31,0,0,0,.79.32v1h1.58v-.87a2.37,2.37,0,0,0,.79-.32l.63.63,1.11-1.11-.55-.71a3.31,3.31,0,0,0,.32-.79h1V13.79h-.87a2.37,2.37,0,0,0-.32-.79l.63-.63L15.3,11.26l-.71.63a3.31,3.31,0,0,0-.79-.32v-1Zm2.38,4A1.58,1.58,0,1,1,13,13,1.59,1.59,0,0,1,14.58,14.58Z"/><rect class="cls-2" width="26" height="26"/></g></g></svg>