<svg xmlns="http://www.w3.org/2000/svg" viewBox="0 0 26 26"><defs><style>.cls-1{fill:#fff;}.cls-2{fill:none;}</style></defs><title>xulyhoso</title><g id="Layer_2" data-name="Layer 2"><g id="Layer_1-2" data-name="Layer 1"><path class="cls-1" d="M5.21,6.71H3.76a.39.39,0,0,1-.36-.59,1,1,0,0,1,.18-.25L6.05,3.42l.16-.18A.54.54,0,0,1,6.79,3c.24.06.28.29.29.48q0,1.38,0,2.76c0,.31-.19.45-.51.45Z"/><path class="cls-1" d="M14.18,12.52a3.75,3.75,0,0,0,.52-.26.39.39,0,0,0,.12-.28c0-.41,0-.82,0-1.23a.51.51,0,0,1,.55-.55h1.73a.52.52,0,0,1,.58.58c0,.38,0,.76,0,1.14a.42.42,0,0,0,.26.46c.2.07.37.14.56-.08a12.33,12.33,0,0,1,.91-.87c.27-.25.44-.26.71,0,.45.44.9.89,1.34,1.34a.45.45,0,0,1,0,.64c-.28.3-.58.58-.87.87a.74.74,0,0,0,0,.82.42.42,0,0,0,.25.1c.26,0,.52,0,.79,0a2.55,2.55,0,0,0,.53,0,.4.4,0,0,1,.5.39c0,.67,0,1.34,0,2a.42.42,0,0,1-.46.43c-.42,0-.84,0-1.26,0a.36.36,0,0,0-.39.25c-.19.45-.2.44.16.77s.51.5.76.76a.39.39,0,0,1,0,.61c-.5.49-1,1-1.49,1.48-.18.17-.37.12-.53-.05s-.63-.61-.92-.93a.3.3,0,0,0-.43-.07.4.4,0,0,1-.18.07c-.22,0-.23.15-.23.33,0,.42,0,.84,0,1.26a.45.45,0,0,1-.51.51H15.32c-.35,0-.48-.12-.48-.48s0-.86,0-1.28-.3-.33-.49-.42a.37.37,0,0,0-.32.08c-.32.3-.62.61-.93.92a.42.42,0,0,1-.69,0l-1.3-1.3c-.29-.3-.29-.44,0-.74s.57-.6.88-.87,0-.47,0-.67-.25-.19-.38-.19c-.45,0-.9,0-1.34,0a.36.36,0,0,1-.35-.38c0-.68,0-1.36,0-2,0-.34.3-.44.58-.43h.48l.49,0c.43,0,.5.09.62-.39.08-.29,0-.42-.24-.61a5.31,5.31,0,0,1-.81-.94.41.41,0,0,1,0-.39c.46-.51.93-1,1.41-1.48a.4.4,0,0,1,.57,0c.38.38.73.8,1.09,1.21Zm2.1,6.72a2.6,2.6,0,0,0,2.62-2.65A2.53,2.53,0,0,0,16.39,14a2.63,2.63,0,1,0-.11,5.25Z"/><path class="cls-1" d="M16.69,3.54c0-.38-.15-.53-.52-.53H7.85c0,1.15,0,2.26,0,3.36A1.2,1.2,0,0,1,6.78,7.52c-1.13,0-2.26,0-3.44,0V20c0,.5.17.66.68.66H9.88c.18,0,.27,0,.23-.26a1.21,1.21,0,0,1,.26-1,4.59,4.59,0,0,1,.46-.38,1.53,1.53,0,0,0-.31-.11c-.07,0-.14.05-.21,0-.84-.17-1.21-.49-1.26-1.35a16.06,16.06,0,0,1,0-1.9,1.27,1.27,0,0,1,1.53-1.26.6.6,0,0,0,.2-.06c-.2-.23-.38-.41-.53-.62a1.25,1.25,0,0,1,0-1.23c.54-.56,1.07-1.13,1.61-1.67a1.18,1.18,0,0,1,1.55-.14l.58.48c0-.21,0-.35,0-.49a1.26,1.26,0,0,1,1.23-1.24c.37,0,.74,0,1.12,0s.34-.06.34-.33C16.69,7.26,16.69,5.4,16.69,3.54ZM7.83,17.83H5.2a.66.66,0,1,1,0-1.32H7.83a.66.66,0,1,1,0,1.32Zm0-2.29H5.2a.66.66,0,1,1,0-1.32H7.83a.66.66,0,1,1,0,1.32Zm0-2.29H5.2a.66.66,0,1,1,0-1.32H7.83a.66.66,0,1,1,0,1.32Zm0-2.29H5.2a.66.66,0,0,1,0-1.32H7.83a.66.66,0,1,1,0,1.32Z"/><rect class="cls-2" width="26" height="26"/></g></g></svg>